<?xml version="1.0" encoding="UTF-8" standalone="no"?>
<!-- Created with Inkscape (http://www.inkscape.org/) -->

<svg
   xmlns:dc="http://purl.org/dc/elements/1.1/"
   xmlns:cc="http://creativecommons.org/ns#"
   xmlns:rdf="http://www.w3.org/1999/02/22-rdf-syntax-ns#"
   xmlns:svg="http://www.w3.org/2000/svg"
   xmlns="http://www.w3.org/2000/svg"
   xmlns:inkscape="http://www.inkscape.org/namespaces/inkscape"
   version="1.1"
   width="146.05"
   height="54.849998"
   id="svg2"
   xml:space="preserve"><metadata
     id="metadata8"><rdf:RDF><cc:Work
         rdf:about=""><dc:format>image/svg+xml</dc:format><dc:type
           rdf:resource="http://purl.org/dc/dcmitype/StillImage" /></cc:Work></rdf:RDF></metadata><defs
     id="defs6"><clipPath
       id="clipPath18"><path
         d="m 0,0 1168,0 0,438.75 -1168,0 L 0,0 z"
         inkscape:connector-curvature="0"
         id="path20" /></clipPath></defs><g
     transform="matrix(1.25,0,0,-1.25,0,54.85)"
     id="g10"><g
       transform="scale(0.1,0.1)"
       id="g12"><g
         id="g14"><g
           clip-path="url(#clipPath18)"
           id="g16"><path
             d="m 705.312,204.375 0,-5.313 c 0,-9.609 0.352,-17.695 -4.374,-26.25 -3.821,-6.953 -9.793,-11.25 -16.563,-11.25 -9.207,0 -14.687,7.461 -14.687,18.126 0,21.015 18.242,24.687 35.624,24.687 z m -315,0 0,-5.313 c 0,-9.609 0.348,-17.695 -4.374,-26.25 -3.821,-6.953 -9.825,-11.25 -16.563,-11.25 -9.199,0 -14.687,7.461 -14.687,18.126 0,21.015 18.257,24.687 35.624,24.687 z m 534.063,46.25 c 7.617,0 13.242,-3.398 15.937,-12.187 3.126,-10.133 3.438,-22.778 3.438,-33.438 0,-16.238 -0.762,-43.125 -19.375,-43.125 -18.828,0 -18.75,33.281 -18.75,48.75 0,15.43 1.035,40 18.75,40 z m -151.563,23.75 c -2.441,0 -4.367,-1.937 -4.374,-4.687 l 0,-18.126 c 0.007,-2.71 1.874,-4.667 4.374,-4.687 l 41.25,0 -47.187,-69.687 c -2.883,-4.493 -3.125,-9.583 -3.125,-12.5 l 0,-18.438 c 0,-2.656 2.891,-5.547 5.625,-4.062 26.895,14.675 59.121,13.378 83.437,0.312 2.95,-1.609 5.938,1.406 5.938,4.062 l 0,19.376 c -0.234,2.585 -1.25,5.078 -4.375,6.874 -13.801,7.942 -29.824,10.372 -45,10 l 40.937,60 c 3.79,5.391 5.911,8.641 5.938,11.25 l 0,15.626 c 0,2.691 -1.836,4.687 -4.375,4.687 l -79.063,0 z m 288.748,2.187 c -16.61,0 -26.1,-8.304 -32.81,-25.624 l -0.31,0 0,19.374 c -0.43,1.958 -2.28,3.317 -4.38,3.438 l -22.18,0 c -2.427,0 -4.478,-1.754 -4.692,-4.062 l 0,-126.563 c 0,-2.395 1.972,-4.531 4.372,-4.687 l 23.75,0 c 2.56,0 4.65,2.128 4.69,4.687 l 0,68.125 c 0,8.539 0.72,16.332 4.06,24.062 2.7,6.129 7.91,10 13.75,10 16.58,0 15,-20.207 15,-34.062 l 0,-68.75 c 0.24,-2.148 2.18,-3.926 4.38,-4.062 l 24.06,0 c 2.36,0 4.41,1.796 4.69,4.062 l 0,79.688 c 0,12.25 0.03,29.265 -6.25,39.374 -6.73,10.926 -17.39,15 -28.13,15 l 0,0 z m -137.185,0 c -34.766,0 -54.063,-30.57 -54.063,-70 0,-39.16 19.083,-70.624 54.063,-70.624 33.652,0 55,30.742 55,69.374 0,39.942 -19.336,71.25 -55,71.25 z m -409.063,0 c -14.781,0 -25.742,-7.457 -31.562,-23.437 l -0.312,0 0,16.563 c -0.153,2.308 -2.036,4.253 -4.376,4.374 l -22.5,0 c -2.546,0 -4.687,-2.16 -4.687,-4.687 l 0,-126.563 c 0.191,-2.246 2.086,-4.218 4.375,-4.374 l 24.062,0 c 2.571,0 4.676,2.136 4.688,4.687 l 0,67.187 c 0,14.649 -0.707,34.688 16.562,34.688 17.051,0 14.688,-20.586 14.688,-34.688 l 0,-67.187 c 0,-2.395 1.953,-4.531 4.375,-4.687 l 24.063,0 c 2.558,0 4.687,2.136 4.687,4.687 l 0,67.187 c 0,7.188 -0.293,17.661 2.187,24.063 2.469,6.402 8.536,10.625 14.376,10.625 6.957,0 12.269,-2.426 14.062,-10.938 1.117,-5.058 0.625,-18.425 0.625,-23.75 l 0,-67.187 c 0,-2.395 1.953,-4.531 4.375,-4.687 l 24.062,0 c 2.559,0 4.688,2.136 4.688,4.687 l 0,80 c 0,13.59 1.367,29.02 -6.25,39.687 -6.73,9.583 -17.734,13.75 -27.812,13.75 -14.141,0 -27.293,-7.457 -33.126,-23.437 -6.726,15.973 -16.218,23.437 -31.25,23.437 z m 177.188,1.25 c -22.883,0 -48.391,-8.812 -53.75,-37.812 -0.566,-3.082 1.453,-4.551 3.438,-5 l 23.437,-2.812 c 2.168,0.109 3.652,2.464 4.063,4.687 2.011,9.98 10.214,14.687 19.374,14.687 4.961,0 10.508,-1.699 13.438,-6.25 3.352,-5.07 2.812,-11.96 2.812,-17.812 l 0,-3.438 c -13.925,-1.601 -31.953,-2.57 -45,-8.437 -15.058,-6.687 -25.624,-20.305 -25.624,-40.313 0,-25.644 15.722,-38.437 35.937,-38.437 17.063,0 26.504,4.016 39.687,17.813 4.356,-6.504 5.774,-9.454 13.75,-16.25 1.797,-0.958 4.036,-0.86 5.626,0.624 l 0,-0.312 c 4.804,4.375 13.527,12.344 18.437,16.562 1.953,1.641 1.504,4.336 0,6.563 -4.395,6.223 -9.063,11.238 -9.063,22.813 l 0,38.437 c 0,16.277 1.055,31.289 -10.624,42.5 -9.219,9.07 -24.258,12.187 -35.938,12.187 z m -315,0 c -22.871,0 -48.398,-8.812 -53.75,-37.812 -0.57,-3.082 1.469,-4.551 3.438,-5 l 23.437,-2.812 c 2.168,0.109 3.645,2.464 4.063,4.687 2,9.98 10.214,14.687 19.374,14.687 4.954,0 10.508,-1.699 13.438,-6.25 3.359,-5.07 3.125,-11.96 3.125,-17.812 l 0,-3.438 c -13.93,-1.601 -32.27,-2.57 -45.313,-8.437 -15.046,-6.687 -25.624,-20.305 -25.624,-40.313 0,-25.644 15.707,-38.437 35.937,-38.437 17.078,0 26.52,4.016 39.687,17.813 4.372,-6.504 5.774,-9.454 13.75,-16.25 1.782,-0.958 4.036,-0.86 5.626,0.624 l 0,-0.312 c 4.8,4.375 13.527,12.344 18.437,16.562 1.957,1.641 1.527,4.336 0,6.563 -4.391,6.223 -9.063,11.238 -9.063,22.813 l 0,38.437 c 0,16.277 1.376,31.289 -10.312,42.5 -9.207,9.07 -24.57,12.187 -36.25,12.187"
             inkscape:connector-curvature="0"
             id="path22"
             style="fill:#191718;fill-opacity:1;fill-rule:nonzero;stroke:none" /><path
             d="m 538.125,84.6875 c 5.422,0 10.027,-3.0078 13.75,-8.75 3.723,-5.75 5.313,-14.6094 5.313,-26.875 0,-11.9531 -1.762,-20.8594 -5.626,-26.875 -3.863,-6.0156 -8.457,-9.0625 -13.437,-9.0625 -3.66,0 -6.992,1.2305 -10,3.75 -3.02,2.5195 -5.234,6.1328 -6.875,10.9375 -1.641,4.8047 -2.5,12.207 -2.5,21.875 0,11.3867 2.027,19.9219 5.938,25.9375 3.91,6.0156 8.457,9.0625 13.437,9.0625 z m -77.5,0 c 6,0 10.816,-2.9414 14.687,-8.75 2.672,-3.9844 4.45,-10.0391 5,-18.125 l -39.687,0 c 0.383,8.2031 2.41,14.8437 6.25,19.6875 3.816,4.8438 8.34,7.1875 13.75,7.1875 z m 530.313,3.4375 c 6.054,0 11.072,-2.9375 15.002,-8.75 2.69,-3.9844 4.45,-10.0391 5,-18.125 l -40.315,0 c 0.383,8.2031 2.695,14.5312 6.563,19.375 3.847,4.8438 8.292,7.5 13.75,7.5 z m -293.126,0 c 6.075,0 11.075,-2.9375 15,-8.75 2.696,-3.9844 4.454,-10.0391 5,-18.125 l -40.312,0 c 0.383,8.2031 2.695,14.5312 6.562,19.375 3.868,4.8438 8.301,7.5 13.75,7.5 z m 436.568,6.5625 0,-35.625 4.37,0 0,30.3125 10.31,-30.3125 4.38,0 10.31,29.6875 0,-29.6875 4.69,0 0,35.625 -6.56,0 -8.44,-25 c -0.85,-2.5 -1.46,-4.3047 -1.88,-5.625 l -1.87,5.3125 -8.44,25.3125 -6.87,0 z m -33.13,0 0,-4.375 11.88,0 0,-31.25 4.68,0 0,31.25 11.88,0 0,4.375 -28.44,0 z m -777.812,0.9375 21.874,-93.4375 12.813,0 14.375,71.875 2.5,-15.9375 11.562,-55.9375 12.5,0 22.188,93.4375 -11.562,0 -12.188,-54.0625 -4.062,-18.125 -3.75,18.125 -10.626,54.0625 -12.5,0 -11.25,-54.6875 -3.75,-19.375 -4.374,20 -11.25,54.0625 -12.5,0 z m 137.187,2.1875 c -9.668,0 -17.449,-4.3359 -23.75,-12.8125 -6.309,-8.4766 -9.687,-20.7617 -9.687,-36.875 0,-15.5273 3.124,-27.3945 9.374,-35.625 6.25,-8.23047 14.59,-12.5 24.688,-12.5 8.02,0 14.57,2.74219 20,7.8125 5.422,5.0703 9.172,12.5313 11.25,22.5 l -12.188,1.875 c -3.55,-12.7734 -10.003,-19.043 -19.062,-19.0625 -5.789,0 -10.648,2.4805 -14.688,7.8125 -4.039,5.3398 -6.386,13.2617 -6.874,23.75 l 53.124,0 0.313,4.375 c 0,15.7734 -3.203,27.918 -9.375,36.25 -6.172,8.332 -13.906,12.5 -23.125,12.5 z m 400.625,1.25 0,-93.4375 12.188,0 0,93.4375 -12.188,0 z m -76.562,0 27.187,-93.4375 11.563,0 27.187,93.4375 -12.5,0 -15.937,-57.1875 c -1.934,-6.9141 -3.633,-12.8828 -4.688,-17.8125 -1.328,6.2109 -2.605,12.7344 -4.375,19.0625 l -15.625,55.9375 -12.812,0 z m 278.752,1.8755 c -8.5,0 -15.22,-2.5083 -20,-7.5005 -4.81,-4.9805 -7.19,-11.4063 -7.19,-19.375 0,-4.6289 0.73,-8.543 2.5,-12.1875 1.76,-3.6445 4.3,-6.582 7.5,-8.75 3.18,-2.168 9.59,-5.0195 19.06,-8.125 6.55,-2.1094 10.79,-3.9062 12.5,-5.3125 2.48,-2.0508 3.75,-4.7383 3.75,-8.4375 0,-4.2773 -1.48,-7.8516 -4.37,-10.625 -2.88,-2.793 -6.92,-4.0625 -12.19,-4.0625 -5.29,0 -9.63,1.4844 -12.81,4.6875 -3.19,3.2031 -5.24,8.0859 -5.94,14.6875 l -12.19,-2.5 c 2.76,-20.0469 12.74,-30.00781 30,-30 9.21,0 16.56,2.60938 21.88,8.125 5.32,5.5156 8.12,12.9492 8.12,21.875 0,4.8242 -0.85,9.0039 -2.5,12.5 -1.65,3.4961 -4.22,6.0937 -7.18,8.125 -2.96,2.0234 -9.28,4.7148 -19.38,8.125 -7.34,2.5703 -11.95,4.4531 -13.44,5.625 -2.49,1.9844 -3.75,4.6758 -3.75,8.125 0,3.5156 1.48,6.5039 4.07,8.75 2.58,2.2461 6.6,3.4375 11.87,3.4375 9.32,0 14.53,-5.1172 15.63,-15.3125 l 11.87,1.875 c -0.83,6.4453 -2.22,11.543 -4.37,15 -2.15,3.457 -5.34,6.375 -9.38,8.4375 -4.04,2.051 -8.72,2.813 -14.06,2.813 z m -72.19,0 c -9.766,0 -18.008,-4.0239 -24.375,-12.5005 -6.367,-8.4766 -9.375,-20.7617 -9.375,-36.875 0,-15.5273 3.066,-27.6953 9.375,-35.9375 6.316,-8.23047 14.492,-12.1875 24.687,-12.1875 8.086,0 14.828,2.42969 20.318,7.5 5.47,5.0703 9.46,12.5313 11.56,22.5 l -12.5,2.1875 c -3.6,-12.7734 -9.92,-19.043 -19.065,-19.0625 -5.84,0 -10.918,2.4805 -15,7.8125 -4.082,5.3438 -6.379,13.2617 -6.875,23.75 l 53.75,0 0,4.375 c 0,15.7695 -3.14,27.6055 -9.37,35.9375 -6.23,8.332 -13.81,12.5005 -23.13,12.5005 z m -69.688,0 c -9.648,0 -17.597,-4.063 -23.75,-12.188 -6.132,-8.125 -9.374,-20.3203 -9.374,-36.5625 0,-16.1133 3.281,-28.3203 9.374,-36.5625 6.094,-8.23047 13.711,-12.1875 23.126,-12.1875 7.773,0 14.453,2.89062 20,8.75 5.546,5.8594 8.925,14.4844 10.312,25.625 l -11.875,1.875 c -0.879,-7.9687 -2.957,-13.7031 -6.25,-17.5 -3.289,-3.7813 -7.246,-5.625 -11.875,-5.625 -5.898,0 -10.918,2.7539 -14.688,8.4375 -3.769,5.6836 -5.624,14.7852 -5.624,27.5 0,12.3242 1.992,21.2109 5.937,26.875 3.945,5.6641 8.984,8.75 15,8.75 4.023,0 7.449,-1.5625 10.313,-4.6875 2.878,-3.125 4.785,-8.0781 5.937,-14.375 l 11.875,2.5 c -1.426,9.8437 -4.59,17.2656 -9.688,22.1875 -5.117,4.9336 -11.308,7.188 -18.75,7.188 z m -149.374,0 c -2.918,0 -5.469,-0.9888 -7.813,-3.1255 -2.344,-2.1367 -5,-6.5508 -7.813,-13.125 l 0,14.375 -10.937,0 0,-93.4375 12.187,0 0,48.75 c 0,6.7969 0.645,13.3398 2.188,19.375 0.879,3.457 2.539,6.1914 4.688,8.125 2.148,1.9336 4.597,2.8125 7.187,2.8125 2.871,0 5.723,-1.1523 8.75,-3.4375 l 4.063,14.6875 c -4.25,3.3984 -8.418,5.0005 -12.5,5.0005 z m -74.063,0 c -9.766,0 -18.008,-4.0239 -24.375,-12.5005 -6.367,-8.4766 -9.375,-20.7617 -9.375,-36.875 0,-15.5273 3.066,-27.6953 9.375,-35.9375 6.309,-8.23047 14.492,-12.1875 24.688,-12.1875 8.105,0 14.832,2.42969 20.312,7.5 5.488,5.0703 9.473,12.5313 11.562,22.5 l -12.5,2.1875 c -3.593,-12.7734 -10.214,-19.043 -19.374,-19.0625 -5.84,0 -10.606,2.4805 -14.688,7.8125 -4.082,5.3438 -6.387,13.2617 -6.875,23.75 l 53.75,0 0,4.375 c 0,15.7695 -3.145,27.6055 -9.375,35.9375 -6.238,8.332 -13.809,12.5005 -23.125,12.5005 z m -74.687,0 c -8.477,0 -15.215,-2.5083 -20,-7.5005 -4.786,-4.9805 -7.188,-11.4063 -7.188,-19.375 0,-4.6289 1.047,-8.543 2.812,-12.1875 1.766,-3.6445 4.317,-6.582 7.5,-8.75 3.204,-2.168 9.583,-5.0195 19.063,-8.125 6.563,-2.1094 10.48,-3.9062 12.187,-5.3125 2.481,-2.0508 3.75,-4.7383 3.75,-8.4375 0,-4.2773 -1.484,-7.8516 -4.374,-10.625 -2.891,-2.793 -6.915,-4.0625 -12.188,-4.0625 -5.273,0 -9.629,1.4844 -12.812,4.6875 -3.184,3.2031 -4.903,8.0859 -5.626,14.6875 l -12.187,-2.5 c 2.754,-20.0469 12.754,-30.00781 30,-30 9.199,0 16.238,2.60938 21.563,8.125 5.324,5.5156 8.124,12.9492 8.124,21.875 0,4.8242 -0.847,9.0039 -2.5,12.5 -1.652,3.4961 -3.917,6.0937 -6.874,8.125 -2.969,2.0234 -9.59,4.7148 -19.688,8.125 -7.344,2.5703 -11.641,4.4531 -13.125,5.625 -2.488,1.9844 -3.75,4.6758 -3.75,8.125 0,3.5156 1.16,6.5039 3.75,8.75 2.59,2.2461 6.582,3.4375 11.875,3.4375 9.316,0 14.531,-5.1172 15.625,-15.3125 l 11.875,1.875 c -0.82,6.4453 -2.227,11.543 -4.375,15 -2.148,3.457 -5.332,6.375 -9.375,8.4375 -4.062,2.051 -8.711,2.813 -14.062,2.813 z m -115.626,30.312 0,-129.0625 11.25,0 0,11.5625 C 521.465,9.17188 524.188,5.74219 527.5,3.4375 530.801,1.13281 534.59,0 538.75,0 c 8.262,0 15.391,4.21875 21.562,12.8125 6.172,8.5937 9.376,21.043 9.376,36.875 0,10.3711 -1.333,18.9648 -4.063,26.25 -2.73,7.2656 -6.379,12.6758 -10.937,16.25 -4.559,3.5742 -9.743,5.625 -15.313,5.625 -3.98,0 -7.695,-1.043 -10.937,-3.125 C 525.188,92.6055 522.559,89.2188 520,85 l 0,46.25 -12.188,0 z m 353.438,3.125 0,-18.125 12.188,0 0,18.125 -12.188,0"
             inkscape:connector-curvature="0"
             id="path24"
             style="fill:#040606;fill-opacity:1;fill-rule:nonzero;stroke:none" /><path
             d="m 218.281,158.75 -61.562,-23.438 0,-88.1245 61.562,25 0,86.5625 z m -139.9998,0 -1.5624,-90 68.1252,-30 0,93.438 -66.5628,26.562 z m 69.9998,25 -46.562,-20 43.125,-18.438 50,18.438 -46.563,20"
             inkscape:connector-curvature="0"
             id="path26"
             style="fill:#f89e1a;fill-opacity:1;fill-rule:nonzero;stroke:none" /><path
             d="m 356.719,407.188 -55,-23.438 0,-88.438 55,25 0,86.876 z m -130,5 0,-90 58.125,-16.876 1.875,81.876 -60,25 z m 65,26.562 -46.875,-20 43.437,-18.438 50,18.438 -46.562,20"
             inkscape:connector-curvature="0"
             id="path28"
             style="fill:#f89e1a;fill-opacity:1;fill-rule:nonzero;stroke:none" /><path
             d="M 141.562,287.078 80,263.645 l 0,-88.125 61.562,25 0,86.558 z m -139.9995,0 -1.5625,-90 68.125,-30 0,93.442 -66.5625,26.558 z m 70,25 -46.5625,-20 43.125,-18.433 50,18.433 -46.5625,20"
             inkscape:connector-curvature="0"
             id="path30"
             style="fill:#f89e1a;fill-opacity:1;fill-rule:nonzero;stroke:none" /><path
             d="M 291.562,290.406 230,266.969 l 0,-88.121 61.562,25 0,86.558 z m -140,0 -1.562,-89.996 68.125,-30 0,93.434 -66.563,26.562 z m 70,25 -46.562,-20 43.125,-18.437 50,18.437 -46.563,20"
             inkscape:connector-curvature="0"
             id="path32"
             style="fill:#f89e1a;fill-opacity:1;fill-rule:nonzero;stroke:none" /><path
             d="m 508.23,413.75 -61.558,-23.438 0,-88.124 61.558,25 0,86.562 z m -140,0 -1.558,-90 68.125,-30 0,93.438 -66.567,26.562 z m 70,25 -46.558,-20 43.125,-18.438 50,18.438 -46.567,20"
             inkscape:connector-curvature="0"
             id="path34"
             style="fill:#f89e1a;fill-opacity:1;fill-rule:nonzero;stroke:none" /></g></g></g></g></svg>