<?xml version="1.0" encoding="utf-8"?>
<!-- Generator: Adobe Illustrator 17.1.0, SVG Export Plug-In . SVG Version: 6.00 Build 0)  -->
<!DOCTYPE svg PUBLIC "-//W3C//DTD SVG 1.1//EN" "http://www.w3.org/Graphics/SVG/1.1/DTD/svg11.dtd">
<svg version="1.1" id="Layer_1" xmlns="http://www.w3.org/2000/svg" xmlns:xlink="http://www.w3.org/1999/xlink" x="0px" y="0px"
	 viewBox="0 0 183.5 32.9" enable-background="new 0 0 183.5 32.9" xml:space="preserve">
<g>
	<g>
		
			<text transform="matrix(-0.2068 -0.9784 2.2526 -0.1986 27.3466 5.4491)" fill="#28334C" font-family="'Lobster1.4'" font-size="10.2434">S</text>
	</g>
</g>
<g>
	<g>
		<path fill="#28334C" d="M1.5,15.4c-1.1,1.4-1.6,3-1.5,4.6c0.1,1.6,0.9,2.9,2.1,3.9c1.3,1,2.7,1.3,4.3,1c0.6-0.1,1.3-0.4,1.9-0.6
			c-1.3,0-2.4-0.4-3.5-1.3c-1.2-0.9-2-2.1-2.2-3.6c-0.3-1.4,0-2.7,0.8-3.8c0.9-1.1,2-1.7,3.5-1.9c1.5-0.1,2.8,0.3,4.1,1.2
			c-0.3-0.4-0.7-0.7-1.1-1.1c-1.3-0.9-2.7-1.3-4.4-0.9C3.9,13.2,2.6,14,1.5,15.4z"/>
	</g>
</g>
<g>
	<g>
		<path fill="#28334C" d="M18.9,7.9c-4.2,0-7.9-0.4-10.6-1C5.4,6.2,3.9,5.4,3.9,4.4c0-0.4,0.2-0.8,0.8-1.2C2.9,3.9,1.9,4.5,1.9,5.4
			c0.1,1,1.7,2,5,2.8C10,9,14,9.4,18.8,9.4c4.9,0,8.8-0.4,11.9-1.2c3.3-0.8,4.9-1.8,4.9-2.8c0-0.7-0.7-1.4-2-1.9
			c0.3,0.2,0.5,0.5,0.5,0.9c0,1-1.5,1.8-4.5,2.5C26.8,7.5,23.2,7.9,18.9,7.9z"/>
	</g>
</g>
<g>
	<g>
		<path fill="#28334C" d="M30.8,10.7c-3.1,0.7-7.1,1.2-11.9,1.2c-4.9,0-8.9-0.5-12-1.2C4.1,10,2.6,9.2,2.1,8.4l0,0
			c0.5,3.5,1.7,6.8,3.3,9.7c1.2,1.8,2.4,3.4,3.6,5.1c0.5,1,0.9,2,1.1,3c0.8,1.1,1.9,1.8,3.3,2.2c1.7,0.6,3.5,0.9,5.3,0.8h0.2
			c1.8,0.1,3.7-0.2,5.5-0.8c1.3-0.4,2.4-1.1,3.2-2.2h0.1l0,0c0.2-1,0.5-2,1-3c1.2-1.7,2.4-3.3,3.6-5.1c1.6-2.9,2.7-6.2,3.3-9.7
			C35,9.3,33.5,10.1,30.8,10.7z"/>
	</g>
</g>
<g>
	<path fill="#28334C" d="M65.3,20.5c-1.6,3.9-5.7,5.5-8.4,5.5c-4.4,0-6.5-1.9-6.5-7.2c0-5.3,2.6-15.3,10.3-15.3
		c2.8,0,4.9,1.1,4.9,3.9c0,1.6-0.6,2.7-2.1,2.7c-0.5,0-1.1-0.1-1.7-0.8c0.7-0.4,1.4-1.6,1.4-2.7c0-0.9-0.5-1.8-1.8-1.8
		c-3.2,0-6.1,7.7-6.1,13.8c0,2.7,0.7,4.6,3.5,4.6c2.3,0,4.4-1.1,5.7-2.9L65.3,20.5z"/>
	<path fill="#28334C" d="M75.9,15.2c0.1,0.1,0.2,0.1,0.3,0.1c1.4,0,3.3-0.9,4.5-1.8l0.3,0.8c-1.1,1.2-3.1,2.1-5.2,2.4
		c-0.5,5.5-3.4,8.9-7,8.9c-2.7,0-4.7-1.3-4.7-4.7c0-3.4,2-10.5,8.1-10.5C74.7,10.5,75.9,12.1,75.9,15.2z M73.4,16.9
		c-0.6-0.1-0.8-0.6-0.8-1.2c0-0.8,0.4-1.4,0.9-1.6c-0.1-1.2-0.4-1.7-1.1-1.7c-2.1,0-3.9,5.4-3.9,8.3c0,1.9,0.4,2.4,1.5,2.4
		C71.4,23,72.9,20.3,73.4,16.9z"/>
	<path fill="#28334C" d="M71.3,29.7c0-2.7,2.3-3.6,5.1-4.4l3.5-16.8c0.9-4.2,3.4-5,5.4-5c1.3,0,2.6,0.7,3.2,1.9
		c1.2-1.5,2.7-1.9,4-1.9c1.8,0,3.5,1.3,3.5,3.2c0,0.5,0,0.9-0.1,1.2h-1.4c0-0.3,0.1-0.5,0.1-0.8c0-0.7-0.5-1-1.1-1
		c-0.6,0-1.6,0.4-2,2.3l-0.5,2.4h2.9L93.6,12h-2.9l-3.3,15.9c-0.9,4.2-3.4,5-5.4,5c-1.7,0-2.7-0.7-3.2-1.9c-1.1,1.5-2.7,1.9-4,1.9
		C73,32.9,71.3,31.6,71.3,29.7z M74.3,30.3c0.6,0,1.4-0.6,1.7-2.3l0.4-1.7c-1.9,0.6-3.3,1.4-3.3,3C73.1,29.7,73.6,30.3,74.3,30.3z
		 M81.3,30.3c0.6,0,1.4-0.6,1.7-2.3l0.7-3.4l-3,0.6l-0.6,2.7c-0.1,0.7-0.4,1.3-0.6,1.8C79.8,30.1,80.5,30.3,81.3,30.3z M80.8,24.4
		l3-0.5L86.4,12h-2.9L80.8,24.4z M86.2,6c-0.6,0-1.6,0.4-2,2.3l-0.5,2.4h2.9l0.7-3.1c0.1-0.2,0.1-0.4,0.1-0.6
		C87.3,6.4,86.8,6,86.2,6z"/>
	<path fill="#28334C" d="M98.5,23.2c2.3,0,3.7-1.3,5.2-3h1c-1.7,2.7-4.2,5.5-8.1,5.5c-2.8,0-4.6-1.4-4.6-4.7c0-3.4,1.9-10.5,8-10.5
		c2.6,0,3.2,1.4,3.2,2.8c0,3.4-3.2,6-6.8,6.2c0,0.4-0.1,0.8-0.1,1.2C96.4,22.8,97.1,23.2,98.5,23.2z M100.2,12.1
		c-1.5,0-2.9,3.2-3.5,6.1c2.3-0.1,4.3-2.4,4.3-4.9C100.9,12.6,100.8,12.1,100.2,12.1z"/>
	<path fill="#28334C" d="M109.5,22.9c1.1,0,2.5-0.7,3.5-1.6c-0.6,3.4-2.7,4.4-5.1,4.4c-2.7,0-4.6-1.4-4.6-4.7c0-3.4,1.9-10.5,8-10.5
		c2.6,0,3.2,1.4,3.2,2.8c0,3.4-3.2,6-6.8,6.2c0,0.3-0.1,0.6-0.1,0.9C107.7,22.3,108.5,22.9,109.5,22.9z M111.5,12.1
		c-1.5,0-2.9,3.3-3.6,6.1c2.3-0.1,4.3-2.4,4.3-4.9C112.2,12.6,112.1,12.1,111.5,12.1z"/>
	<path fill="#28334C" d="M128.1,9.9c-0.5,0-1-0.2-1.4-0.6c0.8-0.5,1.3-1.6,1.3-2.5c0-1-0.6-2-2.2-2c-1.6,0-2.7,0.9-2.7,2.7
		c0,4.3,6.6,4.9,6.6,11.3c0,4.9-4,7.4-8.3,7.4c-3.4,0-6.2-1.5-6.2-5.1c0-3.2,2.3-4.8,4.3-4.8c1,0,2.5,0.4,2.6,1.9
		c-1.6,0-3.4,0.7-3.4,2.8c0,1.5,0.9,2.8,2.8,2.8c2,0,3.4-1.4,3.4-3.9c0-5-6-6.8-6-11.2c0-3.1,3-5.3,6.8-5.3c1.4,0,4.7,0.3,4.7,3.5
		C130.5,8.7,129.6,9.9,128.1,9.9z"/>
	<path fill="#28334C" d="M139.9,13.3c0-0.7-0.3-1.2-0.8-1.2c-1.9,0-3.8,5.4-3.8,8.7c0,2,0.7,2.5,2.1,2.5c2.3,0,3.7-1.3,5.2-3h1
		c-1.7,2.7-4.2,5.5-8.1,5.5c-2.8,0-4.6-1.4-4.6-4.7c0-3.4,1.9-10.5,7.9-10.5c2.6,0,3.3,1.4,3.3,2.7c0,1.4-0.7,2.2-1.6,2.2
		c-0.3,0-0.7-0.1-1-0.4C139.7,14.4,139.9,13.8,139.9,13.3z"/>
	<path fill="#28334C" d="M148.9,10.8l-0.4,1.8c1-0.9,2.2-1.8,3.6-1.8c1.3,0,2,1.1,2,2.2c0,1-0.7,2.2-2.1,2.2c-1.7,0-0.8-1.9-1.7-1.9
		c-0.9,0-1.4,0.4-2.2,1.1l-2.4,11.2h-4.2l3.1-14.7H148.9z"/>
	<path fill="#28334C" d="M159.9,10.8l-2.1,10c-0.1,0.4-0.1,0.7-0.1,0.9c0,0.8,0.4,1.1,1.2,1.1c1.1,0,2.2-1.1,2.7-2.6h1.2
		c-1.7,4.8-4.6,5.5-6.2,5.5c-1.8,0-3.2-1.1-3.2-3.5c0-0.6,0.1-1.2,0.2-1.9l2-9.5H159.9z M158.6,4.5c1.3,0,2.4,1.1,2.4,2.4
		s-1.1,2.3-2.4,2.3c-1.3,0-2.3-1-2.3-2.3S157.3,4.5,158.6,4.5z"/>
	<path fill="#28334C" d="M168,9.7l-0.5,2.2c0.9-0.7,2-1.3,3.4-1.3c2,0,3.6,1.1,3.6,4.7c0,4-1.5,10.4-7.2,10.4
		c-1.5,0-2.2-0.5-2.5-1.1l-1.5,7.2l-4.4,1.1l4.9-23.2H168z M170.6,15.2c0-2.3-0.9-2.4-1.5-2.4c-0.6,0-1.5,0.5-2,1.4l-1.7,8.2
		c0.1,0.3,0.4,0.7,1.1,0.7C169.5,23.1,170.6,18,170.6,15.2z"/>
	<path fill="#28334C" d="M179.6,20.8c-0.1,0.4-0.1,0.7-0.1,1c0,0.6,0.2,1.1,1,1.1c0.2,0,0.5,0,0.8-0.1c-0.8,2.5-2.1,2.9-3.1,2.9
		c-2.1,0-2.9-1.4-2.9-3.3c0-0.5,0.1-1,0.2-1.6l1.9-8.8h-1l0.2-1.2h1l0.9-4.1l4.4-0.6c0,0-0.4,2-1,4.7h1.8l-0.2,1.2h-1.8L179.6,20.8z
		"/>
</g>
</svg>
