<?xml version="1.0" encoding="UTF-8" standalone="no"?>
<!-- Created with Inkscape (http://www.inkscape.org/) -->

<svg
   xmlns:dc="http://purl.org/dc/elements/1.1/"
   xmlns:cc="http://creativecommons.org/ns#"
   xmlns:rdf="http://www.w3.org/1999/02/22-rdf-syntax-ns#"
   xmlns:svg="http://www.w3.org/2000/svg"
   xmlns="http://www.w3.org/2000/svg"
   xmlns:inkscape="http://www.inkscape.org/namespaces/inkscape"
   version="1.1"
   width="162.575"
   height="71.849998"
   id="svg2"
   xml:space="preserve"><metadata
     id="metadata8"><rdf:RDF><cc:Work
         rdf:about=""><dc:format>image/svg+xml</dc:format><dc:type
           rdf:resource="http://purl.org/dc/dcmitype/StillImage" /></cc:Work></rdf:RDF></metadata><defs
     id="defs6"><clipPath
       id="clipPath18"><path
         d="M 0,574.762 0,0 l 1300.62,0 0,574.762 -1300.62,0 z"
         inkscape:connector-curvature="0"
         id="path20" /></clipPath></defs><g
     transform="matrix(1.25,0,0,-1.25,0,71.85)"
     id="g10"><g
       transform="scale(0.1,0.1)"
       id="g12"><g
         id="g14"><g
           clip-path="url(#clipPath18)"
           id="g16"><path
             d="m 72.3242,330.773 0,0 c 0,-28.925 13.2031,-43.39 39.6098,-43.39 25.578,0 38.359,14.672 38.359,44.019 0,12.157 -2.93,22.637 -8.801,31.442 -7.129,9.64 -16.98,14.465 -29.558,14.465 -26.4067,0 -39.6098,-15.516 -39.6098,-46.536 z M 169.16,89.2969 l 0,0 c 0,21.3871 -17.605,32.0701 -52.82,32.0701 -33.9572,0 -50.9377,-11.101 -50.9377,-33.3201 0,-21.7969 18.4454,-32.6953 55.3397,-32.6953 32.278,0 48.418,11.3086 48.418,33.9453 z M 166.648,420.07 c 20.122,0 43.379,5.028 69.797,15.086 l 0,-64.765 c -5.871,-2.094 -14.25,-4.399 -25.156,-6.918 3.359,-9.641 5.027,-18.653 5.027,-27.043 0,-26.825 -8.062,-50.2 -24.199,-70.11 -16.14,-19.914 -37,-31.758 -62.578,-35.531 -16.766,-2.516 -25.144,-11.531 -25.144,-27.039 0,-5.449 2.722,-10.898 8.171,-16.348 7.122,-7.968 17.61,-13.007 31.438,-15.097 59.949,-9.219 89.922,-34.16 89.922,-74.8245 C 233.926,32.5 195.145,0 117.598,0 85.7305,0 59.5312,5.66406 38.9922,16.9844 12.9961,31.2305 0,53.6719 0,84.2773 0,119.484 19.5039,143.594 58.4844,156.582 l 0,1.262 c -14.2578,8.797 -21.375,22.215 -21.375,40.242 0,23.476 6.7109,38.152 20.1172,44.023 l 0,1.25 c -13.4063,4.61 -25.3633,15.098 -35.8399,31.446 -11.73826,17.605 -17.60545,36.476 -17.60545,56.597 0,30.184 10.69145,55.336 32.06645,75.457 20.539,18.868 45.0703,28.297 73.5783,28.297 20.535,0 39.605,-5.027 57.222,-15.086"
             inkscape:connector-curvature="0"
             id="path22"
             style="fill:#040606;fill-opacity:1;fill-rule:nonzero;stroke:none" /><path
             d="m 303.125,481.066 c -12.156,0 -22.527,4.61 -31.121,13.832 -8.598,9.223 -12.895,20.122 -12.895,32.7 0,13 4.297,24.101 12.895,33.332 8.594,9.222 18.965,13.832 31.121,13.832 11.738,0 21.902,-4.61 30.496,-13.832 8.598,-9.231 12.895,-20.332 12.895,-33.332 0,-12.578 -4.297,-23.477 -12.895,-32.7 -8.594,-9.222 -18.758,-13.832 -30.496,-13.832"
             inkscape:connector-curvature="0"
             id="path24"
             style="fill:#040606;fill-opacity:1;fill-rule:nonzero;stroke:none" /><path
             d="m 267.285,152.812 c 0.84,8.379 1.25,22.637 1.25,42.754 l 0,195.579 c 0,19.699 -0.41,33.324 -1.25,40.871 l 71.055,0 c -0.84,-7.969 -1.262,-21.172 -1.262,-39.618 l 0,-193.05 c 0,-21.379 0.422,-36.887 1.262,-46.536 l -71.055,0"
             inkscape:connector-curvature="0"
             id="path26"
             style="fill:#040606;fill-opacity:1;fill-rule:nonzero;stroke:none" /><path
             d="m 468.469,432.016 54.707,0 0,-60.996 c -2.102,0 -5.981,0.207 -11.645,0.625 -5.652,0.421 -11.004,0.632 -16.035,0.632 l -27.027,0 0,-116.965 c 0,-28.085 9.219,-42.128 27.664,-42.128 13,0 24.726,3.554 35.215,10.683 l 0,-62.871 c -15.52,-8.398 -34.168,-12.578 -55.965,-12.578 -30.61,0 -51.778,10.898 -63.52,32.695 -8.797,16.348 -13.203,42.129 -13.203,77.344 l 0,112.563 0.625,0 0,1.257 -9.43,0.629 c -5.453,0 -12.57,-0.629 -21.378,-1.886 l 0,60.996 30.808,0 0,24.523 c 0,11.738 -0.625,21.176 -1.883,28.301 l 72.95,0 c -1.258,-7.965 -1.883,-16.985 -1.883,-27.043 l 0,-25.781"
             inkscape:connector-curvature="0"
             id="path28"
             style="fill:#040606;fill-opacity:1;fill-rule:nonzero;stroke:none" /><path
             d="m 689.352,433.902 c -18.028,0 -36.903,-6.289 -56.61,-18.863 l 0,110.043 c 0,23.898 0.422,39.617 1.262,47.164 l -71.692,0 c 1.262,-6.707 1.899,-22.426 1.899,-47.164 l 0,-332.66 c 0,-19.277 -0.637,-32.481 -1.899,-39.61 l 72.954,0 c 0,1.262 -0.422,6.387 -1.262,15.411 -0.84,9.004 -1.262,17.082 -1.262,24.199 l 0,154.703 c 14.68,13.832 28.934,20.746 42.762,20.746 15.937,0 28.086,-7.965 36.484,-23.891 6.289,-12.578 9.434,-28.3 9.434,-47.164 l -0.625,-84.89 c 0,-14.262 -1.055,-33.957 -3.164,-59.114 l 76.094,0 c -1.68,10.477 -2.52,29.766 -2.52,57.852 l 0,86.152 c 0,36.473 -8.164,67.496 -24.512,93.067 -18.457,29.351 -44.238,44.019 -77.343,44.019 l 0,0"
             inkscape:connector-curvature="0"
             id="path30"
             style="fill:#040606;fill-opacity:1;fill-rule:nonzero;stroke:none" /><path
             d="m 911.969,150.293 c -33.125,0 -57.637,14.68 -73.574,44.023 -12.579,23.899 -18.868,55.137 -18.868,93.696 l 0,86.148 c 0,28.512 -0.82,47.793 -2.5,57.856 l 75.45,0 c -1.25,-9.223 -2.09,-28.926 -2.52,-59.11 l -0.625,-84.894 c 0,-23.891 2.734,-41.078 8.184,-51.567 6.289,-12.988 17.812,-19.492 34.57,-19.492 11.758,0 24.961,6.914 39.629,20.742 l 0,154.703 c 0,7.129 -0.43,15.301 -1.27,24.528 -0.84,9.222 -1.25,14.25 -1.25,15.09 l 72.945,0 c -0.84,-7.129 -1.27,-20.332 -1.27,-39.618 l 0,-192.418 c 0,-24.738 0.43,-40.457 1.27,-47.168 l -68.55,0 0,22.637 c -19.278,-16.765 -39.824,-25.156 -61.621,-25.156 l 0,0"
             inkscape:connector-curvature="0"
             id="path32"
             style="fill:#040606;fill-opacity:1;fill-rule:nonzero;stroke:none" /><path
             d="m 1185.54,367.871 0,0 c -13.85,0 -28.3,-6.914 -43.4,-20.746 l 0,-108.785 c 13.42,-12.996 26.62,-19.5 39.63,-19.5 16.35,0 28.71,9.012 37.09,27.039 6.72,14.258 10.08,31.23 10.08,50.937 0,47.375 -14.47,71.055 -43.4,71.055 l 0,0 z m 9.44,-216.941 c -22.64,0 -41.51,8.172 -56.61,24.519 l 0,-22.637 -66.66,0 c 1.27,7.129 1.9,20.333 1.9,39.61 l 0,332.66 c 0,24.738 -0.63,40.457 -1.9,47.164 l 71.7,0 c -0.84,-7.547 -1.27,-23.266 -1.27,-47.164 l 0,-109.418 c 19.28,12.16 38.17,18.238 56.61,18.238 33.1,0 59.1,-14.668 77.96,-44.019 15.94,-25.571 23.91,-56.594 23.91,-93.067 0,-37.304 -8.38,-69.804 -25.16,-97.468 -20.11,-32.278 -46.95,-48.418 -80.48,-48.418"
             inkscape:connector-curvature="0"
             id="path34"
             style="fill:#040606;fill-opacity:1;fill-rule:nonzero;stroke:none" /><path
             d="m 316.27,92.5391 c -3.985,5.4101 -9.114,8.8279 -16.094,8.8279 -6.699,0 -13.114,-5.1287 -13.114,-12.1092 0,-18.0976 42.606,-10.5469 42.606,-46.5898 0,-21.5157 -13.398,-36.76956 -35.344,-36.76956 -14.812,0 -25.64,8.55466 -33.054,20.95706 l 13.542,13.2422 c 2.844,-8.2618 10.403,-15.6641 19.376,-15.6641 8.546,0 13.82,7.2656 13.82,15.5273 0,11.1133 -10.254,14.25 -18.66,17.5196 -13.828,5.7031 -23.95,12.6836 -23.95,29.3554 0,17.8121 13.254,32.2071 31.348,32.2071 9.555,0 22.805,-4.707 29.359,-11.973 l -9.835,-14.5309 0,0"
             inkscape:connector-curvature="0"
             id="path36"
             style="fill:#040606;fill-opacity:1;fill-rule:nonzero;stroke:none" /><path
             d="m 388.645,98.3789 0,0 c -19.805,0 -31.497,-17.5195 -31.497,-34.9023 0,-16.5313 8.274,-36.9141 31.497,-36.9141 23.218,0 31.484,20.3828 31.484,36.9141 0,17.3828 -11.684,34.9023 -31.484,34.9023 z m 0,-92.48046 c -32.778,0 -53.149,25.07816 -53.149,56.71876 0,31.914 21.086,56.4258 53.149,56.4258 32.058,0 53.14,-24.5118 53.14,-56.4258 0,-31.6406 -20.367,-56.71876 -53.14,-56.71876"
             inkscape:connector-curvature="0"
             id="path38"
             style="fill:#040606;fill-opacity:1;fill-rule:nonzero;stroke:none" /><path
             d="m 523.848,87.6953 c -5.852,7.1289 -14.676,11.3985 -23.66,11.3985 -20.09,0 -31.633,-18.5274 -31.633,-37.0508 0,-18.0977 11.972,-36.1836 31.496,-36.1836 8.972,0 17.945,4.6992 23.797,11.3867 l 0,-24.9219 c -7.84,-3.71092 -15.672,-6.42576 -24.375,-6.42576 -30.203,0 -52.578,26.08596 -52.578,55.72266 0,30.4883 21.523,57.4219 53.007,57.4219 8.41,0 16.668,-2.285 23.946,-6.27 l 0,-25.0777"
             inkscape:connector-curvature="0"
             id="path40"
             style="fill:#040606;fill-opacity:1;fill-rule:nonzero;stroke:none" /><path
             d="m 537.645,8.75 20.9492,0 0,107.441 -20.9492,0 0,-107.441 z"
             inkscape:connector-curvature="0"
             id="path42"
             style="fill:#040606;fill-opacity:1;fill-rule:nonzero;stroke:none" /><path
             d="m 613.879,87.5586 -0.285,0 -11.836,-39.0508 25.508,0 -13.387,39.0508 z M 595.781,31.4062 586.941,8.75 l -22.086,0 41.891,110.293 16.25,0 40.75,-110.293 -22.367,0 -8.274,22.6562 -37.324,0"
             inkscape:connector-curvature="0"
             id="path44"
             style="fill:#040606;fill-opacity:1;fill-rule:nonzero;stroke:none" /><path
             d="m 691.09,26.9922 29.629,0 0,-18.2422 -50.586,0 0,107.441 20.957,0 0,-89.1988"
             inkscape:connector-curvature="0"
             id="path46"
             style="fill:#040606;fill-opacity:1;fill-rule:nonzero;stroke:none" /><path
             d="m 840.387,87.6953 c -5.84,7.1289 -14.668,11.3985 -23.653,11.3985 -20.097,0 -31.64,-18.5274 -31.64,-37.0508 0,-18.0977 11.972,-36.1836 31.504,-36.1836 8.984,0 17.949,4.6992 23.789,11.3867 l 0,-24.9219 c -7.832,-3.71092 -15.664,-6.42576 -24.356,-6.42576 -30.215,0 -52.578,26.08596 -52.578,55.72266 0,30.4883 21.504,57.4219 53.008,57.4219 8.398,0 16.66,-2.285 23.926,-6.27 l 0,-25.0777"
             inkscape:connector-curvature="0"
             id="path48"
             style="fill:#040606;fill-opacity:1;fill-rule:nonzero;stroke:none" /><path
             d="m 902.223,98.3789 0,0 c -19.805,0 -31.485,-17.5195 -31.485,-34.9023 0,-16.5313 8.262,-36.9141 31.485,-36.9141 23.222,0 31.484,20.3828 31.484,36.9141 0,17.3828 -11.68,34.9023 -31.484,34.9023 z m 0,-92.48046 c -32.774,0 -53.145,25.07816 -53.145,56.71876 0,31.914 21.074,56.4258 53.145,56.4258 32.05,0 53.144,-24.5118 53.144,-56.4258 0,-31.6406 -20.371,-56.71876 -53.144,-56.71876 l 0,0"
             inkscape:connector-curvature="0"
             id="path50"
             style="fill:#040606;fill-opacity:1;fill-rule:nonzero;stroke:none" /><path
             d="m 986.559,26.9922 3.418,0 c 25.783,0 35.763,14.2461 35.763,35.4883 0,23.3593 -11.98,35.4687 -35.763,35.4687 l -3.418,0 0,-70.957 z m -20.957,89.1988 29.921,0 c 31.077,0 51.877,-23.2222 51.877,-53.8551 C 1047.4,32.1172 1026.03,8.75 995.387,8.75 l -29.785,0 0,107.441"
             inkscape:connector-curvature="0"
             id="path52"
             style="fill:#040606;fill-opacity:1;fill-rule:nonzero;stroke:none" /><path
             d="m 1057.63,8.75 20.9609,0 0,107.441 -20.9609,0 0,-107.441 z"
             inkscape:connector-curvature="0"
             id="path54"
             style="fill:#040606;fill-opacity:1;fill-rule:nonzero;stroke:none" /><path
             d="m 1093.82,119.043 15.1,0 56.56,-75.0977 0.3,0 0,72.2457 20.93,0 0,-109.56991 -15.09,0 -56.57,75.08981 -0.29,0 0,-72.9609 -20.94,0 0,110.293"
             inkscape:connector-curvature="0"
             id="path56"
             style="fill:#040606;fill-opacity:1;fill-rule:nonzero;stroke:none" /><path
             d="m 1296.85,65.8906 0,-2.707 c 0,-30.3516 -15.53,-57.28516 -48.89,-57.28516 -31.34,0 -51.15,26.50386 -51.15,56.14456 0,30.6328 20.39,57 52.44,57 18.25,0 34.2,-9.266 42.46,-25.6446 L 1273.2,83.418 c -4.28,9.6875 -13.4,17.102 -24.51,17.102 -20.24,0 -30.22,-20.6645 -30.22,-38.477 0,-17.8047 10.12,-37.6094 30.35,-37.6094 13.11,0 24.09,11.3867 24.51,24.3672 l -22.79,0 0,17.0898 46.31,0 0,0"
             inkscape:connector-curvature="0"
             id="path58"
             style="fill:#040606;fill-opacity:1;fill-rule:nonzero;stroke:none" /></g></g></g></g></svg>