<?xml version="1.0" encoding="utf-8"?>
<!-- Generator: Adobe Illustrator 17.1.0, SVG Export Plug-In . SVG Version: 6.00 Build 0)  -->
<!DOCTYPE svg PUBLIC "-//W3C//DTD SVG 1.1//EN" "http://www.w3.org/Graphics/SVG/1.1/DTD/svg11.dtd">
<svg version="1.1" id="Layer_1" xmlns="http://www.w3.org/2000/svg" xmlns:xlink="http://www.w3.org/1999/xlink" x="0px" y="0px"
	 viewBox="0 0 593.9 155" enable-background="new 0 0 593.9 155" xml:space="preserve">
<path display="none" fill="#FEFEFE" d="M0,252.5V0h297h297v252.5V505H297H0V252.5L0,252.5z M0,252.5"/>
<path fill="#A0A09F" d="M69.9,330.1c-20.4-1.9-37.4-11.4-51-28.2c-2.2-2.8-3.8-4.9-5.1-7.1c-0.6-1-1.5-2.6-2.2-3.6
	c-0.6-1-1.4-2.5-1.8-3.4c-0.4-0.8-0.9-2.1-1.2-2.8c-0.7-1.6-2-5.5-2.7-8.2c-1.6-6.2-2.8-14.5-2.8-19.7c0-4.6,0.4-9.8,1.1-13.7
	c0.7-3.7,0.8-4.4,2.1-8.7c1.5-5.2,2.2-7.1,4.3-11.3c2.4-4.8,5.3-9.3,9-13.8c2.1-2.5,8.6-9,11-11c9.7-7.9,19.7-12.7,31.3-15
	c8.2-1.6,17.8-1.9,26.1-0.7c16.2,2.3,30,9.3,41.9,21.2c4.9,4.9,8.9,10,12,15.4c2.4,4.1,6,12.5,6.6,15.2c0.2,0.8,0.5,2,0.7,2.7
	c0.8,2.8,1.8,9.6,2.1,13.9c0.6,9.2-0.6,19.9-3.2,28.1c-1.4,4.4-4.6,11.4-6.6,14.3c-0.6,0.9-1.9,2.9-3,4.5c-2.2,3.4-5.3,7-8.9,10.5
	c-12.2,12-26.1,18.9-42.3,21C82.9,330.4,74.3,330.6,69.9,330.1L69.9,330.1z M80.6,305.2c5.4-0.6,9.5-2,10.7-3.8
	c0.5-0.8,0.5-1.2-0.3-2.6c-0.4-0.7-0.8-1.5-1-1.9c-0.1-0.4-0.6-1.3-1-2.1c-2.2-4.5-4.7-11.4-5.1-14.6c-0.1-0.4-0.1-2.3-0.1-4.2
	c0-2.7,0.1-3.7,0.3-4.8c0.3-1.6,1.4-4.2,2-4.9c0.2-0.2,0.6-0.8,0.9-1.3c1.2-1.8,4-4.4,4.9-4.7c2-0.6,5.6-2.2,8.2-3.8
	c5.7-3.3,11.4-8.8,14.7-14.1c1.7-2.8,2.4-4,2.8-5.2c0.2-0.6,0.6-1.8,0.9-2.5c1-2.5,2.1-7.6,2-9.4l-0.1-0.8l-43.7,0
	c-29.6,0-43.8,0-43.9,0.1c-0.2,0.2-0.2,0.7,0.2,3.4c0.6,4.2,1.5,7.2,3.6,11.3c2.4,4.8,5.1,8.3,9.4,12.1c2.2,2,3.8,3.2,6.2,4.7
	c2.4,1.5,6.1,3.3,8.9,4.3c1,0.3,1.3,0.5,2.6,1.6c2.5,1.9,4.9,5.9,5.7,9.1c0.7,3.2,0.5,8.3-0.4,11.9c-1.6,6.1-2.1,7.4-4.9,12.9
	c-1.1,2.3-2.1,4.3-2.1,4.5c0,0.6,0.7,1.5,1.5,2.1c1.5,1,5.4,2.2,8.7,2.5c0.8,0.1,1.7,0.2,2,0.2C75.4,305.5,78.7,305.4,80.6,305.2
	L80.6,305.2z M47.3,291.6c2-0.3,3.7-0.7,4.8-1.2c0.8-0.4,1.7-1.2,1.7-1.6c0-0.1-0.7-1.6-1.5-3.2c-1.6-3.2-2.2-4.7-2.8-7.4
	c-0.6-2.8-0.7-4.3-0.6-5.9c0.2-1.6,1-4.1,1.7-5.2c0.9-1.4,1.4-1.7,3.3-2.3c1.6-0.4,4.1-1.6,4.1-1.9c0-0.1-0.9-0.4-2-0.8
	c-3.1-1.1-6.8-3.2-10.3-5.8c-2.2-1.6-6.1-5.5-7.5-7.4c-0.6-0.9-1.6-2.2-2.2-3.1c-0.6-0.8-1.2-1.8-1.4-2.2l-0.3-0.7H26h-8.4l0.1,1.2
	c0.2,3.1,1.2,6,2.8,8.8c1.8,3.2,2.6,4.1,6.1,7.1c2.6,2.2,5.6,4,8,4.7c2.8,0.8,3.3,1.2,4.6,3.7c0.9,1.6,1.2,3,1.2,5.4
	c0,3.7-0.9,6.9-3.3,11.7c-0.8,1.7-1.5,3.2-1.5,3.5c0,0.5,0.9,1.3,1.8,1.7c1.2,0.5,2.8,0.8,5.8,1.2C44.2,291.9,45.5,291.8,47.3,291.6
	L47.3,291.6z M113.5,291.4c1.9-0.3,2.8-0.6,3.8-1.1c0.9-0.5,1.4-1.1,1.4-1.5c0-0.2-0.6-1.5-1.3-2.9c-3.2-6.3-4.3-13.2-2.7-16.7
	c0.6-1.2,2.1-3.5,2.5-3.7c0.2-0.1,1.1-0.4,2-0.7c3.8-1.1,7.4-3.5,11.2-7.4c1.5-1.6,2.2-2.5,3.8-5.4c0.9-1.5,1.1-2.1,1.6-3.8
	c0.8-3,1-4,0.9-4.6l0-0.6h-8.7h-8.7l-0.6,1c-1.6,3-3.5,5.3-6.9,8.7c-3.5,3.4-5.1,4.7-9.4,7.1c-2,1.2-3,1.6-4.9,2.3
	c-0.7,0.2-1.4,0.5-1.4,0.6c-0.1,0.2,2,1.4,3,1.7c2.1,0.7,3.5,1.3,3.9,1.7c0.7,0.7,2,3.3,2.4,4.8c0.2,0.9,0.3,1.7,0.2,3.2
	c-0.2,3.6-1.1,6.9-3.3,11.3c-0.9,1.7-1.6,3.2-1.6,3.3c0,0.4,0.8,1.2,1.7,1.7C104.8,291.7,109.6,292.1,113.5,291.4L113.5,291.4z
	 M545,310.3c-2.7-0.3-5.4-0.7-8.4-1.4c-2.8-0.7-6.6-1.8-7.1-2.1l-0.4-0.2v-10.3c0-8.2,0-10.3,0.2-10.5c0.2-0.1,0.7,0,1.9,0.6
	c5.3,2.5,11.2,3.9,18.9,4.7c2.9,0.3,4.7,0.3,6.9,0c6.9-0.9,10.6-3.3,11.7-7.6c0.4-1.4,0.4-4.4,0-5.6c-1-3.1-4-6-8.8-8.3
	c-2.2-1.1-3.8-1.7-7.4-2.9c-10.4-3.6-18.2-8.6-22.6-14.5c-1.1-1.5-2.7-4.4-3.3-6.2c-1-2.9-1.7-7.5-1.5-10.7
	c0.4-7.4,3.2-13.4,8.6-18.6c7.5-7.2,18.5-10.6,32.6-9.9c8.4,0.4,15,1.9,20.1,4.4c2.6,1.3,2.7,0-0.6,10.1c-1.5,4.8-2.9,8.8-3,8.9
	c-0.2,0.2-1.1,0.2-4.4,0.2h-4.2l-0.9-0.8c-2.5-2.2-5.1-3.4-8.7-3.9c-1.9-0.3-3.3-0.2-6.2,0.3c-6.7,1.1-10.2,4.1-10.2,8.7
	c0,2.6,0.6,4.2,2.3,6c2.3,2.4,8.3,5.7,15.7,8.4c10,3.7,16.3,7.5,20.5,12.6c4.6,5.5,6.7,12.2,6.1,19.4c-0.6,7.3-3.3,13.4-8.3,18.6
	c-2.7,2.8-5,4.5-8.8,6.3c-5,2.4-9.9,3.7-17.6,4.5C555.3,310.6,547.9,310.6,545,310.3L545,310.3z M218.3,310.1
	c-14.6-1-25.4-4.7-33.6-11.6c-3.5-3-7.5-7.5-9.7-11.3c-3.3-5.5-5.4-11.6-6.4-19.1c-0.4-2.9-0.4-11.8,0-15c0.4-2.9,1.2-7.4,1.9-9.6
	c2.4-8.4,7-16,13.2-21.6c8.8-8,19.8-12.7,33.7-14.3c9.5-1.1,24.7,0.2,32.3,2.8c1.7,0.6,4,1.7,4.1,1.9c0.1,0.3-4.6,18.2-4.9,18.3
	c-0.1,0.1-0.7-0.1-1.3-0.4c-3.5-1.6-9.2-2.9-15.5-3.4c-2.4-0.2-9.7-0.2-11.6,0c-5.6,0.6-11,2.5-15,5.2c-4.2,2.8-7.2,6.1-9.3,10.4
	c-4.1,8.3-4.8,20-1.6,29.2c2.1,6.1,5.8,11,11.1,14.5c4,2.7,8.6,4.2,14.6,5c4.3,0.5,12-0.1,14.1-1.2l0.4-0.2l0-10.1l0-10.1l-4,0
	c-3.9,0-4,0-4.1-0.4c-0.3-0.8-3.6-17.4-3.5-17.6c0.1-0.2,1.8-0.2,17-0.2l16.9,0v26.6v26.6l-1.1,0.4c-1.7,0.6-6.7,1.9-10.4,2.7
	c-4.6,1.1-8.5,1.7-14.1,2.2C228.1,310.1,221.1,310.3,218.3,310.1L218.3,310.1z M267.2,308.9c-0.3-0.3-0.3-98.8,0-98.9
	c0.3-0.2,3.5-0.7,6.4-1c6.8-0.8,13.2-1.1,23.1-1.1c8.1,0,10.2,0.1,14.1,0.7c10,1.5,17,4.6,21.9,9.8c3.7,3.9,5.8,8.7,6.5,14.9
	c0.8,7.7-1.6,15.2-6.8,20.7c-3,3.1-6,5.3-9.9,7l-0.9,0.4l1.2,0.7c5.8,3.3,9.5,8.9,11.9,17.8c0.5,1.9,3.1,11.2,5.7,20.6
	c1,3.4,1.8,5.9,2.6,7.9c0.2,0.4,0.2,0.5,0,0.7c-0.1,0.1-4.8,0.2-11.5,0.2c-10.5,0-11.3,0-11.6-0.3c-1.2-1-4.8-12.7-7.6-25.1
	c-1.2-5.1-3-8.8-5.4-11.1c-2.8-2.6-5.4-3.3-12.5-3.2l-4.2,0l0,19.7c0,15.5-0.1,19.7-0.2,19.8c-0.1,0.1-5.2,0.1-11.2,0.1
	C270.1,309.1,267.4,309.1,267.2,308.9L267.2,308.9z M303,252c5-0.9,8.5-2.7,10.6-5.3c1-1.2,1.9-3.2,2.3-4.9c0.5-2.1,0.5-5-0.1-7.2
	c-0.6-2.4-1.5-3.9-3.1-5.6c-1.1-1.1-1.7-1.5-2.8-2.1c-3-1.5-4.7-1.9-9.9-2c-3.6-0.1-9.2,0.1-9.8,0.4c-0.2,0.1-0.2,1.8-0.2,13.5
	c0,7.4,0.1,13.4,0.1,13.5c0.1,0.1,2.6,0.1,5.6,0C300.3,252.4,301.5,252.3,303,252L303,252z M343.7,308.9c-0.1-0.1-0.1-0.4,0-0.6
	c0.2-0.8,30.1-99.6,30.3-99.8c0.1-0.2,3.3-0.2,15.2-0.2c13.9,0,15,0,15.1,0.3c0.5,1.4,31,100,30.9,100.2c0,0.2-1,0.3-12.2,0.3
	l-12.1,0l-0.2-0.4c-0.1-0.2-1.9-5.9-3.9-12.6c-2-6.7-3.8-12.3-3.9-12.4c-0.1-0.2-3.1-0.2-14.4-0.2l-14.2,0l-3.4,12.5
	c-1.9,6.9-3.5,12.6-3.6,12.8c-0.2,0.2-1.7,0.2-11.8,0.2C345.2,309.1,343.8,309.1,343.7,308.9L343.7,308.9z M399.3,266.3
	c0-0.1-1.3-5-3.1-11c-3.5-12-5.6-19.6-7-25.4c-0.5-2.1-1-3.9-1-4c-0.1-0.1-0.3,0.6-2.9,12.4c-1.4,6.3-2,8.6-4.5,17.5
	c-1.6,5.7-2.9,10.4-2.9,10.4C378,266.4,399.2,266.4,399.3,266.3L399.3,266.3z M439.1,309c-0.2-0.1-0.2-10.3-0.2-50.4v-50.3l11.3,0
	l11.3,0l0,50.2c0,40.1,0,50.3-0.2,50.4C461.2,309.1,439.4,309.1,439.1,309L439.1,309z M475.1,308.9c-0.1-0.1-0.2-11.5-0.2-50.2
	c0-27.5,0.1-50.1,0.1-50.2c0.1-0.2,2.5-0.2,11.4-0.2l11.3,0l0,40.5l0,40.5h12.4c6.8,0,12.5,0,12.6,0.1c0.2,0.1,0.3,1.1,0.3,9.7
	c0,8.6,0,9.7-0.3,9.7c-0.1,0.1-10.9,0.1-23.9,0.1C480.7,309.1,475.2,309.1,475.1,308.9L475.1,308.9z M71.4,149.9
	c-5.5-0.4-9.8-1.2-14.9-2.6c-12.8-3.6-24.3-10.8-33.7-21.2c-3.9-4.3-7-8.3-8.8-11.5c-0.6-1-1.5-2.5-2.1-3.5c-2.4-4-5.1-11-6.4-16.7
	C3.5,85.4,3,79.8,3.4,71.7c0.3-5.9,1.2-11,3.1-17.4c2.3-7.7,4.4-12.2,8.5-18.4c3.2-4.8,5.3-7.4,10.1-12.1c4.5-4.5,6.5-6.2,10.8-9.2
	c5.3-3.7,11.8-7,18.3-9.1c3.8-1.2,8.8-2.3,13.8-3c3.3-0.4,11.7-0.6,15.5-0.3c17.5,1.3,32.9,8.4,46,21.2c6.7,6.6,11.7,13.5,15.5,21.6
	c1.7,3.7,3.4,8.1,3.8,10.2c0.2,1.1,0.5,2.3,0.7,2.7c0.4,1.4,1.7,9.4,1.8,11.8c0.3,4.6,0.4,7.7,0.2,10.5c-0.6,9.4-2.1,16.4-4.8,23.4
	c-1.2,3.1-3.8,8.2-5,10c-0.5,0.7-1.9,2.8-3,4.5c-2.3,3.5-5.4,7.2-9.3,10.9c-11.8,11.6-26.2,18.6-41.9,20.6
	C82.7,150,75.5,150.2,71.4,149.9L71.4,149.9z M80.3,125c3.4-0.3,7.2-1.3,8.9-2.2c1.4-0.7,2.4-1.8,2.4-2.7c0-0.2-0.3-0.9-0.6-1.5
	c-0.6-1.1-1.9-3.8-3.5-7.2c-0.8-1.8-2.8-7.4-3.3-9.4c-0.5-1.8-0.6-8.5-0.2-10.5c0.4-2.2,1.4-4.4,2.4-5.7c0.3-0.4,1-1.3,1.5-1.9
	c1.4-1.8,3.3-3.4,4.7-3.8c3.2-1.1,7.5-3.3,10.3-5.3c6.3-4.7,9.9-8.7,13.6-15.2c0.6-1.1,1.1-2.2,2.4-6.2c0.8-2.3,1.4-5.5,1.5-7.4
	l0-1.5H76.6H32.7l0,1c0.1,2.8,0.9,6.8,2,9.6C37.8,63.2,43.2,70,51,75.2c3.2,2.2,6.1,3.6,9.6,4.9c1.7,0.6,2.7,1.3,4.2,2.8
	c1.4,1.4,2.5,3,3.4,4.9c1.2,2.5,1.5,4,1.4,7.8c0,3.5-0.2,5.2-0.8,7.4c-2.1,7.2-1.9,6.8-4.8,12.6l-2.2,4.4l0.3,0.6
	c0.4,1.1,1.8,2.2,3.1,2.5c0.4,0.1,1.2,0.4,1.9,0.6C70.3,124.9,75.9,125.4,80.3,125L80.3,125z M46.8,111.4c2.9-0.3,5.4-1.1,6.4-2.1
	c0.3-0.3,0.5-0.7,0.5-0.8c0-0.2-0.4-1-0.8-1.8c-1.2-2.2-2.5-5.2-3-6.8c-1.4-5.3-1.4-8.3-0.1-11.4c0.5-1.3,1.7-3.1,2.1-3.3
	c0.2-0.1,1.1-0.4,2.1-0.7c1.5-0.4,4-1.6,4-1.9c0-0.1-1-0.5-2.2-0.9c-2.4-0.9-4.5-1.9-7.5-4c-2.7-1.8-4.1-2.9-6.8-5.5
	c-1.8-1.8-2.6-2.7-4.4-5.2c-1.2-1.7-2.3-3.3-2.5-3.7l-0.3-0.7H26h-8.4v0.6c0,0.9,0.6,4.1,1,5.3c0.5,1.5,1.1,2.7,2.2,4.6
	c1.5,2.5,2.9,4.2,4.4,5.4c0.4,0.3,1.2,0.9,1.8,1.5c2.2,1.9,5.3,3.7,7.3,4.3c0.5,0.1,1.5,0.5,2.1,0.7c1,0.4,1.2,0.6,1.8,1.4
	c1.6,2.3,2.1,4,2.1,7.1c0,3.7-0.9,6.9-3.3,11.7c-0.8,1.7-1.5,3.2-1.5,3.4c0,1.2,2.6,2.3,6.4,2.8C44.1,111.5,44.9,111.6,46.8,111.4
	L46.8,111.4z M112,111.4c3.8-0.4,6.8-1.7,6.8-2.9c0-0.2-0.6-1.5-1.3-2.9c-1.4-2.7-2.2-4.9-2.9-8.1c-0.4-1.6-0.4-2.2-0.4-4.2
	c0-1.8,0.1-2.6,0.3-3.3c0.3-1.1,2.1-4.2,2.7-4.6c0.2-0.2,1.2-0.5,2.1-0.8c1.8-0.5,3.6-1.3,5.4-2.5c1.6-1,5-3.9,6.5-5.6
	c1-1.1,3.1-4.3,3.9-6c0.4-0.9,1.7-6.2,1.7-7l0-0.7h-8.7h-8.7l-0.6,1c-0.8,1.4-2.1,3.4-3.3,4.9c-1.6,1.9-5.8,6-7.8,7.5
	c-3.4,2.5-7.3,4.7-10.2,5.7c-0.9,0.3-1.5,0.6-1.5,0.6c0.2,0.3,2.6,1.6,3.3,1.8c1.5,0.4,3.3,1.2,3.8,1.7c0.7,0.6,2,3.4,2.4,4.9
	c0.5,2.2,0.1,6.2-1.1,9.9c-0.2,0.7-1.1,2.7-2,4.4c-0.9,1.7-1.6,3.3-1.6,3.4c0,0.1,0.2,0.4,0.4,0.7
	C102.3,110.8,107.4,111.8,112,111.4L112,111.4z M546.1,130.1c-4.1-0.4-6.7-0.9-11-1.9c-3.9-1-5.7-1.6-5.9-2
	c-0.2-0.6-0.2-20.4,0-20.6c0.1-0.1,0.5,0,1.4,0.4c5.1,2.3,10.5,3.8,17.2,4.7c9.9,1.3,17.6-0.8,20-5.4c1.4-2.6,1.5-6.4,0.3-8.9
	c-1.9-3.8-6.6-6.8-15.5-9.9c-7.2-2.5-13.6-5.8-18-9.6c-5.1-4.3-8-9.2-9.1-15.4c-0.4-2.5-0.5-7.4-0.1-9.6c0.8-4.6,2.4-8.3,5-11.8
	c1-1.4,3.8-4.3,5.4-5.5c6.6-5.4,15.9-8.1,27.2-8.1c6.5,0,12.7,0.8,17.9,2.3c3.3,1,7.7,3,7.7,3.6c0,0.4-5.5,17.3-5.6,17.6
	c-0.1,0.2-1.2,0.2-4.5,0.2h-4.3l-1.3-1.1c-3.1-2.6-7.7-4.1-11.8-3.7c-8.3,0.8-12.6,3.6-12.9,8.5c-0.2,2.6,0.6,4.7,2.2,6.5
	c2.4,2.5,8.3,5.6,16.8,8.8c5.6,2.1,11.3,5,14.6,7.7c5,3.9,8.2,8.4,9.8,13.7c0.8,2.7,1.1,4.9,1.1,8c0,5.1-0.9,9-3.1,13.4
	c-2.9,5.9-7.9,10.8-14,13.8c-5.1,2.5-10.2,3.7-18,4.5C555.1,130.3,548.4,130.3,546.1,130.1L546.1,130.1z M218.7,129.7
	c-16.7-1.1-28.1-5.5-36.8-14.2c-7.6-7.6-11.7-16-13.4-27.7c-0.4-2.9-0.4-11.9,0-15c1-7.8,2.7-13.5,5.7-19.1
	c5.1-9.8,14.1-17.6,25.6-22.2c7.8-3.1,17.6-4.8,26.8-4.5c11.4,0.3,20.2,1.8,25.7,4.3c0.7,0.3,1.3,0.7,1.3,0.8
	c0.1,0.3-4.6,18.1-4.8,18.4c-0.1,0.1-0.7-0.1-1.6-0.5c-3.3-1.4-7.4-2.4-12.6-3.1c-3.8-0.5-13-0.5-15.8-0.1
	c-10.6,1.7-18.7,7.1-22.8,15.2c-2.4,4.9-3.6,10.4-3.6,16.8c0,9.7,2.9,17.6,8.6,23.4c5.6,5.7,12.8,8.5,22,8.8c4,0.1,9.2-0.5,11.1-1.3
	l0.6-0.2l0-10.1l0-10.1l-4-0.1l-4-0.1l-0.1-0.4c-0.2-0.7-3.5-17-3.5-17.4v-0.4l17,0l17,0v26.6v26.6l-1.4,0.4
	c-2.2,0.7-7.1,2-10.6,2.8C236.6,129.3,226.2,130.2,218.7,129.7L218.7,129.7z M267.3,128.6c-0.3-0.2-0.3-2.7-0.3-49.5
	c0-46.8,0-49.4,0.3-49.5c0.6-0.3,7-1.2,11.6-1.5c8.2-0.7,20.3-0.9,26.3-0.6c7.9,0.5,15.6,2.4,20.4,5c7.6,4.1,11.8,9.8,13.3,18
	c0.3,1.5,0.3,2.5,0.3,5.2c0,3.1,0,3.5-0.4,5.4c-1.2,5.4-3.2,9.2-7.2,13.1c-2.9,2.9-5.7,4.8-8.8,6.2c-0.6,0.3-1.1,0.5-1.1,0.6
	c0,0.1,0.5,0.4,1,0.7c5.6,3.1,9.4,8.8,11.7,17.3c0.4,1.5,1.3,4.9,2.1,7.5c0.7,2.6,2,7.1,2.7,9.9c0.8,2.8,1.9,6.6,2.5,8.4
	c0.6,1.8,1.1,3.4,1.1,3.5c0,0.1-0.1,0.3-0.4,0.3c-0.8,0.2-22.1,0.2-22.5,0c-1.2-0.4-4.5-11.1-7.5-23.6c-1-4.1-1.5-5.9-2.6-8.1
	c-1.7-3.7-4.1-6-7.3-7.1c-1.9-0.6-3.8-0.8-8.4-0.8l-4.2,0l0,19.6c0,18.2-0.1,19.6-0.3,19.8C289.3,128.9,267.8,128.9,267.3,128.6
	L267.3,128.6z M300.6,72c5.7-0.6,10.3-2.5,12.6-5.2c2.1-2.6,3.4-6.4,3.1-9.7c-0.5-5.6-3.4-9.5-8.3-11.3c-2.3-0.8-3.9-1.1-7.8-1.1
	c-3.7-0.1-9.4,0.2-9.9,0.4c-0.3,0.2-0.3,0.4-0.3,13.5c0,7.3,0,13.4,0.1,13.4C290.2,72.2,298.9,72.2,300.6,72L300.6,72z M344,128.7
	c-0.2,0-0.4-0.2-0.4-0.3c0-0.3,1.3-4.5,17.8-59.2c12.8-42.4,12.4-41.1,12.6-41.2c0.1-0.1,6.8-0.1,14.9-0.1c11.5,0,14.8,0,15,0.2
	c0.1,0.1,2.7,8.1,6.3,19.7c3.3,10.7,10.2,33.1,15.4,49.8c5.1,16.6,9.4,30.4,9.4,30.7c0.1,0.4,0,0.4-0.5,0.5
	c-0.3,0.1-5.8,0.1-12.1,0.1c-8.9,0-11.5,0-11.7-0.2c-0.2-0.1-1.5-4.1-3.6-11c-1.8-5.9-3.5-11.6-3.9-12.6l-0.6-1.8l-14.3,0l-14.3,0
	l-3.4,12.6c-2.3,8.4-3.5,12.6-3.7,12.8c-0.2,0.2-2.7,0.2-11.5,0.2C349.4,128.8,344.2,128.7,344,128.7L344,128.7z M399.3,85.9
	c0-0.1-1.3-4.9-3-10.8c-1.7-5.8-3.7-12.7-4.4-15.3c-1.2-4.3-3.2-12.3-3.4-13.7c-0.1-0.3-0.2-0.6-0.3-0.6c-0.1,0-0.1,0-0.1,0.1
	c0,0.1-2.9,13.1-3.8,17.5c-0.3,1.1-1.8,6.7-3.4,12.4c-1.6,5.7-2.9,10.4-2.9,10.4C378,86.1,399.2,86.1,399.3,85.9L399.3,85.9z
	 M439.2,128.7c-0.3-0.1-0.3-0.8-0.3-12.8c0-7,0-29.5-0.1-50.1c-0.1-35.4-0.1-37.4,0.2-37.7c0.3-0.3,1-0.3,11.2-0.3
	c6,0,11,0,11.2,0.1c0.2,0.1,0.3,4.7,0.3,50.3c0,49.5,0,50.2-0.3,50.4C461,128.8,439.8,128.9,439.2,128.7L439.2,128.7z M475.3,128.7
	c-0.2,0-0.3-0.4-0.4-1.1c-0.1-0.6-0.1-23.2-0.1-50.2c0-48.4,0-49.2,0.3-49.3c0.5-0.3,22.1-0.2,22.4,0c0.1,0.1,0.2,9.4,0.2,40.6v40.4
	h12.4c6.8,0,12.5,0,12.6,0.1c0.2,0.1,0.3,1.1,0.3,9.7v9.6l-0.4,0.1C522.3,128.8,475.7,128.8,475.3,128.7L475.3,128.7z M475.3,128.7"
	/>
<path fill="#A7C328" d="M73,330.1c-18.2-1.1-33.5-7.7-46.5-20.1c-5-4.8-10.6-11.8-13.1-16.3c-0.3-0.5-1-1.7-1.5-2.6
	c-2.1-3.4-4.6-9.9-5.9-15c-0.5-2-1.5-6.8-1.8-9c-1.5-10.2-0.8-21.2,2.1-31.1c1.9-6.4,2.4-7.9,4.5-12.1c3.2-6.7,7.6-12.6,13.5-18.7
	c6.8-6.9,12.9-11.5,20.4-15.2c7.3-3.6,14.3-5.7,22.8-6.8c3.2-0.4,12.5-0.6,16.1-0.3c9.5,0.8,18.5,3.3,26.7,7.4
	c7.3,3.7,13.5,8.2,19.5,14.2c5.1,5.1,9,10.2,12.3,15.9c2.5,4.3,5.7,11.8,6.3,14.9c0.2,1,0.5,2.1,0.6,2.6c0.3,0.9,0.8,3.9,1.4,7.8
	c1.1,7.3,0.9,16.7-0.6,25.7c-0.2,1.3-1.5,6.4-2,8.2c-1.2,4-4.8,11.8-6.5,14.1c-0.5,0.6-1.2,1.7-1.6,2.4c-1.4,2.3-2.9,4.5-3.9,5.6
	c-8.1,9.7-15.8,16-25.3,20.8c-5.2,2.6-9.3,4.2-14.7,5.5C88.8,329.7,80,330.6,73,330.1L73,330.1z M81.4,305.3c2.9-0.3,6.3-1.2,7.9-2
	c1.4-0.7,2.7-2.1,2.7-2.9c0-0.1-0.3-0.8-0.7-1.5c-0.7-1.2-1.5-3-3.5-7.2c-0.9-2.1-2.8-7.5-3.3-9.8c-0.3-1.5-0.4-1.9-0.4-5.5
	c0-3.2,0.1-4.1,0.3-5.1c0.4-1.5,1.4-4.1,1.9-4.6c0.2-0.2,0.6-0.7,0.8-1.1c0.8-1.2,2-2.6,3.3-3.7c1-0.9,1.5-1.2,2.6-1.5
	c8.3-2.8,17.5-10.1,22.1-17.6c1.6-2.7,2.5-4.2,2.9-5.4c0.2-0.7,0.6-1.8,0.9-2.5c1.1-2.7,2.3-9.1,2-10.1l-0.1-0.3l-44.1,0l-44.1,0
	l-0.1,0.5c-0.1,0.8,0.4,4.4,0.9,6.6c0.6,2.6,1.3,4.6,2.8,7.6c2.4,4.9,5.4,8.7,9.8,12.7c4.1,3.7,8.9,6.5,14.3,8.6
	c1.9,0.7,2.8,1.3,4.3,2.8c2.2,2.3,3.9,5.3,4.5,8.2c0.3,1.5,0.3,2,0.3,5.3c-0.1,4-0.2,4.8-1.5,8.8c-0.3,1-0.6,2.1-0.7,2.5
	c-0.4,1.4-1.4,3.8-3.5,7.9c-2.1,4.1-2.1,4.2-1.9,4.8c0.7,2.3,5.5,4.1,12.6,4.7C76.2,305.8,78.6,305.7,81.4,305.3L81.4,305.3z
	 M48,291.8c3-0.5,5.2-1.4,5.8-2.6l0.3-0.6l-0.6-1.1c-2.9-5.2-4.3-9.7-4.3-13.9c0-2.5,0.2-3.5,1.3-5.6c1-2,1.5-2.5,3.5-3
	c0.9-0.2,1.9-0.6,2.2-0.8c1.2-0.6,2.3-1.4,2.2-1.6c0-0.1-0.7-0.3-1.4-0.6c-2.3-0.8-3.7-1.3-5.4-2.3c-6.4-3.6-10.5-7.3-14.4-12.8
	c-1.2-1.6-2.2-3.2-2.4-3.6c-0.1-0.3-0.4-0.7-0.5-0.8c-0.4-0.2-16.4-0.2-16.8,0c-0.3,0.2-0.3,0.3-0.2,1.1c0.2,1.8,0.8,4.4,1.2,5.7
	c1.1,2.9,3.3,6.5,5.2,8.3c4.5,4.2,7.3,6.1,10.7,7.1c2.8,0.9,3,1,4.2,3c1,1.7,1.4,2.9,1.5,5.3c0.2,3.7-0.8,7.4-3.4,12.4
	c-0.8,1.7-1.5,3.2-1.5,3.3c0,0.4,0.8,1.2,1.5,1.6C38.8,291.7,44.3,292.3,48,291.8L48,291.8z M113,291.8c3.4-0.5,5.3-1.4,5.8-2.7
	c0.1-0.4,0-0.7-1.2-3.1c-1.9-3.8-3.1-7.6-3.4-11.1c-0.2-1.8,0-4.1,0.5-5.3c0.3-0.8,1.9-3.5,2.3-3.8c0.1-0.1,1-0.4,2-0.7
	c4.1-1.2,7.5-3.5,11.4-7.5c2.3-2.4,4.6-6.2,5.3-8.7c0.2-0.8,0.5-2.1,0.7-2.7c0.4-1.6,0.5-3.1,0-3.4c-0.4-0.2-16.9-0.2-17.3,0
	c-0.2,0.1-0.5,0.5-0.7,1c-0.6,1.1-2.1,3.4-3.3,4.9c-1.5,1.8-6.2,6.4-8,7.8c-3.4,2.5-7.2,4.6-9.8,5.4c-1.9,0.6-2,0.7-1.7,1
	c0.4,0.5,2.5,1.5,4.2,2.2c2.9,1,3,1.1,4,3c1.1,2,1.4,3.3,1.4,5.6c0,3.7-1,7-3.3,11.7c-0.8,1.7-1.5,3.2-1.5,3.4
	c0,0.5,0.7,1.3,1.5,1.8C104.1,291.8,109.1,292.3,113,291.8L113,291.8z M547.7,310.3c-6.5-0.6-11.3-1.5-16.2-3.1l-1.9-0.6l0-10.4
	c0-5.7,0-10.4,0-10.4c0,0,1,0.4,2.2,0.9c5.8,2.5,12.3,4,20.2,4.7c2.3,0.2,4.7,0,7.3-0.5c7-1.4,10.2-4.7,10.2-10.5
	c0-2.7-0.8-4.6-2.9-6.8c-2.7-2.7-6.3-4.7-12.7-6.9c-8.3-2.9-13.8-5.8-18.7-9.8c-6.3-5.2-9.4-11.8-9.5-20.1c0-7.9,2.8-14.5,8.5-20
	c2.6-2.5,5-4.2,8.2-5.7c5.9-2.8,12.6-4.2,20.7-4.2c6.7,0,12.8,0.8,17.9,2.3c3.4,1,7.4,2.8,7.5,3.4c0,0.3-5.2,16.7-5.5,17.2
	c-0.1,0.2-1.1,0.2-4.4,0.2h-4.2l-0.8-0.7c-4.5-4.1-11-5.1-18.1-2.9c-4.3,1.3-6.7,3.6-7.3,6.8c-0.2,1.3-0.2,2,0.1,3.4
	c0.7,3.2,2.7,5.3,7.9,8.1c3,1.6,6.1,3,12.8,5.5c7.4,2.8,13.6,6.7,17.4,11c4.1,4.7,6.2,10,6.5,16.3c0.3,8.5-2.5,15.9-8.3,21.9
	c-2.6,2.7-5,4.5-8.6,6.2c-6.2,3.1-13.8,4.6-23.1,4.7C550.3,310.3,548.1,310.3,547.7,310.3L547.7,310.3z M216.8,309.8
	c-13.9-1.2-24.1-4.9-32-11.5c-1.8-1.5-4.8-4.6-6.3-6.4c-7.3-9.1-10.8-21-10-34.4c0.8-14.2,5.4-25.5,13.8-33.9
	c8.6-8.6,20.6-14,34.2-15.5c0.8-0.1,2.2-0.2,3-0.3c1.9-0.2,7.8-0.2,11.3,0c6.6,0.4,11.9,1.2,16.6,2.4c2.9,0.8,6.1,2.1,6.1,2.5
	c0,0.4-4.6,17.7-4.8,17.8c-0.1,0.1-0.4,0-0.8-0.2c-3-1.5-8.4-2.8-14.2-3.4c-3.4-0.4-9.2-0.5-12.1-0.3c-6,0.5-11.7,2.3-16.1,5.2
	c-7.5,4.9-11.4,11.6-12.9,21.8c-0.3,2.4-0.4,8.2-0.1,10.6c1,7.9,3.8,14,8.6,18.7c4.6,4.5,9.8,7.1,16.7,8.3c4.4,0.7,8.1,0.8,12.9,0.1
	c1.7-0.2,3.8-0.8,4.1-1.1c0.2-0.1,0.2-2.4,0.2-10.4c0-9.2,0-10.3-0.3-10.4c-0.1-0.1-1.9-0.1-4-0.1c-2.1,0-3.8-0.1-3.8-0.1
	c-0.2-0.3-3.6-17.4-3.5-17.5c0-0.1,7.5-0.1,16.7-0.1c12.7,0,16.6,0,16.8,0.2c0.1,0.1,0.2,6.2,0.2,26.4c0,14.4-0.1,26.3-0.1,26.4
	c-0.2,0.3-3.3,1.2-8,2.4c-6.4,1.6-9.3,2.1-15.8,2.8C229.6,309.8,219.8,310,216.8,309.8L216.8,309.8z M267.4,259.5
	c0-27.9,0.1-49.3,0.1-49.4c0.5-0.3,7.7-1.2,12.9-1.6c7.7-0.6,19.3-0.8,25-0.4c9.1,0.6,17.4,2.9,22.6,6.4
	c6.9,4.6,10.3,10.8,11.1,19.7c0.5,5.8-1.2,12-4.5,16.7c-1.2,1.8-4.5,5.1-6.3,6.4c-1.7,1.2-3.9,2.5-5.5,3.2c-0.8,0.3-1.2,0.6-1.2,0.8
	c0,0.1,0.4,0.5,0.9,0.8c1.7,0.9,3.7,2.5,5.1,3.9c3.1,3.2,5.2,7.5,6.9,13.7c0.4,1.4,1.6,5.7,2.6,9.4c1.1,3.8,2.4,8.5,2.9,10.4
	c0.5,1.9,1.4,4.7,1.9,6.1c0.5,1.4,0.9,2.7,1,2.9l0.1,0.4h-11.5h-11.5l-0.6-1.3c-1.6-3.4-4.3-12.7-6.8-23.4c-1.3-5.7-3-9.2-5.7-11.6
	c-2.1-2-4.6-2.9-8.4-3.2c-2.7-0.2-8.1-0.2-8.4,0c-0.2,0.1-0.2,4.3-0.2,19.8l0,19.7l-11.2,0l-11.2,0V259.5L267.4,259.5z M302.1,252.4
	c6.9-1,10.9-3.4,13.1-7.8c1.5-3,1.8-6.4,0.9-9.8c-1-4.2-3.7-7.1-7.8-8.7c-3.1-1.2-6.4-1.5-12.8-1.2c-2.4,0.1-4.6,0.2-5,0.3l-0.6,0.1
	l0,13.7l0,13.7h5.3C299,252.6,300.8,252.6,302.1,252.4L302.1,252.4z M343.8,308.7c0-0.2,30.1-99.5,30.2-99.9l0.2-0.4H389
	c11.7,0,14.8,0,14.9,0.2c0.2,0.3,31.1,99.9,31,100c0,0.1-5.5,0.1-12.1,0.1c-11.3,0-12,0-12.1-0.3c-0.1-0.2-1.8-5.9-3.9-12.7
	l-3.8-12.4l-14.5,0c-8,0-14.5,0-14.6,0.1c-0.1,0.1-1.6,5.7-3.5,12.6c-1.9,6.9-3.4,12.5-3.5,12.6C367,308.8,343.8,308.8,343.8,308.7
	L343.8,308.7z M399.6,266.4c0-0.1-1.3-4.7-2.9-10.2c-4-13.8-7.5-26.4-8.1-30.2c-0.1-0.6-0.3-0.9-0.6-0.7c-0.1,0.1-1.2,5-3.4,15
	c-0.8,3.6-1.8,7.4-4.1,15.4c-1.7,5.8-3,10.6-3,10.7C377.6,266.6,399.5,266.6,399.6,266.4L399.6,266.4z M439.1,308.6
	c0-0.1-0.1-22.7,0-50.1l0-49.9h11.1h11.1v50.1v50.1l-11.1,0C441.5,308.8,439.2,308.8,439.1,308.6L439.1,308.6z M475.2,258.7l0-50.1
	l11.1,0l11.1,0v40.4c0,32,0,40.4,0.2,40.6c0.2,0.2,1.2,0.3,12.7,0.3l12.5,0v9.4v9.4l-23.8,0l-23.8,0L475.2,258.7L475.2,258.7z
	 M73,149.8c-5.1-0.3-10.3-1.1-14.9-2.3c-13.6-3.6-25.6-10.9-35.4-21.8c-4.2-4.7-7.5-9-9.5-12.6c-0.3-0.6-1-1.8-1.6-2.6
	c-0.5-0.8-1.3-2.2-1.6-3.1c-0.4-0.9-0.9-2.2-1.2-2.8c-0.6-1.3-2.1-5.8-2.7-8.2c-0.5-1.9-1.4-6.5-1.9-9c-1-6.5-1.1-15.2-0.2-21.5
	c0.8-5.7,2.8-13.4,4.7-18.1c2.7-6.6,6.7-13.2,11.7-19c1.9-2.2,7.1-7.4,9.4-9.4c9.8-8.4,21-13.8,33.5-16C71.1,2,80.5,1.9,88.2,3
	c9.9,1.4,18.5,4.5,26.9,9.6c5.3,3.2,9.2,6.3,14,10.9c5.1,4.9,9,9.8,12.3,15.4c2.4,4,6.2,12.6,6.8,15.4c0.1,0.7,0.5,2,0.7,3
	c0.9,3.4,1.7,8.9,2,12.7c0.5,6.8,0.1,13.9-1.1,21.1c-0.2,1.4-1.5,6.3-2.1,8.4c-1.3,4.2-4.7,11.5-6.4,13.9c-0.5,0.6-1.4,2-2,3
	c-1.9,3-2.7,4.2-5.3,7.2c-6,6.9-12.6,12.5-19.9,16.8c-2,1.1-7.5,3.9-9.5,4.7c-5.6,2.2-12.6,3.9-18.9,4.5
	C81.7,149.8,76.4,150,73,149.8L73,149.8z M82.7,124.9c2.1-0.3,5.2-1.2,6.6-1.9c1.2-0.6,2.2-1.5,2.6-2.4c0.2-0.5,0.2-0.6-0.3-1.5
	c-2.3-4.1-4.3-8.8-5.8-13.3c-1.6-4.9-1.6-5.1-1.6-9.7c0-3.3,0.1-4.1,0.3-5.2c0.4-1.5,1.4-4,1.9-4.6c0.2-0.2,0.5-0.7,0.8-1.1
	c0.8-1.2,2-2.6,3.4-3.7c0.7-0.6,1.4-1.1,1.5-1.1c0.3,0,3.5-1.2,5-2c1.7-0.8,4.9-2.7,6.2-3.7c6.5-4.8,9.9-8.6,13.6-15.1
	c0.4-0.7,1-2,1.3-3c0.3-0.9,0.8-2.2,1-2.8c0.9-2.4,2.1-8.8,1.8-9.6c-0.1-0.3-2.6-0.3-44.2-0.2l-44.1,0l0,1.4c0,1.4,0.5,4.7,1,6.6
	c0.8,3.1,3,7.9,5.1,11c2.1,3.2,3.9,5.2,6.7,7.7c4.9,4.4,9.2,7,15,9.2c0.9,0.3,1.8,0.7,2.1,0.9c2.3,1.6,4,3.7,5.4,6.4
	c1.4,2.8,1.5,3.6,1.5,8.5c0,4.4-0.1,5-1.4,9.3c-0.3,1-0.6,2.1-0.7,2.5c-0.4,1.4-1.4,3.8-3.5,7.9c-1.7,3.3-2.1,4.2-2,4.6
	c0.1,0.6,0.9,1.6,1.6,2.1c1.3,0.9,5,2,7.8,2.4c1.1,0.1,2.1,0.3,2.3,0.3C74.4,125.4,81.1,125.1,82.7,124.9L82.7,124.9z M47.5,111.5
	c2.8-0.4,5.2-1.3,6.1-2.3c0.3-0.3,0.5-0.7,0.5-0.8s-0.3-0.8-0.7-1.4c-2.7-4.5-4.2-9.5-4.2-13.6c0-2.5,0.2-3.5,1.3-5.6
	c1.1-2.3,1.3-2.4,3.6-3c1.4-0.4,2.3-0.8,3.2-1.3c0.7-0.4,1.2-0.8,1.3-0.9c0.1-0.2,0-0.2-2.7-1.2c-2.3-0.8-3.9-1.7-7-3.7
	c-2.7-1.7-4.4-3.1-7-5.7c-1.8-1.7-2.6-2.7-4.3-5.1c-1.2-1.6-2.3-3.3-2.5-3.7c-0.2-0.4-0.5-0.8-0.6-0.9c-0.5-0.2-16.4-0.1-16.7,0.1
	c-0.3,0.2-0.3,0.3-0.2,1.1c0.4,3.3,1.1,5.9,2.4,8.3c1.7,3.1,3.3,5.2,5.2,6.7c0.6,0.5,1.6,1.3,2.2,1.8c2.2,1.9,5,3.5,7.3,4.2
	c2.8,0.9,3,1,4.2,3c1.2,2,1.4,3,1.4,6c0,2.4,0,2.7-0.6,4.7c-0.7,2.7-1.1,3.7-2.9,7.3c-1.5,3-1.5,3.2-0.9,3.9
	C37.2,111,43.1,112.1,47.5,111.5L47.5,111.5z M112.4,111.5c2.7-0.3,5.4-1.3,6.1-2.2c0.5-0.6,0.4-1.2-0.7-3.3
	c-0.6-1.1-1.3-2.5-1.5-3.1c-1-2.3-2-6.4-2.2-8.8c-0.1-1.4,0.1-3.8,0.5-4.9c0.4-1,2-3.6,2.5-3.9c0.2-0.1,1.1-0.4,2-0.7
	c3.8-1.1,7.4-3.5,11.2-7.4c2.2-2.3,4.7-6.3,5.3-8.5c0.2-0.7,0.5-1.9,0.7-2.5c0.2-0.7,0.4-1.7,0.4-2.4c0.1-1,0-1.2-0.2-1.4
	c-0.2-0.2-1.9-0.2-8.7-0.2c-5.5,0-8.5,0.1-8.7,0.2c-0.2,0.1-0.5,0.5-0.7,1c-0.6,1.1-2.1,3.4-3.3,4.9c-1.4,1.7-6,6.2-7.7,7.5
	c-3.2,2.4-7.6,4.9-10.2,5.7c-1.9,0.6-2,0.7-1.2,1.3c1.2,0.8,2.1,1.3,3,1.6c3.2,1,3.8,1.4,4.8,3.3c1.1,2.1,1.4,3.3,1.4,5.6
	c0,3.6-1,7.2-3.3,11.7c-0.8,1.7-1.5,3.2-1.5,3.4c0,1.3,2.8,2.6,6.3,3.1C108.2,111.7,110.7,111.7,112.4,111.5L112.4,111.5z
	 M545.1,129.7c-1.2-0.1-3.2-0.4-4.5-0.6c-3.5-0.6-10.5-2.4-11-2.8c-0.2-0.1-0.2-2.4-0.2-10.3c0-5.6,0-10.2,0.1-10.2
	c0.1-0.1,0.5,0.1,1,0.4c2.1,1.1,6.2,2.5,9.2,3.3c3.4,0.9,6.6,1.4,11,1.8c2.4,0.2,3.2,0.2,4.9,0.1c6.4-0.6,10.7-2.6,12.5-5.9
	c1.1-2,1.4-5.8,0.7-7.9c-1.2-3.6-5.1-6.9-11.4-9.4c-0.8-0.3-2.7-1-4.2-1.6c-9.4-3.2-15.8-6.9-20.6-11.7c-3.6-3.6-5.7-7.5-6.8-12.5
	c-0.5-2.3-0.6-7.4-0.2-9.9c1-7,4.8-13.3,10.7-17.8c7.5-5.8,18.3-8.5,31.3-7.6c6.3,0.4,12.5,1.6,16.6,3.3c1.8,0.7,4.2,2,4.3,2.2
	c0.1,0.3-5.5,17.4-5.7,17.6c-0.1,0.1-2,0.1-4.2,0.1c-4.3,0-4.4,0-5.2-0.9c-1.2-1.3-4.1-2.9-6.3-3.4c-2.3-0.6-4.1-0.7-6.2-0.5
	c-6.4,0.6-10.4,2.6-12,5.8c-1.6,3.3-0.8,7.4,2.1,10c2.5,2.3,8.5,5.4,15.2,7.9c4,1.5,5.9,2.3,8.6,3.6c9.3,4.7,14.8,10.6,17,18.4
	c1.9,6.5,1.1,14.5-2,20.8c-2.4,4.9-6.5,9.3-11.1,12.2c-4.5,2.8-10.4,4.7-17.8,5.7c-2.7,0.4-3.8,0.4-8.3,0.5
	C548.7,129.9,546.7,129.8,545.1,129.7L545.1,129.7z M217.8,129.3c-5.2-0.4-8.1-0.8-12.6-1.9c-11.5-2.6-19.9-7.7-26.8-16.2
	C169,99.6,166,82.7,170.2,65c1.2-4.9,3.5-10.5,6.3-14.8c4.8-7.4,12.4-13.7,21.3-17.6c7.4-3.3,15.6-5.1,25-5.5
	c6-0.3,16.2,0.7,22.6,2.1c3,0.7,7.8,2.4,8.1,2.9c0.1,0.1-2.1,8.3-4.5,17.5c-0.1,0.3-0.3,0.6-0.4,0.6c-0.1,0-0.7-0.2-1.4-0.5
	c-3.3-1.5-8.1-2.6-14.2-3.2c-3.5-0.4-12.5-0.3-14.7,0.2c-6.5,1.2-11.1,3.2-15.4,6.7c-4.8,3.9-7.9,9-9.5,15.7
	c-0.8,3.4-1.1,5.9-1.1,9.7c0,6.5,1.1,11.7,3.5,16.6c3.2,6.4,9.1,11.6,16,14c4.5,1.6,10.3,2.3,15.2,1.9c3.9-0.3,7.6-1.1,8-1.6
	c0.2-0.3,0-20.5-0.3-20.6c-0.1-0.1-1.9-0.1-4-0.1c-2.1,0-3.8-0.1-3.9-0.1c-0.2-0.3-3.6-17.4-3.5-17.5c0.1-0.1,7.6-0.1,16.8-0.1
	l16.7,0l0.1,3c0,1.7,0,13.6-0.1,26.4l-0.1,23.4l-1.5,0.5c-1.9,0.6-9.5,2.5-12.2,3.1c-4.1,0.8-10.1,1.6-15.2,1.9
	C224.2,129.6,221.3,129.6,217.8,129.3L217.8,129.3z M267.5,128.4c0-0.1-0.1-22.3-0.1-49.3l-0.1-49.2l0.8-0.2
	c2.3-0.6,10.9-1.5,17.6-1.8c5.3-0.3,14.4-0.4,18.3-0.2c15.2,0.8,25.7,5.3,31.1,13.3c2.4,3.5,3.7,7.6,4.1,12.7
	c0.5,5.5-1,11.5-3.9,16.1c-1.6,2.5-4.7,5.6-7.3,7.5c-1.5,1.1-4.7,2.8-5.8,3.2c-0.9,0.3-0.8,0.6,0.6,1.4c2.5,1.4,4.9,3.5,6.6,5.9
	c1.8,2.5,3.6,6.3,4.6,9.9c1.5,5.2,3.7,13.4,4.6,16.6c1.8,6.5,2.6,9.2,3.4,11.6c0.4,1.3,0.8,2.4,0.8,2.4c0,0.1-3.8,0.2-11.3,0.2
	h-11.4l-0.6-1.2c-1.5-3.1-4.4-12.8-6.5-21.9c-1.3-5.4-2.3-8.2-3.9-10.6c-2-3-4.8-4.8-8.5-5.5c-1.2-0.2-10.2-0.4-10.4-0.2
	c-0.2,0.1-0.2,4-0.3,19.8l-0.1,19.7l-11,0C272.5,128.5,267.5,128.4,267.5,128.4L267.5,128.4z M302.9,71.9c4.7-0.9,7.4-2.1,9.6-4.2
	c1.8-1.7,2.9-3.5,3.6-6.2c0.4-1.7,0.4-5.3-0.1-7.1c-1.2-4.5-4.1-7.5-8.7-9c-2.2-0.7-4.2-0.9-8.9-0.9c-3.9,0-7.6,0.2-8.3,0.4
	c-0.3,0.1-0.3,0.9-0.3,13.7c0,7.5,0.1,13.6,0.1,13.7c0.1,0.1,2.8,0.1,6,0C300.1,72.2,302,72.1,302.9,71.9L302.9,71.9z M344.1,128.3
	c-0.1-0.1,0.1-0.7,0.2-1.3c0.6-2.1,12.4-41.4,18.3-61c3.2-10.6,7-23.2,8.4-27.8c1.4-4.7,2.7-8.8,2.8-9.2l0.2-0.8l15,0l15,0l0.3,0.9
	c0.1,0.5,3.1,10.1,6.6,21.4c15.3,49.6,23.9,77.6,23.8,77.8c-0.1,0.1-5.1,0.1-11.9,0.1c-9.3,0-11.8,0-12-0.2c-0.1-0.1-1.9-5.8-4-12.6
	c-2.8-9.1-3.9-12.5-4.1-12.6c-0.2-0.1-5.8-0.2-14.3-0.2c-11.1,0-14.1,0-14.3,0.2c-0.2,0.1-1.3,3.9-3.6,12.4
	c-1.8,6.7-3.4,12.4-3.5,12.6l-0.2,0.4h-11.4C348.3,128.5,344.1,128.4,344.1,128.3L344.1,128.3z M399.6,86.1c0-0.1-1.2-4.6-2.9-10.1
	c-3.5-12-5.8-20.1-7.3-26.2c-0.6-2.5-1.1-4.6-1.2-4.6c-0.1-0.1-0.2,0-0.2,0c-0.1,0.1-1.4,5.6-3.8,16.9c-0.4,1.6-2,7.7-3.7,13.4
	c-1.7,5.8-3,10.5-2.9,10.6C377.6,86.3,399.5,86.3,399.6,86.1L399.6,86.1z M439.2,128.3c-0.1-0.1-0.2-22.7-0.2-50.2l-0.1-50h11.2
	h11.2l0,34.5c0,19-0.1,41.5-0.1,50.1l-0.1,15.6l-10.9,0C441.7,128.5,439.4,128.4,439.2,128.3L439.2,128.3z M475.4,128.3
	c-0.1-0.1-0.2-17.2-0.2-50.1l-0.1-49.9h11.2h11.2v40.4c0,22.2,0,40.5,0,40.6c0,0.2,2.8,0.2,12.6,0.2l12.6,0l-0.1,9.4
	c0,5.1-0.1,9.4-0.1,9.5c0,0.1-10.6,0.1-23.6,0.1C480.4,128.5,475.5,128.4,475.4,128.3L475.4,128.3z M475.4,128.3"/>
<path fill="#91B226" d="M73,330.1c-18.2-1.1-33.5-7.7-46.5-20.1c-5-4.8-10.6-11.8-13.1-16.3c-0.3-0.5-1-1.7-1.5-2.6
	c-2.1-3.4-4.6-9.9-5.9-15c-0.5-2-1.5-6.8-1.8-9c-1.5-10.2-0.8-21.2,2.1-31.1c1.9-6.4,2.4-7.9,4.5-12.1c3.2-6.7,7.6-12.6,13.5-18.7
	c6.8-6.9,12.9-11.5,20.4-15.2c7.3-3.6,14.3-5.7,22.8-6.8c3.2-0.4,12.5-0.6,16.1-0.3c9.5,0.8,18.5,3.3,26.7,7.4
	c7.3,3.7,13.5,8.2,19.5,14.2c5.1,5.1,9,10.2,12.3,15.9c2.5,4.3,5.7,11.8,6.3,14.9c0.2,1,0.5,2.1,0.6,2.6c0.3,0.9,0.8,3.9,1.4,7.8
	c1.1,7.3,0.9,16.7-0.6,25.7c-0.2,1.3-1.5,6.4-2,8.2c-1.2,4-4.8,11.8-6.5,14.1c-0.5,0.6-1.2,1.7-1.6,2.4c-1.4,2.3-2.9,4.5-3.9,5.6
	c-8.1,9.7-15.8,16-25.3,20.8c-5.2,2.6-9.3,4.2-14.7,5.5C88.8,329.7,80,330.6,73,330.1L73,330.1z M81.4,305.3c2.9-0.3,6.3-1.2,7.9-2
	c1.4-0.7,2.7-2.1,2.7-2.9c0-0.1-0.3-0.8-0.7-1.5c-0.7-1.2-1.5-3-3.5-7.2c-0.9-2.1-2.8-7.5-3.3-9.8c-0.3-1.5-0.4-1.9-0.4-5.5
	c0-3.2,0.1-4.1,0.3-5.1c0.4-1.5,1.4-4.1,1.9-4.6c0.2-0.2,0.6-0.7,0.8-1.1c0.8-1.2,2-2.6,3.3-3.7c1-0.9,1.5-1.2,2.6-1.5
	c8.3-2.8,17.5-10.1,22.1-17.6c1.6-2.7,2.5-4.2,2.9-5.4c0.2-0.7,0.6-1.8,0.9-2.5c1.1-2.7,2.3-9.1,2-10.1l-0.1-0.3l-44.1,0l-44.1,0
	l-0.1,0.5c-0.1,0.8,0.4,4.4,0.9,6.6c0.6,2.6,1.3,4.6,2.8,7.6c2.4,4.9,5.4,8.7,9.8,12.7c4.1,3.7,8.9,6.5,14.3,8.6
	c1.9,0.7,2.8,1.3,4.3,2.8c2.2,2.3,3.9,5.3,4.5,8.2c0.3,1.5,0.3,2,0.3,5.3c-0.1,4-0.2,4.8-1.5,8.8c-0.3,1-0.6,2.1-0.7,2.5
	c-0.4,1.4-1.4,3.8-3.5,7.9c-2.1,4.1-2.1,4.2-1.9,4.8c0.7,2.3,5.5,4.1,12.6,4.7C76.2,305.8,78.6,305.7,81.4,305.3L81.4,305.3z
	 M48,291.8c3-0.5,5.2-1.4,5.8-2.6l0.3-0.6l-0.6-1.1c-2.9-5.2-4.3-9.7-4.3-13.9c0-2.5,0.2-3.5,1.3-5.6c1-2,1.5-2.5,3.5-3
	c0.9-0.2,1.9-0.6,2.2-0.8c1.2-0.6,2.3-1.4,2.2-1.6c0-0.1-0.7-0.3-1.4-0.6c-2.3-0.8-3.7-1.3-5.4-2.3c-6.4-3.6-10.5-7.3-14.4-12.8
	c-1.2-1.6-2.2-3.2-2.4-3.6c-0.1-0.3-0.4-0.7-0.5-0.8c-0.4-0.2-16.4-0.2-16.8,0c-0.3,0.2-0.3,0.3-0.2,1.1c0.2,1.8,0.8,4.4,1.2,5.7
	c1.1,2.9,3.3,6.5,5.2,8.3c4.5,4.2,7.3,6.1,10.7,7.1c2.8,0.9,3,1,4.2,3c1,1.7,1.4,2.9,1.5,5.3c0.2,3.7-0.8,7.4-3.4,12.4
	c-0.8,1.7-1.5,3.2-1.5,3.3c0,0.4,0.8,1.2,1.5,1.6C38.8,291.7,44.3,292.3,48,291.8L48,291.8z M113,291.8c3.4-0.5,5.3-1.4,5.8-2.7
	c0.1-0.4,0-0.7-1.2-3.1c-1.9-3.8-3.1-7.6-3.4-11.1c-0.2-1.8,0-4.1,0.5-5.3c0.3-0.8,1.9-3.5,2.3-3.8c0.1-0.1,1-0.4,2-0.7
	c4.1-1.2,7.5-3.5,11.4-7.5c2.3-2.4,4.6-6.2,5.3-8.7c0.2-0.8,0.5-2.1,0.7-2.7c0.4-1.6,0.5-3.1,0-3.4c-0.4-0.2-16.9-0.2-17.3,0
	c-0.2,0.1-0.5,0.5-0.7,1c-0.6,1.1-2.1,3.4-3.3,4.9c-1.5,1.8-6.2,6.4-8,7.8c-3.4,2.5-7.2,4.6-9.8,5.4c-1.9,0.6-2,0.7-1.7,1
	c0.4,0.5,2.5,1.5,4.2,2.2c2.9,1,3,1.1,4,3c1.1,2,1.4,3.3,1.4,5.6c0,3.7-1,7-3.3,11.7c-0.8,1.7-1.5,3.2-1.5,3.4
	c0,0.5,0.7,1.3,1.5,1.8C104.1,291.8,109.1,292.3,113,291.8L113,291.8z M547.7,310.3c-6.5-0.6-11.3-1.5-16.2-3.1l-1.9-0.6l0-10.4
	c0-5.7,0-10.4,0-10.4c0,0,1,0.4,2.2,0.9c5.8,2.5,12.3,4,20.2,4.7c2.3,0.2,4.7,0,7.3-0.5c7-1.4,10.2-4.7,10.2-10.5
	c0-2.7-0.8-4.6-2.9-6.8c-2.7-2.7-6.3-4.7-12.7-6.9c-8.3-2.9-13.8-5.8-18.7-9.8c-6.3-5.2-9.4-11.8-9.5-20.1c0-7.9,2.8-14.5,8.5-20
	c2.6-2.5,5-4.2,8.2-5.7c5.9-2.8,12.6-4.2,20.7-4.2c6.7,0,12.8,0.8,17.9,2.3c3.4,1,7.4,2.8,7.5,3.4c0,0.3-5.2,16.7-5.5,17.2
	c-0.1,0.2-1.1,0.2-4.4,0.2h-4.2l-0.8-0.7c-4.5-4.1-11-5.1-18.1-2.9c-4.3,1.3-6.7,3.6-7.3,6.8c-0.2,1.3-0.2,2,0.1,3.4
	c0.7,3.2,2.7,5.3,7.9,8.1c3,1.6,6.1,3,12.8,5.5c7.4,2.8,13.6,6.7,17.4,11c4.1,4.7,6.2,10,6.5,16.3c0.3,8.5-2.5,15.9-8.3,21.9
	c-2.6,2.7-5,4.5-8.6,6.2c-6.2,3.1-13.8,4.6-23.1,4.7C550.3,310.3,548.1,310.3,547.7,310.3L547.7,310.3z M216.8,309.8
	c-13.9-1.2-24.1-4.9-32-11.5c-1.8-1.5-4.8-4.6-6.3-6.4c-7.3-9.1-10.8-21-10-34.4c0.8-14.2,5.4-25.5,13.8-33.9
	c8.6-8.6,20.6-14,34.2-15.5c0.8-0.1,2.2-0.2,3-0.3c1.9-0.2,7.8-0.2,11.3,0c6.6,0.4,11.9,1.2,16.6,2.4c2.9,0.8,6.1,2.1,6.1,2.5
	c0,0.4-4.6,17.7-4.8,17.8c-0.1,0.1-0.4,0-0.8-0.2c-3-1.5-8.4-2.8-14.2-3.4c-3.4-0.4-9.2-0.5-12.1-0.3c-6,0.5-11.7,2.3-16.1,5.2
	c-7.5,4.9-11.4,11.6-12.9,21.8c-0.3,2.4-0.4,8.2-0.1,10.6c1,7.9,3.8,14,8.6,18.7c4.6,4.5,9.8,7.1,16.7,8.3c4.4,0.7,8.1,0.8,12.9,0.1
	c1.7-0.2,3.8-0.8,4.1-1.1c0.2-0.1,0.2-2.4,0.2-10.4c0-9.2,0-10.3-0.3-10.4c-0.1-0.1-1.9-0.1-4-0.1c-2.1,0-3.8-0.1-3.8-0.1
	c-0.2-0.3-3.6-17.4-3.5-17.5c0-0.1,7.5-0.1,16.7-0.1c12.7,0,16.6,0,16.8,0.2c0.1,0.1,0.2,6.2,0.2,26.4c0,14.4-0.1,26.3-0.1,26.4
	c-0.2,0.3-3.3,1.2-8,2.4c-6.4,1.6-9.3,2.1-15.8,2.8C229.6,309.8,219.8,310,216.8,309.8L216.8,309.8z M267.4,259.5
	c0-27.9,0.1-49.3,0.1-49.4c0.5-0.3,7.7-1.2,12.9-1.6c7.7-0.6,19.3-0.8,25-0.4c9.1,0.6,17.4,2.9,22.6,6.4
	c6.9,4.6,10.3,10.8,11.1,19.7c0.5,5.8-1.2,12-4.5,16.7c-1.2,1.8-4.5,5.1-6.3,6.4c-1.7,1.2-3.9,2.5-5.5,3.2c-0.8,0.3-1.2,0.6-1.2,0.8
	c0,0.1,0.4,0.5,0.9,0.8c1.7,0.9,3.7,2.5,5.1,3.9c3.1,3.2,5.2,7.5,6.9,13.7c0.4,1.4,1.6,5.7,2.6,9.4c1.1,3.8,2.4,8.5,2.9,10.4
	c0.5,1.9,1.4,4.7,1.9,6.1c0.5,1.4,0.9,2.7,1,2.9l0.1,0.4h-11.5h-11.5l-0.6-1.3c-1.6-3.4-4.3-12.7-6.8-23.4c-1.3-5.7-3-9.2-5.7-11.6
	c-2.1-2-4.6-2.9-8.4-3.2c-2.7-0.2-8.1-0.2-8.4,0c-0.2,0.1-0.2,4.3-0.2,19.8l0,19.7l-11.2,0l-11.2,0V259.5L267.4,259.5z M302.1,252.4
	c6.9-1,10.9-3.4,13.1-7.8c1.5-3,1.8-6.4,0.9-9.8c-1-4.2-3.7-7.1-7.8-8.7c-3.1-1.2-6.4-1.5-12.8-1.2c-2.4,0.1-4.6,0.2-5,0.3l-0.6,0.1
	l0,13.7l0,13.7h5.3C299,252.6,300.8,252.6,302.1,252.4L302.1,252.4z M343.8,308.7c0-0.2,30.1-99.5,30.2-99.9l0.2-0.4H389
	c11.7,0,14.8,0,14.9,0.2c0.2,0.3,31.1,99.9,31,100c0,0.1-5.5,0.1-12.1,0.1c-11.3,0-12,0-12.1-0.3c-0.1-0.2-1.8-5.9-3.9-12.7
	l-3.8-12.4l-14.5,0c-8,0-14.5,0-14.6,0.1c-0.1,0.1-1.6,5.7-3.5,12.6c-1.9,6.9-3.4,12.5-3.5,12.6C367,308.8,343.8,308.8,343.8,308.7
	L343.8,308.7z M399.6,266.4c0-0.1-1.3-4.7-2.9-10.2c-4-13.8-7.5-26.4-8.1-30.2c-0.1-0.6-0.3-0.9-0.6-0.7c-0.1,0.1-1.2,5-3.4,15
	c-0.8,3.6-1.8,7.4-4.1,15.4c-1.7,5.8-3,10.6-3,10.7C377.6,266.6,399.5,266.6,399.6,266.4L399.6,266.4z M439.1,308.6
	c0-0.1-0.1-22.7,0-50.1l0-49.9h11.1h11.1v50.1v50.1l-11.1,0C441.5,308.8,439.2,308.8,439.1,308.6L439.1,308.6z M475.2,258.7l0-50.1
	l11.1,0l11.1,0v40.4c0,32,0,40.4,0.2,40.6c0.2,0.2,1.2,0.3,12.7,0.3l12.5,0v9.4v9.4l-23.8,0l-23.8,0L475.2,258.7L475.2,258.7z
	 M73.7,149.8c-7.1-0.4-13.5-1.5-19.4-3.4c-12.1-3.9-22.6-10.8-31.4-20.6c-4.2-4.7-7.5-9-9.5-12.6c-0.3-0.6-1-1.8-1.6-2.6
	c-0.5-0.8-1.3-2.2-1.6-3.1c-0.4-0.9-0.9-2.2-1.2-2.8c-0.6-1.3-2.1-5.8-2.7-8.2c-0.5-1.9-1.4-6.5-1.9-9c-1-6.5-1.1-15.2-0.2-21.5
	c0.8-5.7,2.8-13.4,4.7-18.1c2.7-6.6,6.7-13.2,11.7-19c1.9-2.2,7.1-7.4,9.4-9.4c9.8-8.4,21-13.8,33.5-16C71.1,2,80.5,1.9,88.2,3
	c9.9,1.4,18.5,4.5,26.9,9.6c5.3,3.2,9.2,6.3,14,10.9c5.1,4.9,9,9.8,12.3,15.4c2.4,4,6.2,12.6,6.8,15.4c0.1,0.7,0.5,2,0.7,3
	c0.9,3.4,1.7,8.9,2,12.7c0.5,6.8,0.1,13.9-1.1,21.1c-0.2,1.4-1.5,6.3-2.1,8.4c-1.3,4.2-4.7,11.5-6.4,13.9c-0.5,0.6-1.4,2-2,3
	c-1.9,3-2.7,4.2-5.3,7.2c-13.6,15.7-30.2,24.3-50,26C81.2,149.8,75.7,149.9,73.7,149.8L73.7,149.8z M82.2,147.7
	c15.8-0.9,30.2-7,42-17.6c4.5-4.1,8.6-9.2,12.1-15.3c3.2-5.6,6.3-13.9,6.7-18.3l0.1-0.7l-0.8,0.4c-0.5,0.2-5.9,2.7-12.1,5.5
	c-6.2,2.8-11.3,5.1-11.4,5.1c-0.4,0-2.3-3.9-2.9-6c-1.5-4.7-1.9-8.7-1-11.3c0.3-0.9,2-3.6,2.4-3.9c0.2-0.1,1.1-0.5,2-0.7
	c2.8-0.8,6.1-2.7,8.2-4.6c0.6-0.5,1.4-1.2,1.8-1.6c1.2-1,3.1-3.2,4.1-4.8c1.8-2.9,2.2-3.9,2.9-6.6c0.7-2.9,0.9-4.2,0.6-4.7l-0.2-0.3
	H128c-4.7,0-8.7,0-8.9,0.1c-0.1,0.1-0.5,0.5-0.8,1.1c-0.7,1.4-2.2,3.5-3.6,5.2c-1.7,2-5.8,6-7.5,7.2c-3.4,2.5-7.2,4.6-10.1,5.6
	c-1.4,0.5-1.8,0.7-1.8,0.9c0,0.4,2.3,1.8,3.7,2.2c2.9,0.9,3.6,1.3,4.5,2.9c1.7,3.1,1.9,6,0.7,10.8c-0.6,2.5-1.2,3.8-2.9,7.1
	c-1.6,3-1.6,3.1-0.8,4c0.9,1,2.6,1.8,5.3,2.2l1.6,0.3l-7.6,3.5c-4.2,1.9-7.7,3.5-7.8,3.5c-0.3,0-1.1-1.3-2.8-4.9
	c-1.9-4-2.1-4.4-3.3-7.8c-1.6-4.8-1.7-5.1-1.8-9.5c-0.1-4.5,0.1-5.8,1.1-8.2c0.6-1.5,1.3-2.5,3-4.6c1.1-1.3,3.4-3.4,3.8-3.4
	c0.5,0,3.3-1.1,5.2-2.1c3.4-1.7,5.7-3.2,9.5-6.3c4.8-3.9,9.5-10.4,11.4-15.6c1.3-3.7,1.6-4.4,2-6.3c0.5-2.2,0.8-5.3,0.7-5.7
	c-0.1-0.2-3.7-0.3-44.2-0.2l-44.1,0l0,1.4c0,1.4,0.5,4.7,1,6.6c0.8,3.1,3,7.9,5.1,11c2.1,3.2,3.9,5.2,6.8,7.8
	c4.8,4.3,9.4,7.1,15.1,9.2c1.7,0.6,2.7,1.3,4.2,2.9c1.5,1.6,2.3,2.7,3.3,4.8c0.8,1.8,1.2,3.5,1.4,6c0.1,2.2-0.2,6.4-0.7,8.2
	c-0.4,1.5-0.6,2.2-1.9,6.3c-0.4,1.4-1.2,3.2-2.8,6.3c-1.2,2.4-2.3,4.5-2.4,4.6c-0.2,0.3,0,1.3,0.4,2c0.6,0.9,1.9,1.7,3.7,2.3
	c3.1,1.1,5.9,1.6,9.6,1.8l2.1,0.1L63.5,132c-7.6,3.5-14.2,6.5-14.7,6.7l-0.9,0.4l0.4,0.2c0.2,0.1,0.4,0.3,0.4,0.4
	c0,0.3,5.2,2.9,7.8,3.8c0.6,0.2,1.6,0.6,2.2,0.8c1.7,0.6,4.6,1.5,6.2,1.8c1.2,0.3,2.3,0.5,6.2,1.1c0.5,0.1,2,0.2,3.3,0.3
	c1.4,0.1,2.5,0.2,2.5,0.2C77.2,147.9,79.1,147.9,82.2,147.7L82.2,147.7z M47,111.7c4-0.4,7.1-1.9,7.1-3.3c0-0.2-0.4-1.1-0.9-2
	c-1.1-2-2.4-4.7-2.8-6.2c-0.5-1.5-1.1-4.7-1.2-6.1c-0.2-2.1,0.4-5,1.6-7c0.9-1.6,1.2-1.8,3.3-2.4c1.3-0.4,2.2-0.7,3.2-1.3
	c0.7-0.4,1.3-0.9,1.3-0.9c0-0.1-0.8-0.4-1.9-0.8c-2.4-0.8-5-2.1-7.8-3.9c-2.9-1.8-4.5-3.2-7.2-5.8c-1.8-1.7-2.6-2.7-4.3-5.1
	c-1.2-1.6-2.3-3.3-2.5-3.7c-0.2-0.4-0.5-0.8-0.6-0.9c-0.5-0.2-16.4-0.1-16.7,0.1c-0.3,0.2-0.3,0.3-0.2,1.1c0.4,3.3,1.1,5.9,2.4,8.3
	c1.7,3.1,3.3,5.2,5.2,6.7c0.6,0.5,1.6,1.3,2.2,1.8c2.4,2,5,3.5,7.8,4.4c1.7,0.5,2,0.7,2.6,1.3c0.8,0.8,1.8,2.7,2.2,4
	c0.1,0.5,0.3,1.7,0.3,2.7c0.1,1.6,0,2.1-0.3,3.9c-0.6,3-1.3,4.9-3,8.4c-0.8,1.7-1.5,3.2-1.5,3.5c0,0.5,0.9,1.4,1.9,1.9
	c1,0.5,3.3,1,5.1,1.2C44,111.9,45.2,111.9,47,111.7L47,111.7z M545.1,129.7c-1.2-0.1-3.2-0.4-4.5-0.6c-3.5-0.6-10.5-2.4-11-2.8
	c-0.2-0.1-0.2-2.4-0.2-10.3c0-5.6,0-10.2,0.1-10.2c0.1-0.1,0.5,0.1,1,0.4c2.1,1.1,6.2,2.5,9.2,3.3c3.4,0.9,6.6,1.4,11,1.8
	c2.4,0.2,3.2,0.2,4.9,0.1c6.4-0.6,10.7-2.6,12.5-5.9c1.1-2,1.4-5.8,0.7-7.9c-1.2-3.6-5.1-6.9-11.4-9.4c-0.8-0.3-2.7-1-4.2-1.6
	c-9.4-3.2-15.8-6.9-20.6-11.7c-3.6-3.6-5.7-7.5-6.8-12.5c-0.5-2.3-0.6-7.4-0.2-9.9c1-7,4.8-13.3,10.7-17.8
	c7.5-5.8,18.3-8.5,31.3-7.6c6.3,0.4,12.5,1.6,16.6,3.3c1.8,0.7,4.2,2,4.3,2.2c0.1,0.3-5.5,17.4-5.7,17.6c-0.1,0.1-2,0.1-4.2,0.1
	c-4.3,0-4.4,0-5.2-0.9c-1.2-1.3-4.1-2.9-6.3-3.4c-2.3-0.6-4.1-0.7-6.2-0.5c-6.4,0.6-10.4,2.6-12,5.8c-1.6,3.3-0.8,7.4,2.1,10
	c2.5,2.3,8.5,5.4,15.2,7.9c4,1.5,5.9,2.3,8.6,3.6c9.3,4.7,14.8,10.6,17,18.4c1.9,6.5,1.1,14.5-2,20.8c-2.4,4.9-6.5,9.3-11.1,12.2
	c-4.5,2.8-10.4,4.7-17.8,5.7c-2.7,0.4-3.8,0.4-8.3,0.5C548.7,129.9,546.7,129.8,545.1,129.7L545.1,129.7z M217.8,129.3
	c-5.2-0.4-8.1-0.8-12.6-1.9c-11.5-2.6-19.9-7.7-26.8-16.2C169,99.6,166,82.7,170.2,65c1.2-4.9,3.5-10.5,6.3-14.8
	c4.8-7.4,12.4-13.7,21.3-17.6c7.4-3.3,15.6-5.1,25-5.5c6-0.3,16.2,0.7,22.6,2.1c3,0.7,7.8,2.4,8.1,2.9c0.1,0.1-2.1,8.3-4.5,17.5
	c-0.1,0.3-0.3,0.6-0.4,0.6c-0.1,0-0.7-0.2-1.4-0.5c-3.3-1.5-8.1-2.6-14.2-3.2c-3.5-0.4-12.5-0.3-14.7,0.2
	c-6.5,1.2-11.1,3.2-15.4,6.7c-4.8,3.9-7.9,9-9.5,15.7c-0.8,3.4-1.1,5.9-1.1,9.7c0,6.5,1.1,11.7,3.5,16.6c3.2,6.4,9.1,11.6,16,14
	c4.5,1.6,10.3,2.3,15.2,1.9c3.9-0.3,7.6-1.1,8-1.6c0.2-0.3,0-20.5-0.3-20.6c-0.1-0.1-1.9-0.1-4-0.1c-2.1,0-3.8-0.1-3.9-0.1
	c-0.2-0.3-3.6-17.4-3.5-17.5c0.1-0.1,7.6-0.1,16.8-0.1l16.7,0l0.1,3c0,1.7,0,13.6-0.1,26.4l-0.1,23.4l-1.5,0.5
	c-1.9,0.6-9.5,2.5-12.2,3.1c-4.1,0.8-10.1,1.6-15.2,1.9C224.2,129.6,221.3,129.6,217.8,129.3L217.8,129.3z M267.5,128.4
	c0-0.1-0.1-22.3-0.1-49.3l-0.1-49.2l0.8-0.2c2.3-0.6,10.9-1.5,17.6-1.8c5.3-0.3,14.4-0.4,18.3-0.2c15.2,0.8,25.7,5.3,31.1,13.3
	c2.4,3.5,3.7,7.6,4.1,12.7c0.5,5.5-1,11.5-3.9,16.1c-1.6,2.5-4.7,5.6-7.3,7.5c-1.5,1.1-4.7,2.8-5.8,3.2c-0.9,0.3-0.8,0.6,0.6,1.4
	c2.5,1.4,4.9,3.5,6.6,5.9c1.8,2.5,3.6,6.3,4.6,9.9c1.5,5.2,3.7,13.4,4.6,16.6c1.8,6.5,2.6,9.2,3.4,11.6c0.4,1.3,0.8,2.4,0.8,2.4
	c0,0.1-3.8,0.2-11.3,0.2h-11.4l-0.6-1.2c-1.5-3.1-4.4-12.8-6.5-21.9c-1.3-5.4-2.3-8.2-3.9-10.6c-2-3-4.8-4.8-8.5-5.5
	c-1.2-0.2-10.2-0.4-10.4-0.2c-0.2,0.1-0.2,4-0.3,19.8l-0.1,19.7l-11,0C272.5,128.5,267.5,128.4,267.5,128.4L267.5,128.4z
	 M302.9,71.9c4.7-0.9,7.4-2.1,9.6-4.2c1.8-1.7,2.9-3.5,3.6-6.2c0.4-1.7,0.4-5.3-0.1-7.1c-1.2-4.5-4.1-7.5-8.7-9
	c-2.2-0.7-4.2-0.9-8.9-0.9c-3.9,0-7.6,0.2-8.3,0.4c-0.3,0.1-0.3,0.9-0.3,13.7c0,7.5,0.1,13.6,0.1,13.7c0.1,0.1,2.8,0.1,6,0
	C300.1,72.2,302,72.1,302.9,71.9L302.9,71.9z M344.1,128.3c-0.1-0.1,0.1-0.7,0.2-1.3c0.6-2.1,12.4-41.4,18.3-61
	c3.2-10.6,7-23.2,8.4-27.8c1.4-4.7,2.7-8.8,2.8-9.2l0.2-0.8l15,0l15,0l0.3,0.9c0.1,0.5,3.1,10.1,6.6,21.4
	c15.3,49.6,23.9,77.6,23.8,77.8c-0.1,0.1-5.1,0.1-11.9,0.1c-9.3,0-11.8,0-12-0.2c-0.1-0.1-1.9-5.8-4-12.6
	c-2.8-9.1-3.9-12.5-4.1-12.6c-0.2-0.1-5.8-0.2-14.3-0.2c-11.1,0-14.1,0-14.3,0.2c-0.2,0.1-1.3,3.9-3.6,12.4
	c-1.8,6.7-3.4,12.4-3.5,12.6l-0.2,0.4h-11.4C348.3,128.5,344.1,128.4,344.1,128.3L344.1,128.3z M399.6,86.1c0-0.1-1.2-4.6-2.9-10.1
	c-3.5-12-5.8-20.1-7.3-26.2c-0.6-2.5-1.1-4.6-1.2-4.6c-0.1-0.1-0.2,0-0.2,0c-0.1,0.1-1.4,5.6-3.8,16.9c-0.4,1.6-2,7.7-3.7,13.4
	c-1.7,5.8-3,10.5-2.9,10.6C377.6,86.3,399.5,86.3,399.6,86.1L399.6,86.1z M439.2,128.3c-0.1-0.1-0.2-22.7-0.2-50.2l-0.1-50h11.2
	h11.2l0,34.5c0,19-0.1,41.5-0.1,50.1l-0.1,15.6l-10.9,0C441.7,128.5,439.4,128.4,439.2,128.3L439.2,128.3z M475.4,128.3
	c-0.1-0.1-0.2-17.2-0.2-50.1l-0.1-49.9h11.2h11.2v40.4c0,22.2,0,40.5,0,40.6c0,0.2,2.8,0.2,12.6,0.2l12.6,0l-0.1,9.4
	c0,5.1-0.1,9.4-0.1,9.5c0,0.1-10.6,0.1-23.6,0.1C480.4,128.5,475.5,128.4,475.4,128.3L475.4,128.3z M475.4,128.3"/>
<path fill="#669020" d="M73,330.1c-18.2-1.1-33.5-7.7-46.5-20.1c-5-4.8-10.6-11.8-13.1-16.3c-0.3-0.5-1-1.7-1.5-2.6
	c-2.1-3.4-4.6-9.9-5.9-15c-0.5-2-1.5-6.8-1.8-9c-1.5-10.2-0.8-21.2,2.1-31.1c1.9-6.4,2.4-7.9,4.5-12.1c3.2-6.7,7.6-12.6,13.5-18.7
	c6.8-6.9,12.9-11.5,20.4-15.2c7.3-3.6,14.3-5.7,22.8-6.8c3.2-0.4,12.5-0.6,16.1-0.3c9.5,0.8,18.5,3.3,26.7,7.4
	c7.3,3.7,13.5,8.2,19.5,14.2c5.1,5.1,9,10.2,12.3,15.9c2.5,4.3,5.7,11.8,6.3,14.9c0.2,1,0.5,2.1,0.6,2.6c0.3,0.9,0.8,3.9,1.4,7.8
	c1.1,7.3,0.9,16.7-0.6,25.7c-0.2,1.3-1.5,6.4-2,8.2c-1.2,4-4.8,11.8-6.5,14.1c-0.5,0.6-1.2,1.7-1.6,2.4c-1.4,2.3-2.9,4.5-3.9,5.6
	c-8.1,9.7-15.8,16-25.3,20.8c-5.2,2.6-9.3,4.2-14.7,5.5C88.8,329.7,80,330.6,73,330.1L73,330.1z M81.4,305.3c2.9-0.3,6.3-1.2,7.9-2
	c1.4-0.7,2.7-2.1,2.7-2.9c0-0.1-0.3-0.8-0.7-1.5c-0.7-1.2-1.5-3-3.5-7.2c-0.9-2.1-2.8-7.5-3.3-9.8c-0.3-1.5-0.4-1.9-0.4-5.5
	c0-3.2,0.1-4.1,0.3-5.1c0.4-1.5,1.4-4.1,1.9-4.6c0.2-0.2,0.6-0.7,0.8-1.1c0.8-1.2,2-2.6,3.3-3.7c1-0.9,1.5-1.2,2.6-1.5
	c8.3-2.8,17.5-10.1,22.1-17.6c1.6-2.7,2.5-4.2,2.9-5.4c0.2-0.7,0.6-1.8,0.9-2.5c1.1-2.7,2.3-9.1,2-10.1l-0.1-0.3l-44.1,0l-44.1,0
	l-0.1,0.5c-0.1,0.8,0.4,4.4,0.9,6.6c0.6,2.6,1.3,4.6,2.8,7.6c2.4,4.9,5.4,8.7,9.8,12.7c4.1,3.7,8.9,6.5,14.3,8.6
	c1.9,0.7,2.8,1.3,4.3,2.8c2.2,2.3,3.9,5.3,4.5,8.2c0.3,1.5,0.3,2,0.3,5.3c-0.1,4-0.2,4.8-1.5,8.8c-0.3,1-0.6,2.1-0.7,2.5
	c-0.4,1.4-1.4,3.8-3.5,7.9c-2.1,4.1-2.1,4.2-1.9,4.8c0.7,2.3,5.5,4.1,12.6,4.7C76.2,305.8,78.6,305.7,81.4,305.3L81.4,305.3z
	 M48,291.8c3-0.5,5.2-1.4,5.8-2.6l0.3-0.6l-0.6-1.1c-2.9-5.2-4.3-9.7-4.3-13.9c0-2.5,0.2-3.5,1.3-5.6c1-2,1.5-2.5,3.5-3
	c0.9-0.2,1.9-0.6,2.2-0.8c1.2-0.6,2.3-1.4,2.2-1.6c0-0.1-0.7-0.3-1.4-0.6c-2.3-0.8-3.7-1.3-5.4-2.3c-6.4-3.6-10.5-7.3-14.4-12.8
	c-1.2-1.6-2.2-3.2-2.4-3.6c-0.1-0.3-0.4-0.7-0.5-0.8c-0.4-0.2-16.4-0.2-16.8,0c-0.3,0.2-0.3,0.3-0.2,1.1c0.2,1.8,0.8,4.4,1.2,5.7
	c1.1,2.9,3.3,6.5,5.2,8.3c4.5,4.2,7.3,6.1,10.7,7.1c2.8,0.9,3,1,4.2,3c1,1.7,1.4,2.9,1.5,5.3c0.2,3.7-0.8,7.4-3.4,12.4
	c-0.8,1.7-1.5,3.2-1.5,3.3c0,0.4,0.8,1.2,1.5,1.6C38.8,291.7,44.3,292.3,48,291.8L48,291.8z M113,291.8c3.4-0.5,5.3-1.4,5.8-2.7
	c0.1-0.4,0-0.7-1.2-3.1c-1.9-3.8-3.1-7.6-3.4-11.1c-0.2-1.8,0-4.1,0.5-5.3c0.3-0.8,1.9-3.5,2.3-3.8c0.1-0.1,1-0.4,2-0.7
	c4.1-1.2,7.5-3.5,11.4-7.5c2.3-2.4,4.6-6.2,5.3-8.7c0.2-0.8,0.5-2.1,0.7-2.7c0.4-1.6,0.5-3.1,0-3.4c-0.4-0.2-16.9-0.2-17.3,0
	c-0.2,0.1-0.5,0.5-0.7,1c-0.6,1.1-2.1,3.4-3.3,4.9c-1.5,1.8-6.2,6.4-8,7.8c-3.4,2.5-7.2,4.6-9.8,5.4c-1.9,0.6-2,0.7-1.7,1
	c0.4,0.5,2.5,1.5,4.2,2.2c2.9,1,3,1.1,4,3c1.1,2,1.4,3.3,1.4,5.6c0,3.7-1,7-3.3,11.7c-0.8,1.7-1.5,3.2-1.5,3.4
	c0,0.5,0.7,1.3,1.5,1.8C104.1,291.8,109.1,292.3,113,291.8L113,291.8z M547.7,310.3c-6.5-0.6-11.3-1.5-16.2-3.1l-1.9-0.6l0-10.4
	c0-5.7,0-10.4,0-10.4c0,0,1,0.4,2.2,0.9c5.8,2.5,12.3,4,20.2,4.7c2.3,0.2,4.7,0,7.3-0.5c7-1.4,10.2-4.7,10.2-10.5
	c0-2.7-0.8-4.6-2.9-6.8c-2.7-2.7-6.3-4.7-12.7-6.9c-8.3-2.9-13.8-5.8-18.7-9.8c-6.3-5.2-9.4-11.8-9.5-20.1c0-7.9,2.8-14.5,8.5-20
	c2.6-2.5,5-4.2,8.2-5.7c5.9-2.8,12.6-4.2,20.7-4.2c6.7,0,12.8,0.8,17.9,2.3c3.4,1,7.4,2.8,7.5,3.4c0,0.3-5.2,16.7-5.5,17.2
	c-0.1,0.2-1.1,0.2-4.4,0.2h-4.2l-0.8-0.7c-4.5-4.1-11-5.1-18.1-2.9c-4.3,1.3-6.7,3.6-7.3,6.8c-0.2,1.3-0.2,2,0.1,3.4
	c0.7,3.2,2.7,5.3,7.9,8.1c3,1.6,6.1,3,12.8,5.5c7.4,2.8,13.6,6.7,17.4,11c4.1,4.7,6.2,10,6.5,16.3c0.3,8.5-2.5,15.9-8.3,21.9
	c-2.6,2.7-5,4.5-8.6,6.2c-6.2,3.1-13.8,4.6-23.1,4.7C550.3,310.3,548.1,310.3,547.7,310.3L547.7,310.3z M216.8,309.8
	c-13.9-1.2-24.1-4.9-32-11.5c-1.8-1.5-4.8-4.6-6.3-6.4c-7.3-9.1-10.8-21-10-34.4c0.8-14.2,5.4-25.5,13.8-33.9
	c8.6-8.6,20.6-14,34.2-15.5c0.8-0.1,2.2-0.2,3-0.3c1.9-0.2,7.8-0.2,11.3,0c6.6,0.4,11.9,1.2,16.6,2.4c2.9,0.8,6.1,2.1,6.1,2.5
	c0,0.4-4.6,17.7-4.8,17.8c-0.1,0.1-0.4,0-0.8-0.2c-3-1.5-8.4-2.8-14.2-3.4c-3.4-0.4-9.2-0.5-12.1-0.3c-6,0.5-11.7,2.3-16.1,5.2
	c-7.5,4.9-11.4,11.6-12.9,21.8c-0.3,2.4-0.4,8.2-0.1,10.6c1,7.9,3.8,14,8.6,18.7c4.6,4.5,9.8,7.1,16.7,8.3c4.4,0.7,8.1,0.8,12.9,0.1
	c1.7-0.2,3.8-0.8,4.1-1.1c0.2-0.1,0.2-2.4,0.2-10.4c0-9.2,0-10.3-0.3-10.4c-0.1-0.1-1.9-0.1-4-0.1c-2.1,0-3.8-0.1-3.8-0.1
	c-0.2-0.3-3.6-17.4-3.5-17.5c0-0.1,7.5-0.1,16.7-0.1c12.7,0,16.6,0,16.8,0.2c0.1,0.1,0.2,6.2,0.2,26.4c0,14.4-0.1,26.3-0.1,26.4
	c-0.2,0.3-3.3,1.2-8,2.4c-6.4,1.6-9.3,2.1-15.8,2.8C229.6,309.8,219.8,310,216.8,309.8L216.8,309.8z M267.4,259.5
	c0-27.9,0.1-49.3,0.1-49.4c0.5-0.3,7.7-1.2,12.9-1.6c7.7-0.6,19.3-0.8,25-0.4c9.1,0.6,17.4,2.9,22.6,6.4
	c6.9,4.6,10.3,10.8,11.1,19.7c0.5,5.8-1.2,12-4.5,16.7c-1.2,1.8-4.5,5.1-6.3,6.4c-1.7,1.2-3.9,2.5-5.5,3.2c-0.8,0.3-1.2,0.6-1.2,0.8
	c0,0.1,0.4,0.5,0.9,0.8c1.7,0.9,3.7,2.5,5.1,3.9c3.1,3.2,5.2,7.5,6.9,13.7c0.4,1.4,1.6,5.7,2.6,9.4c1.1,3.8,2.4,8.5,2.9,10.4
	c0.5,1.9,1.4,4.7,1.9,6.1c0.5,1.4,0.9,2.7,1,2.9l0.1,0.4h-11.5h-11.5l-0.6-1.3c-1.6-3.4-4.3-12.7-6.8-23.4c-1.3-5.7-3-9.2-5.7-11.6
	c-2.1-2-4.6-2.9-8.4-3.2c-2.7-0.2-8.1-0.2-8.4,0c-0.2,0.1-0.2,4.3-0.2,19.8l0,19.7l-11.2,0l-11.2,0V259.5L267.4,259.5z M302.1,252.4
	c6.9-1,10.9-3.4,13.1-7.8c1.5-3,1.8-6.4,0.9-9.8c-1-4.2-3.7-7.1-7.8-8.7c-3.1-1.2-6.4-1.5-12.8-1.2c-2.4,0.1-4.6,0.2-5,0.3l-0.6,0.1
	l0,13.7l0,13.7h5.3C299,252.6,300.8,252.6,302.1,252.4L302.1,252.4z M343.8,308.7c0-0.2,30.1-99.5,30.2-99.9l0.2-0.4H389
	c11.7,0,14.8,0,14.9,0.2c0.2,0.3,31.1,99.9,31,100c0,0.1-5.5,0.1-12.1,0.1c-11.3,0-12,0-12.1-0.3c-0.1-0.2-1.8-5.9-3.9-12.7
	l-3.8-12.4l-14.5,0c-8,0-14.5,0-14.6,0.1c-0.1,0.1-1.6,5.7-3.5,12.6c-1.9,6.9-3.4,12.5-3.5,12.6C367,308.8,343.8,308.8,343.8,308.7
	L343.8,308.7z M399.6,266.4c0-0.1-1.3-4.7-2.9-10.2c-4-13.8-7.5-26.4-8.1-30.2c-0.1-0.6-0.3-0.9-0.6-0.7c-0.1,0.1-1.2,5-3.4,15
	c-0.8,3.6-1.8,7.4-4.1,15.4c-1.7,5.8-3,10.6-3,10.7C377.6,266.6,399.5,266.6,399.6,266.4L399.6,266.4z M439.1,308.6
	c0-0.1-0.1-22.7,0-50.1l0-49.9h11.1h11.1v50.1v50.1l-11.1,0C441.5,308.8,439.2,308.8,439.1,308.6L439.1,308.6z M475.2,258.7l0-50.1
	l11.1,0l11.1,0v40.4c0,32,0,40.4,0.2,40.6c0.2,0.2,1.2,0.3,12.7,0.3l12.5,0v9.4v9.4l-23.8,0l-23.8,0L475.2,258.7L475.2,258.7z
	 M73.3,149.5c0.2,0,0.4,0,0.6,0c0.2,0,0,0.1-0.3,0.1C73.3,149.6,73.2,149.5,73.3,149.5L73.3,149.5z M69.3,149.3
	c-14.2-1.2-27.6-6.8-38.7-16c-6.6-5.5-13.9-14-17.2-20c-0.3-0.6-1-1.8-1.6-2.6c-0.5-0.8-1.3-2.2-1.6-3.1c-0.4-0.9-0.9-2.2-1.2-2.8
	c-0.6-1.3-2.1-5.8-2.7-8.2c-0.5-1.9-1.4-6.5-1.9-9c-1-6.5-1.1-15.2-0.2-21.5c0.8-5.7,2.8-13.4,4.7-18.1c2.7-6.6,6.7-13.2,11.7-19
	c1.9-2.2,7.1-7.4,9.4-9.4c9.8-8.4,21-13.8,33.5-16C71.1,2,80.5,1.9,88.2,3c9.9,1.4,18.5,4.5,26.9,9.6c5.3,3.2,9.2,6.3,14,10.9
	c5.1,4.9,9,9.8,12.3,15.4c2.4,4,6.2,12.6,6.8,15.4c0.1,0.7,0.5,2,0.7,3c0.9,3.4,1.7,8.9,2,12.7c0.9,11.8-0.8,23.9-4.7,33.5
	c-1.2,3.1-3.9,8.4-4.7,9.5c-0.4,0.5-1,1.4-1.4,2.1c-3.1,4.9-3.7,5.6-7.9,10.3c-2.8,3.1-7.6,7.4-10.4,9.4c-1,0.7-0.8,0.5,1.5-1.4
	c9.2-7.7,15.9-17.6,20.1-29.8c0.6-1.7,1.8-6.2,2-7.8c0.1-0.5,0.2-1.3,0.3-1.8c0.7-4.2,0.9-6,0.9-11.4c0-5.4-0.3-8.3-1.4-13.4
	c-0.6-3-2.3-8.7-3.1-10.4c-0.2-0.4-0.6-1.3-0.9-2.1c-1.4-3.4-3.5-7-4-7c-0.1,0-4.4,1.9-9.6,4.3c-5.2,2.4-9.5,4.3-9.5,4.3
	c-0.1-0.1,0.6-2.3,1.1-3.5c1-2.4,1.9-6.8,1.9-9.2l0-1.6L77,44c-30.8,0-44.1,0-44.4,0.1c-0.3,0.2-0.3,0.3,0,3.4
	c0.7,5.5,2.8,11,6.1,16c4.8,7.3,12.6,13.4,21.3,16.8c0.9,0.3,1.9,0.8,2.2,1c0.7,0.5,1.8,1.5,1.7,1.6c-0.1,0.1-13.2,6.1-13.5,6.1
	c-0.4,0.1-0.4-0.2,0.3-1.5c1-1.9,1.3-2.2,3.4-2.8c1.4-0.4,2.2-0.7,3.2-1.3c1.9-1.1,1.9-1.3-0.2-2c-0.9-0.3-2.2-0.8-3-1.1
	c-2.5-1.1-7.4-4.1-9.6-6c-2.4-2.1-5-4.7-6.1-6.2c-0.6-0.9-1.6-2.2-2.2-3c-0.6-0.8-1.2-1.8-1.4-2.2l-0.4-0.8H26h-8.6l0,0.8
	c-0.1,1.2,0.5,4.3,1.2,6.1c1,2.8,3.2,6.3,5.1,8.3c1.2,1.2,3.8,3.4,5.2,4.4c1.4,1,4.1,2.4,5.3,2.7c3,0.9,3.4,1.2,4.6,3.6
	c0.7,1.4,1,2.9,1,4.6v1.3l-11.5,5.2c-7.6,3.5-11.5,5.3-11.4,5.4c0,0.1,0.1,0.4,0,0.6c0,0.8,1.5,4.5,3.3,8.1c0.5,1,1,2,1.1,2.2
	c0.1,0.3,0.5,0.9,0.9,1.4c0.3,0.5,0.6,1,0.6,1c0,0.2,2.8,4.3,4.2,6.1c6.2,8,14.4,14.6,23.7,19c6,2.9,12.9,4.9,19.4,5.8
	C72.3,149.4,71.9,149.5,69.3,149.3L69.3,149.3z M545.1,129.7c-1.2-0.1-3.2-0.4-4.5-0.6c-3.5-0.6-10.5-2.4-11-2.8
	c-0.2-0.1-0.2-2.4-0.2-10.3c0-5.6,0-10.2,0.1-10.2c0.1-0.1,0.5,0.1,1,0.4c2.1,1.1,6.2,2.5,9.2,3.3c3.4,0.9,6.6,1.4,11,1.8
	c2.4,0.2,3.2,0.2,4.9,0.1c6.4-0.6,10.7-2.6,12.5-5.9c1.1-2,1.4-5.8,0.7-7.9c-1.2-3.6-5.1-6.9-11.4-9.4c-0.8-0.3-2.7-1-4.2-1.6
	c-9.4-3.2-15.8-6.9-20.6-11.7c-3.6-3.6-5.7-7.5-6.8-12.5c-0.5-2.3-0.6-7.4-0.2-9.9c1-7,4.8-13.3,10.7-17.8
	c7.5-5.8,18.3-8.5,31.3-7.6c6.3,0.4,12.5,1.6,16.6,3.3c1.8,0.7,4.2,2,4.3,2.2c0.1,0.3-5.5,17.4-5.7,17.6c-0.1,0.1-2,0.1-4.2,0.1
	c-4.3,0-4.4,0-5.2-0.9c-1.2-1.3-4.1-2.9-6.3-3.4c-2.3-0.6-4.1-0.7-6.2-0.5c-6.4,0.6-10.4,2.6-12,5.8c-1.6,3.3-0.8,7.4,2.1,10
	c2.5,2.3,8.5,5.4,15.2,7.9c4,1.5,5.9,2.3,8.6,3.6c9.3,4.7,14.8,10.6,17,18.4c1.9,6.5,1.1,14.5-2,20.8c-2.4,4.9-6.5,9.3-11.1,12.2
	c-4.5,2.8-10.4,4.7-17.8,5.7c-2.7,0.4-3.8,0.4-8.3,0.5C548.7,129.9,546.7,129.8,545.1,129.7L545.1,129.7z M217.8,129.3
	c-5.2-0.4-8.1-0.8-12.6-1.9c-11.5-2.6-19.9-7.7-26.8-16.2C169,99.6,166,82.7,170.2,65c1.2-4.9,3.5-10.5,6.3-14.8
	c4.8-7.4,12.4-13.7,21.3-17.6c7.4-3.3,15.6-5.1,25-5.5c6-0.3,16.2,0.7,22.6,2.1c3,0.7,7.8,2.4,8.1,2.9c0.1,0.1-2.1,8.3-4.5,17.5
	c-0.1,0.3-0.3,0.6-0.4,0.6c-0.1,0-0.7-0.2-1.4-0.5c-3.3-1.5-8.1-2.6-14.2-3.2c-3.5-0.4-12.5-0.3-14.7,0.2
	c-6.5,1.2-11.1,3.2-15.4,6.7c-4.8,3.9-7.9,9-9.5,15.7c-0.8,3.4-1.1,5.9-1.1,9.7c0,6.5,1.1,11.7,3.5,16.6c3.2,6.4,9.1,11.6,16,14
	c4.5,1.6,10.3,2.3,15.2,1.9c3.9-0.3,7.6-1.1,8-1.6c0.2-0.3,0-20.5-0.3-20.6c-0.1-0.1-1.9-0.1-4-0.1c-2.1,0-3.8-0.1-3.9-0.1
	c-0.2-0.3-3.6-17.4-3.5-17.5c0.1-0.1,7.6-0.1,16.8-0.1l16.7,0l0.1,3c0,1.7,0,13.6-0.1,26.4l-0.1,23.4l-1.5,0.5
	c-1.9,0.6-9.5,2.5-12.2,3.1c-4.1,0.8-10.1,1.6-15.2,1.9C224.2,129.6,221.3,129.6,217.8,129.3L217.8,129.3z M267.5,128.4
	c0-0.1-0.1-22.3-0.1-49.3l-0.1-49.2l0.8-0.2c2.3-0.6,10.9-1.5,17.6-1.8c5.3-0.3,14.4-0.4,18.3-0.2c15.2,0.8,25.7,5.3,31.1,13.3
	c2.4,3.5,3.7,7.6,4.1,12.7c0.5,5.5-1,11.5-3.9,16.1c-1.6,2.5-4.7,5.6-7.3,7.5c-1.5,1.1-4.7,2.8-5.8,3.2c-0.9,0.3-0.8,0.6,0.6,1.4
	c2.5,1.4,4.9,3.5,6.6,5.9c1.8,2.5,3.6,6.3,4.6,9.9c1.5,5.2,3.7,13.4,4.6,16.6c1.8,6.5,2.6,9.2,3.4,11.6c0.4,1.3,0.8,2.4,0.8,2.4
	c0,0.1-3.8,0.2-11.3,0.2h-11.4l-0.6-1.2c-1.5-3.1-4.4-12.8-6.5-21.9c-1.3-5.4-2.3-8.2-3.9-10.6c-2-3-4.8-4.8-8.5-5.5
	c-1.2-0.2-10.2-0.4-10.4-0.2c-0.2,0.1-0.2,4-0.3,19.8l-0.1,19.7l-11,0C272.5,128.5,267.5,128.4,267.5,128.4L267.5,128.4z
	 M302.9,71.9c4.7-0.9,7.4-2.1,9.6-4.2c1.8-1.7,2.9-3.5,3.6-6.2c0.4-1.7,0.4-5.3-0.1-7.1c-1.2-4.5-4.1-7.5-8.7-9
	c-2.2-0.7-4.2-0.9-8.9-0.9c-3.9,0-7.6,0.2-8.3,0.4c-0.3,0.1-0.3,0.9-0.3,13.7c0,7.5,0.1,13.6,0.1,13.7c0.1,0.1,2.8,0.1,6,0
	C300.1,72.2,302,72.1,302.9,71.9L302.9,71.9z M344.1,128.3c-0.1-0.1,0.1-0.7,0.2-1.3c0.6-2.1,12.4-41.4,18.3-61
	c3.2-10.6,7-23.2,8.4-27.8c1.4-4.7,2.7-8.8,2.8-9.2l0.2-0.8l15,0l15,0l0.3,0.9c0.1,0.5,3.1,10.1,6.6,21.4
	c15.3,49.6,23.9,77.6,23.8,77.8c-0.1,0.1-5.1,0.1-11.9,0.1c-9.3,0-11.8,0-12-0.2c-0.1-0.1-1.9-5.8-4-12.6
	c-2.8-9.1-3.9-12.5-4.1-12.6c-0.2-0.1-5.8-0.2-14.3-0.2c-11.1,0-14.1,0-14.3,0.2c-0.2,0.1-1.3,3.9-3.6,12.4
	c-1.8,6.7-3.4,12.4-3.5,12.6l-0.2,0.4h-11.4C348.3,128.5,344.1,128.4,344.1,128.3L344.1,128.3z M399.6,86.1c0-0.1-1.2-4.6-2.9-10.1
	c-3.5-12-5.8-20.1-7.3-26.2c-0.6-2.5-1.1-4.6-1.2-4.6c-0.1-0.1-0.2,0-0.2,0c-0.1,0.1-1.4,5.6-3.8,16.9c-0.4,1.6-2,7.7-3.7,13.4
	c-1.7,5.8-3,10.5-2.9,10.6C377.6,86.3,399.5,86.3,399.6,86.1L399.6,86.1z M439.2,128.3c-0.1-0.1-0.2-22.7-0.2-50.2l-0.1-50h11.2
	h11.2l0,34.5c0,19-0.1,41.5-0.1,50.1l-0.1,15.6l-10.9,0C441.7,128.5,439.4,128.4,439.2,128.3L439.2,128.3z M475.4,128.3
	c-0.1-0.1-0.2-17.2-0.2-50.1l-0.1-49.9h11.2h11.2v40.4c0,22.2,0,40.5,0,40.6c0,0.2,2.8,0.2,12.6,0.2l12.6,0l-0.1,9.4
	c0,5.1-0.1,9.4-0.1,9.5c0,0.1-10.6,0.1-23.6,0.1C480.4,128.5,475.5,128.4,475.4,128.3L475.4,128.3z M475.4,128.3"/>
<path fill="#4C4C4C" d="M73,330.1c-18.2-1.1-33.5-7.7-46.5-20.1c-5-4.8-10.6-11.8-13.1-16.3c-0.3-0.5-1-1.7-1.5-2.6
	c-2.1-3.4-4.6-9.9-5.9-15c-0.5-2-1.5-6.8-1.8-9c-1.5-10.2-0.8-21.2,2.1-31.1c1.9-6.4,2.4-7.9,4.5-12.1c3.2-6.7,7.6-12.6,13.5-18.7
	c6.8-6.9,12.9-11.5,20.4-15.2c7.3-3.6,14.3-5.7,22.8-6.8c3.2-0.4,12.5-0.6,16.1-0.3c9.5,0.8,18.5,3.3,26.7,7.4
	c7.3,3.7,13.5,8.2,19.5,14.2c5.1,5.1,9,10.2,12.3,15.9c2.5,4.3,5.7,11.8,6.3,14.9c0.2,1,0.5,2.1,0.6,2.6c0.3,0.9,0.8,3.9,1.4,7.8
	c1.1,7.3,0.9,16.7-0.6,25.7c-0.2,1.3-1.5,6.4-2,8.2c-1.2,4-4.8,11.8-6.5,14.1c-0.5,0.6-1.2,1.7-1.6,2.4c-1.4,2.3-2.9,4.5-3.9,5.6
	c-8.1,9.7-15.8,16-25.3,20.8c-5.2,2.6-9.3,4.2-14.7,5.5C88.8,329.7,80,330.6,73,330.1L73,330.1z M81.4,305.3c2.9-0.3,6.3-1.2,7.9-2
	c1.4-0.7,2.7-2.1,2.7-2.9c0-0.1-0.3-0.8-0.7-1.5c-0.7-1.2-1.5-3-3.5-7.2c-0.9-2.1-2.8-7.5-3.3-9.8c-0.3-1.5-0.4-1.9-0.4-5.5
	c0-3.2,0.1-4.1,0.3-5.1c0.4-1.5,1.4-4.1,1.9-4.6c0.2-0.2,0.6-0.7,0.8-1.1c0.8-1.2,2-2.6,3.3-3.7c1-0.9,1.5-1.2,2.6-1.5
	c8.3-2.8,17.5-10.1,22.1-17.6c1.6-2.7,2.5-4.2,2.9-5.4c0.2-0.7,0.6-1.8,0.9-2.5c1.1-2.7,2.3-9.1,2-10.1l-0.1-0.3l-44.1,0l-44.1,0
	l-0.1,0.5c-0.1,0.8,0.4,4.4,0.9,6.6c0.6,2.6,1.3,4.6,2.8,7.6c2.4,4.9,5.4,8.7,9.8,12.7c4.1,3.7,8.9,6.5,14.3,8.6
	c1.9,0.7,2.8,1.3,4.3,2.8c2.2,2.3,3.9,5.3,4.5,8.2c0.3,1.5,0.3,2,0.3,5.3c-0.1,4-0.2,4.8-1.5,8.8c-0.3,1-0.6,2.1-0.7,2.5
	c-0.4,1.4-1.4,3.8-3.5,7.9c-2.1,4.1-2.1,4.2-1.9,4.8c0.7,2.3,5.5,4.1,12.6,4.7C76.2,305.8,78.6,305.7,81.4,305.3L81.4,305.3z
	 M48,291.8c3-0.5,5.2-1.4,5.8-2.6l0.3-0.6l-0.6-1.1c-2.9-5.2-4.3-9.7-4.3-13.9c0-2.5,0.2-3.5,1.3-5.6c1-2,1.5-2.5,3.5-3
	c0.9-0.2,1.9-0.6,2.2-0.8c1.2-0.6,2.3-1.4,2.2-1.6c0-0.1-0.7-0.3-1.4-0.6c-2.3-0.8-3.7-1.3-5.4-2.3c-6.4-3.6-10.5-7.3-14.4-12.8
	c-1.2-1.6-2.2-3.2-2.4-3.6c-0.1-0.3-0.4-0.7-0.5-0.8c-0.4-0.2-16.4-0.2-16.8,0c-0.3,0.2-0.3,0.3-0.2,1.1c0.2,1.8,0.8,4.4,1.2,5.7
	c1.1,2.9,3.3,6.5,5.2,8.3c4.5,4.2,7.3,6.1,10.7,7.1c2.8,0.9,3,1,4.2,3c1,1.7,1.4,2.9,1.5,5.3c0.2,3.7-0.8,7.4-3.4,12.4
	c-0.8,1.7-1.5,3.2-1.5,3.3c0,0.4,0.8,1.2,1.5,1.6C38.8,291.7,44.3,292.3,48,291.8L48,291.8z M113,291.8c3.4-0.5,5.3-1.4,5.8-2.7
	c0.1-0.4,0-0.7-1.2-3.1c-1.9-3.8-3.1-7.6-3.4-11.1c-0.2-1.8,0-4.1,0.5-5.3c0.3-0.8,1.9-3.5,2.3-3.8c0.1-0.1,1-0.4,2-0.7
	c4.1-1.2,7.5-3.5,11.4-7.5c2.3-2.4,4.6-6.2,5.3-8.7c0.2-0.8,0.5-2.1,0.7-2.7c0.4-1.6,0.5-3.1,0-3.4c-0.4-0.2-16.9-0.2-17.3,0
	c-0.2,0.1-0.5,0.5-0.7,1c-0.6,1.1-2.1,3.4-3.3,4.9c-1.5,1.8-6.2,6.4-8,7.8c-3.4,2.5-7.2,4.6-9.8,5.4c-1.9,0.6-2,0.7-1.7,1
	c0.4,0.5,2.5,1.5,4.2,2.2c2.9,1,3,1.1,4,3c1.1,2,1.4,3.3,1.4,5.6c0,3.7-1,7-3.3,11.7c-0.8,1.7-1.5,3.2-1.5,3.4
	c0,0.5,0.7,1.3,1.5,1.8C104.1,291.8,109.1,292.3,113,291.8L113,291.8z M547.7,310.3c-6.5-0.6-11.3-1.5-16.2-3.1l-1.9-0.6l0-10.4
	c0-5.7,0-10.4,0-10.4c0,0,1,0.4,2.2,0.9c5.8,2.5,12.3,4,20.2,4.7c2.3,0.2,4.7,0,7.3-0.5c7-1.4,10.2-4.7,10.2-10.5
	c0-2.7-0.8-4.6-2.9-6.8c-2.7-2.7-6.3-4.7-12.7-6.9c-8.3-2.9-13.8-5.8-18.7-9.8c-6.3-5.2-9.4-11.8-9.5-20.1c0-7.9,2.8-14.5,8.5-20
	c2.6-2.5,5-4.2,8.2-5.7c5.9-2.8,12.6-4.2,20.7-4.2c6.7,0,12.8,0.8,17.9,2.3c3.4,1,7.4,2.8,7.5,3.4c0,0.3-5.2,16.7-5.5,17.2
	c-0.1,0.2-1.1,0.2-4.4,0.2h-4.2l-0.8-0.7c-4.5-4.1-11-5.1-18.1-2.9c-4.3,1.3-6.7,3.6-7.3,6.8c-0.2,1.3-0.2,2,0.1,3.4
	c0.7,3.2,2.7,5.3,7.9,8.1c3,1.6,6.1,3,12.8,5.5c7.4,2.8,13.6,6.7,17.4,11c4.1,4.7,6.2,10,6.5,16.3c0.3,8.5-2.5,15.9-8.3,21.9
	c-2.6,2.7-5,4.5-8.6,6.2c-6.2,3.1-13.8,4.6-23.1,4.7C550.3,310.3,548.1,310.3,547.7,310.3L547.7,310.3z M216.8,309.8
	c-13.9-1.2-24.1-4.9-32-11.5c-1.8-1.5-4.8-4.6-6.3-6.4c-7.3-9.1-10.8-21-10-34.4c0.8-14.2,5.4-25.5,13.8-33.9
	c8.6-8.6,20.6-14,34.2-15.5c0.8-0.1,2.2-0.2,3-0.3c1.9-0.2,7.8-0.2,11.3,0c6.6,0.4,11.9,1.2,16.6,2.4c2.9,0.8,6.1,2.1,6.1,2.5
	c0,0.4-4.6,17.7-4.8,17.8c-0.1,0.1-0.4,0-0.8-0.2c-3-1.5-8.4-2.8-14.2-3.4c-3.4-0.4-9.2-0.5-12.1-0.3c-6,0.5-11.7,2.3-16.1,5.2
	c-7.5,4.9-11.4,11.6-12.9,21.8c-0.3,2.4-0.4,8.2-0.1,10.6c1,7.9,3.8,14,8.6,18.7c4.6,4.5,9.8,7.1,16.7,8.3c4.4,0.7,8.1,0.8,12.9,0.1
	c1.7-0.2,3.8-0.8,4.1-1.1c0.2-0.1,0.2-2.4,0.2-10.4c0-9.2,0-10.3-0.3-10.4c-0.1-0.1-1.9-0.1-4-0.1c-2.1,0-3.8-0.1-3.8-0.1
	c-0.2-0.3-3.6-17.4-3.5-17.5c0-0.1,7.5-0.1,16.7-0.1c12.7,0,16.6,0,16.8,0.2c0.1,0.1,0.2,6.2,0.2,26.4c0,14.4-0.1,26.3-0.1,26.4
	c-0.2,0.3-3.3,1.2-8,2.4c-6.4,1.6-9.3,2.1-15.8,2.8C229.6,309.8,219.8,310,216.8,309.8L216.8,309.8z M267.4,259.5
	c0-27.9,0.1-49.3,0.1-49.4c0.5-0.3,7.7-1.2,12.9-1.6c7.7-0.6,19.3-0.8,25-0.4c9.1,0.6,17.4,2.9,22.6,6.4
	c6.9,4.6,10.3,10.8,11.1,19.7c0.5,5.8-1.2,12-4.5,16.7c-1.2,1.8-4.5,5.1-6.3,6.4c-1.7,1.2-3.9,2.5-5.5,3.2c-0.8,0.3-1.2,0.6-1.2,0.8
	c0,0.1,0.4,0.5,0.9,0.8c1.7,0.9,3.7,2.5,5.1,3.9c3.1,3.2,5.2,7.5,6.9,13.7c0.4,1.4,1.6,5.7,2.6,9.4c1.1,3.8,2.4,8.5,2.9,10.4
	c0.5,1.9,1.4,4.7,1.9,6.1c0.5,1.4,0.9,2.7,1,2.9l0.1,0.4h-11.5h-11.5l-0.6-1.3c-1.6-3.4-4.3-12.7-6.8-23.4c-1.3-5.7-3-9.2-5.7-11.6
	c-2.1-2-4.6-2.9-8.4-3.2c-2.7-0.2-8.1-0.2-8.4,0c-0.2,0.1-0.2,4.3-0.2,19.8l0,19.7l-11.2,0l-11.2,0V259.5L267.4,259.5z M302.1,252.4
	c6.9-1,10.9-3.4,13.1-7.8c1.5-3,1.8-6.4,0.9-9.8c-1-4.2-3.7-7.1-7.8-8.7c-3.1-1.2-6.4-1.5-12.8-1.2c-2.4,0.1-4.6,0.2-5,0.3l-0.6,0.1
	l0,13.7l0,13.7h5.3C299,252.6,300.8,252.6,302.1,252.4L302.1,252.4z M343.8,308.7c0-0.2,30.1-99.5,30.2-99.9l0.2-0.4H389
	c11.7,0,14.8,0,14.9,0.2c0.2,0.3,31.1,99.9,31,100c0,0.1-5.5,0.1-12.1,0.1c-11.3,0-12,0-12.1-0.3c-0.1-0.2-1.8-5.9-3.9-12.7
	l-3.8-12.4l-14.5,0c-8,0-14.5,0-14.6,0.1c-0.1,0.1-1.6,5.7-3.5,12.6c-1.9,6.9-3.4,12.5-3.5,12.6C367,308.8,343.8,308.8,343.8,308.7
	L343.8,308.7z M399.6,266.4c0-0.1-1.3-4.7-2.9-10.2c-4-13.8-7.5-26.4-8.1-30.2c-0.1-0.6-0.3-0.9-0.6-0.7c-0.1,0.1-1.2,5-3.4,15
	c-0.8,3.6-1.8,7.4-4.1,15.4c-1.7,5.8-3,10.6-3,10.7C377.6,266.6,399.5,266.6,399.6,266.4L399.6,266.4z M439.1,308.6
	c0-0.1-0.1-22.7,0-50.1l0-49.9h11.1h11.1v50.1v50.1l-11.1,0C441.5,308.8,439.2,308.8,439.1,308.6L439.1,308.6z M475.2,258.7l0-50.1
	l11.1,0l11.1,0v40.4c0,32,0,40.4,0.2,40.6c0.2,0.2,1.2,0.3,12.7,0.3l12.5,0v9.4v9.4l-23.8,0l-23.8,0L475.2,258.7L475.2,258.7z
	 M545.1,129.7c-1.2-0.1-3.2-0.4-4.5-0.6c-3.5-0.6-10.5-2.4-11-2.8c-0.2-0.1-0.2-2.4-0.2-10.3c0-5.6,0-10.2,0.1-10.2
	c0.1-0.1,0.5,0.1,1,0.4c2.1,1.1,6.2,2.5,9.2,3.3c3.4,0.9,6.6,1.4,11,1.8c2.4,0.2,3.2,0.2,4.9,0.1c6.4-0.6,10.7-2.6,12.5-5.9
	c1.1-2,1.4-5.8,0.7-7.9c-1.2-3.6-5.1-6.9-11.4-9.4c-0.8-0.3-2.7-1-4.2-1.6c-9.4-3.2-15.8-6.9-20.6-11.7c-3.6-3.6-5.7-7.5-6.8-12.5
	c-0.5-2.3-0.6-7.4-0.2-9.9c1-7,4.8-13.3,10.7-17.8c7.5-5.8,18.3-8.5,31.3-7.6c6.3,0.4,12.5,1.6,16.6,3.3c1.8,0.7,4.2,2,4.3,2.2
	c0.1,0.3-5.5,17.4-5.7,17.6c-0.1,0.1-2,0.1-4.2,0.1c-4.3,0-4.4,0-5.2-0.9c-1.2-1.3-4.1-2.9-6.3-3.4c-2.3-0.6-4.1-0.7-6.2-0.5
	c-6.4,0.6-10.4,2.6-12,5.8c-1.6,3.3-0.8,7.4,2.1,10c2.5,2.3,8.5,5.4,15.2,7.9c4,1.5,5.9,2.3,8.6,3.6c9.3,4.7,14.8,10.6,17,18.4
	c1.9,6.5,1.1,14.5-2,20.8c-2.4,4.9-6.5,9.3-11.1,12.2c-4.5,2.8-10.4,4.7-17.8,5.7c-2.7,0.4-3.8,0.4-8.3,0.5
	C548.7,129.9,546.7,129.8,545.1,129.7L545.1,129.7z M217.8,129.3c-5.2-0.4-8.1-0.8-12.6-1.9c-11.5-2.6-19.9-7.7-26.8-16.2
	C169,99.6,166,82.7,170.2,65c1.2-4.9,3.5-10.5,6.3-14.8c4.8-7.4,12.4-13.7,21.3-17.6c7.4-3.3,15.6-5.1,25-5.5
	c6-0.3,16.2,0.7,22.6,2.1c3,0.7,7.8,2.4,8.1,2.9c0.1,0.1-2.1,8.3-4.5,17.5c-0.1,0.3-0.3,0.6-0.4,0.6c-0.1,0-0.7-0.2-1.4-0.5
	c-3.3-1.5-8.1-2.6-14.2-3.2c-3.5-0.4-12.5-0.3-14.7,0.2c-6.5,1.2-11.1,3.2-15.4,6.7c-4.8,3.9-7.9,9-9.5,15.7
	c-0.8,3.4-1.1,5.9-1.1,9.7c0,6.5,1.1,11.7,3.5,16.6c3.2,6.4,9.1,11.6,16,14c4.5,1.6,10.3,2.3,15.2,1.9c3.9-0.3,7.6-1.1,8-1.6
	c0.2-0.3,0-20.5-0.3-20.6c-0.1-0.1-1.9-0.1-4-0.1c-2.1,0-3.8-0.1-3.9-0.1c-0.2-0.3-3.6-17.4-3.5-17.5c0.1-0.1,7.6-0.1,16.8-0.1
	l16.7,0l0.1,3c0,1.7,0,13.6-0.1,26.4l-0.1,23.4l-1.5,0.5c-1.9,0.6-9.5,2.5-12.2,3.1c-4.1,0.8-10.1,1.6-15.2,1.9
	C224.2,129.6,221.3,129.6,217.8,129.3L217.8,129.3z M267.5,128.4c0-0.1-0.1-22.3-0.1-49.3l-0.1-49.2l0.8-0.2
	c2.3-0.6,10.9-1.5,17.6-1.8c5.3-0.3,14.4-0.4,18.3-0.2c15.2,0.8,25.7,5.3,31.1,13.3c2.4,3.5,3.7,7.6,4.1,12.7
	c0.5,5.5-1,11.5-3.9,16.1c-1.6,2.5-4.7,5.6-7.3,7.5c-1.5,1.1-4.7,2.8-5.8,3.2c-0.9,0.3-0.8,0.6,0.6,1.4c2.5,1.4,4.9,3.5,6.6,5.9
	c1.8,2.5,3.6,6.3,4.6,9.9c1.5,5.2,3.7,13.4,4.6,16.6c1.8,6.5,2.6,9.2,3.4,11.6c0.4,1.3,0.8,2.4,0.8,2.4c0,0.1-3.8,0.2-11.3,0.2
	h-11.4l-0.6-1.2c-1.5-3.1-4.4-12.8-6.5-21.9c-1.3-5.4-2.3-8.2-3.9-10.6c-2-3-4.8-4.8-8.5-5.5c-1.2-0.2-10.2-0.4-10.4-0.2
	c-0.2,0.1-0.2,4-0.3,19.8l-0.1,19.7l-11,0C272.5,128.5,267.5,128.4,267.5,128.4L267.5,128.4z M302.9,71.9c4.7-0.9,7.4-2.1,9.6-4.2
	c1.8-1.7,2.9-3.5,3.6-6.2c0.4-1.7,0.4-5.3-0.1-7.1c-1.2-4.5-4.1-7.5-8.7-9c-2.2-0.7-4.2-0.9-8.9-0.9c-3.9,0-7.6,0.2-8.3,0.4
	c-0.3,0.1-0.3,0.9-0.3,13.7c0,7.5,0.1,13.6,0.1,13.7c0.1,0.1,2.8,0.1,6,0C300.1,72.2,302,72.1,302.9,71.9L302.9,71.9z M344.1,128.3
	c-0.1-0.1,0.1-0.7,0.2-1.3c0.6-2.1,12.4-41.4,18.3-61c3.2-10.6,7-23.2,8.4-27.8c1.4-4.7,2.7-8.8,2.8-9.2l0.2-0.8l15,0l15,0l0.3,0.9
	c0.1,0.5,3.1,10.1,6.6,21.4c15.3,49.6,23.9,77.6,23.8,77.8c-0.1,0.1-5.1,0.1-11.9,0.1c-9.3,0-11.8,0-12-0.2c-0.1-0.1-1.9-5.8-4-12.6
	c-2.8-9.1-3.9-12.5-4.1-12.6c-0.2-0.1-5.8-0.2-14.3-0.2c-11.1,0-14.1,0-14.3,0.2c-0.2,0.1-1.3,3.9-3.6,12.4
	c-1.8,6.7-3.4,12.4-3.5,12.6l-0.2,0.4h-11.4C348.3,128.5,344.1,128.4,344.1,128.3L344.1,128.3z M399.6,86.1c0-0.1-1.2-4.6-2.9-10.1
	c-3.5-12-5.8-20.1-7.3-26.2c-0.6-2.5-1.1-4.6-1.2-4.6c-0.1-0.1-0.2,0-0.2,0c-0.1,0.1-1.4,5.6-3.8,16.9c-0.4,1.6-2,7.7-3.7,13.4
	c-1.7,5.8-3,10.5-2.9,10.6C377.6,86.3,399.5,86.3,399.6,86.1L399.6,86.1z M439.2,128.3c-0.1-0.1-0.2-22.7-0.2-50.2l-0.1-50h11.2
	h11.2l0,34.5c0,19-0.1,41.5-0.1,50.1l-0.1,15.6l-10.9,0C441.7,128.5,439.4,128.4,439.2,128.3L439.2,128.3z M475.4,128.3
	c-0.1-0.1-0.2-17.2-0.2-50.1l-0.1-49.9h11.2h11.2v40.4c0,22.2,0,40.5,0,40.6c0,0.2,2.8,0.2,12.6,0.2l12.6,0l-0.1,9.4
	c0,5.1-0.1,9.4-0.1,9.5c0,0.1-10.6,0.1-23.6,0.1C480.4,128.5,475.5,128.4,475.4,128.3L475.4,128.3z M16.8,118
	c-1.3-1.6-2.3-3.2-3.6-5.4c-0.5-0.9-1.3-2.1-1.6-2.7c-0.8-1.2-2.8-5.8-3.7-8.2c-2.8-7.7-4.4-17.7-4.4-26c0.1-7.9,0.9-13.6,3.2-21.3
	c1.8-6.2,3.5-10.1,6-14.5c3.5-6,7-10.5,12.4-15.8c3.3-3.3,5.7-5.4,8.5-7.5C44,8.7,54.8,4.4,68.2,2.7c3.4-0.4,10.3-0.6,14.4-0.3
	c11.7,0.8,22.5,4.1,32.6,10.2c5.3,3.2,9.2,6.3,14,10.9c5.1,4.9,9,9.8,12.3,15.4c2.7,4.5,6.3,12.8,7,16.1c0.2,1,0.5,2.3,0.7,3
	c0.2,0.7,0.5,2.2,0.7,3.4c0.2,1.2,0.5,3.1,0.6,4.1c0.3,2.2,0.7,7.4,0.6,10.6l0,2.1l-0.1-1.9c-0.9-12-5.3-24.4-12.2-34.4
	c-3.3-4.8-4.4-6.1-8.9-10.5c-8.1-8-17.7-13.7-29-17.1c-0.7-0.2-1.2-0.4-1.3-0.4c0,0-0.2-0.1-0.3-0.1c-0.5-0.2-5-1.2-6.8-1.5
	c-2.8-0.5-8.5-1-12.8-1c-11.7-0.2-26,3.8-36.3,10c-3.9,2.4-6.5,4.2-10.9,7.8c-2.4,2-7,6.8-9.3,9.8c-0.6,0.8-1.4,1.8-1.7,2.3
	c-0.8,1-3.3,4.8-4,5.9c-2.2,3.7-4.7,9.4-6.1,13.7c-0.8,2.3-1.8,6.2-2,7c-0.1,0.4-0.2,1.1-0.3,1.6c-0.5,2-1,7.2-1.2,11.1
	c-0.1,2.2-0.1,4.1-0.1,4.2c0,0.1,0.1,1.2,0.1,2.5c0,1.3,0.1,2.3,0.2,2.4c0,0.1,0.1,0.8,0.2,1.6c0.2,3,1.6,9.5,3,13.7
	c1.2,3.8,3.7,9.4,6,13.4c0.4,0.7,0.7,1.3,0.7,1.3C17.8,119.4,17.3,118.8,16.8,118L16.8,118z M16.8,118"/>
<path fill="#313131" d="M72.9,329.9c-4.7-0.3-8.1-0.8-12.3-1.7c-14.4-3.2-26.8-10.4-37.5-22.1c-3.7-4-7.7-9.3-9.5-12.6
	c-0.3-0.6-1-1.8-1.6-2.7c-0.6-0.9-1.3-2.4-1.7-3.3c-0.4-0.9-1-2.3-1.4-3.1c-1.3-2.9-2.7-7.9-3.7-12.8c-2.5-12.4-2.1-24.2,1.2-35.6
	c1.8-6.1,2.7-8.7,4.6-12.5c2.4-4.7,6.1-10.3,9.7-14.4c1.9-2.2,6.5-6.8,8.8-8.8c10.3-9.1,23.1-15,36.6-16.8c1-0.1,2.3-0.3,3-0.4
	c1.9-0.3,11.3-0.4,14-0.2c12.9,1,24.1,4.9,34.8,11.9c9.5,6.3,18.3,15.6,23.8,25.3c2.4,4.1,5.7,11.9,6.3,14.6c0.2,0.7,0.5,2.1,0.7,3
	s0.6,2.7,0.8,3.8c0.2,1.1,0.5,2.9,0.6,3.9c0.8,4.4,0.9,11.4,0.5,17.5c-0.4,5.2-1.7,12-3.1,16.5c-1.4,4.5-4.6,11.4-6.5,14.1
	c-0.6,0.8-1.7,2.6-2.6,4c-3.7,5.8-10.7,13.1-17.5,18.1c-12.7,9.4-26.3,13.9-42.8,14.2C76.4,330,73.9,330,72.9,329.9L72.9,329.9z
	 M80.4,305.7c2.8-0.3,4.4-0.6,6.6-1.3c1.8-0.6,2.4-0.8,3.5-1.6c0.8-0.5,1.6-1.7,1.6-2.4c0-0.2-0.4-1.1-0.9-1.9
	c-0.5-0.8-0.9-1.6-0.9-1.6c0-0.1-0.5-1.1-1.1-2.3c-1.6-3.4-2.1-4.5-3.1-7.6c-1.8-5.3-2.2-7.5-2-11.9c0.1-2,0.2-2.9,0.5-4.1
	c0.7-2.8,2.3-5.4,4.6-7.7c1.8-1.8,2.3-2.2,3.2-2.5c3.7-1.2,8.5-3.7,11.7-6.2c4.8-3.7,7.9-6.8,10.7-11.1c1.9-2.9,2.8-4.5,3.4-6.4
	c0.3-0.9,0.8-2.3,1.1-3.1c0.8-2.2,1.6-6.1,1.6-8l0-1.6l-44.4,0c-42.2,0-44.4,0-44.4,0.2c-0.1,2.2,0.8,7.4,1.8,10.2
	c1.5,4.3,3.9,8.5,6.7,12c1.5,1.8,5.2,5.5,7.2,7c1.7,1.3,4.3,3,6.3,4.1c1.5,0.9,5.4,2.6,6.7,3c1.6,0.5,4.2,2.8,5.6,5
	c1.1,1.6,2,3.9,2.4,5.3c0.7,3.1,0.5,8.6-0.5,11.9c-1.9,6.9-2,7.1-5,12.9c-1.1,2.2-2,4.2-2,4.4c0,0.7,0.9,1.9,2,2.6
	c0.5,0.4,1.2,0.7,1.4,0.7s0.8,0.3,1.4,0.5c2.2,0.9,7,1.6,10.4,1.7C77.4,305.9,79.2,305.8,80.4,305.7L80.4,305.7z M47.1,292.1
	c3.4-0.4,5.2-1,6.3-2.2c1-0.9,1-1.3,0.1-2.9c-2.6-4.5-4.1-9.5-4.1-13.5c0-2.2,0.3-3.6,1.3-5.6c1-2,1.2-2.2,3.4-2.8
	c2.2-0.6,4.6-1.9,4.6-2.4c0-0.3-0.2-0.4-1.4-0.8c-2.4-0.8-4-1.5-6-2.7c-4.4-2.6-6.3-4-9.6-7.3c-1.6-1.6-2.5-2.6-4.2-5
	c-1.2-1.6-2.3-3.3-2.5-3.8l-0.4-0.8l-8.4,0c-4.6,0-8.6,0-8.8,0c-0.3,0.1-0.4,0.2-0.4,0.8c0,1.2,0.6,4.4,1.1,5.9c1,3,3.2,6.5,5.3,8.6
	c4,3.9,7.6,6.3,10.9,7.3c2.8,0.9,3.1,1,4.3,3.2c1,1.8,1.2,2.9,1.3,5.5c0,1.8-0.1,2.5-0.4,4.1c-0.6,2.8-1.2,4.3-2.9,7.6
	c-0.8,1.7-1.5,3.2-1.5,3.4c0,0.6,1.2,1.7,2.3,2.1c1.6,0.6,5,1.2,7.1,1.3C44.9,292.3,46.1,292.2,47.1,292.1L47.1,292.1z M113.4,291.9
	c3.4-0.5,5.8-1.8,5.8-3.2c0-0.2-0.6-1.5-1.3-2.9c-1.7-3.3-2.8-6.6-3.3-9.9c-0.2-1.5-0.1-4.9,0.2-5.9c0.3-0.9,1.9-3.6,2.3-4
	c0.2-0.2,1.1-0.5,2-0.8c3-0.9,5.9-2.6,8.6-4.9c3.2-2.8,4.5-4.3,6.5-7.7c1.2-2,1.3-2.3,2-5.2c0.7-2.8,0.9-4.7,0.4-4.9
	c-0.1-0.1-4.2-0.1-8.9-0.1c-9.8,0-8.8-0.1-9.5,1.3c-0.6,1.1-2.1,3.4-3.4,5c-1.5,1.9-6.1,6.3-7.7,7.5c-3.4,2.4-7.6,4.7-10.2,5.6
	c-1.7,0.6-1.9,0.6-1.8,1c0.2,0.4,2.8,1.8,4.2,2.3c2.9,1,3.4,1.3,4.4,3.3c1.5,3,1.6,6.1,0.3,10.9c-0.6,2.1-0.9,2.9-2.6,6.2
	c-1.1,2.2-1.5,3.1-1.4,3.4C100.7,291.4,107.3,292.9,113.4,291.9L113.4,291.9z M548.7,310.1c-2-0.1-6.2-0.6-7.9-0.9
	c-3.2-0.5-7.8-1.7-10.2-2.5l-0.9-0.3l0-10.1c0-5.6,0-10.1,0.1-10.1c0.1,0,0.8,0.3,1.6,0.7c5.1,2.4,11.6,4,19.4,4.7
	c3.4,0.3,5.7,0.2,8.8-0.5c6.4-1.4,9.3-4.3,9.8-9.5c0.2-2.2,0-3.4-0.8-5.1c-2-4.1-6.3-7-15.1-10c-7.9-2.8-13.3-5.6-18.1-9.4
	c-5.1-4.1-8.3-9.3-9.3-15.3c-1.4-8.1,0.4-15.6,5.2-21.8c1.2-1.6,4-4.3,5.7-5.5c4.4-3.3,10.1-5.6,16.5-6.6c6.3-1,15.1-0.9,21.9,0.3
	c2.1,0.4,5.2,1.1,6.9,1.7c1.6,0.5,5.6,2.4,5.8,2.7c0.1,0.1-1.1,4-2.6,8.7l-2.8,8.6h-4.1h-4.1l-1.1-0.9c-3.3-2.8-8-4.3-12.3-3.9
	c-8.4,0.8-12.9,3.9-13.2,8.9c-0.2,2.7,0.6,5,2.4,6.9c2.2,2.3,7.8,5.4,14.8,8.1c5.5,2.1,7.2,2.8,9.6,4c7.3,3.7,12.2,8.2,15.1,13.7
	c2.2,4.2,3.1,9.3,2.7,14.3c-0.4,4.3-1.3,7.6-3.1,11.2c-1.4,2.8-2.8,4.7-5,7c-4,4.1-8.3,6.7-14.5,8.6
	C564,309.5,555.3,310.5,548.7,310.1L548.7,310.1z M218.8,309.7c-9.3-0.7-15.9-2-21.9-4.5c-5.5-2.2-9.9-5.1-14.1-9
	c-7.9-7.6-12-15.8-13.7-27.4c-0.4-2.8-0.6-9.7-0.3-13.3c0.2-3,0.9-7.3,1.7-10.4c3.4-13.8,12.1-24.4,25.4-31.1
	c3.3-1.7,9.3-3.8,13-4.6c5-1.1,11.2-1.8,15.6-1.8c4.1,0,11.1,0.5,15,1.1c4.2,0.6,8.7,1.7,11.1,2.6c1,0.4,2.4,1.1,2.6,1.2
	c0.1,0-4.6,17.6-4.7,17.7c0,0-0.5-0.1-1-0.3c-3.3-1.5-7.2-2.5-12.8-3.2c-2.3-0.3-3.5-0.4-8.5-0.4c-4.9,0-6,0-7.5,0.3
	c-7.8,1.3-13.6,4.1-18.4,8.9c-3.5,3.5-5.8,7.8-7.2,13.2c-1,4-1.2,5.7-1.2,10.4c0,4.5,0.2,6.3,1,9.7c0.9,3.8,2.3,7,4.3,10
	c1.5,2.3,4.9,5.8,7.2,7.4c3.7,2.6,8.4,4.4,13.9,5.3c4.6,0.7,11.7,0.4,15.3-0.8c1.5-0.5,1.4,0.5,1.4-11c0-9,0-10.2-0.2-10.4
	c-0.2-0.2-0.8-0.2-4.1-0.2H227l-1.7-8.5c-0.9-4.7-1.7-8.6-1.7-8.6c0-0.1,7.5-0.1,16.6-0.1h16.6V278v26.3l-2,0.6
	c-8.1,2.4-15.4,3.8-22.8,4.5C229.2,309.6,220.6,309.8,218.8,309.7L218.8,309.7z M267.5,259.5v-49.2l0.7-0.1c0.4-0.1,1.7-0.2,2.8-0.4
	c8.4-1.2,23.6-1.9,32.8-1.5c13.7,0.7,23.3,4.3,29.2,10.9c3.9,4.5,6.1,11,5.8,18c-0.2,5-1.5,9.2-4.3,13.4c-1.3,1.9-4.7,5.4-6.9,6.9
	c-1.4,1-4.8,2.8-6,3.3c-0.9,0.3-0.7,0.7,0.7,1.5c5.7,3.2,9.4,8.6,11.7,17.2c0.3,1.3,1.3,4.9,2.2,8c0.9,3.1,2.1,7.6,2.7,9.9
	c0.9,3.5,2.9,9.8,3.4,10.9c0.1,0.3-0.5,0.3-11.2,0.3H320l-0.6-1.3c-1.6-3.5-4.7-14.1-6.6-22.4c-0.7-3.2-1.5-5.6-2.6-7.8
	c-2.1-4.4-4.8-6.6-9.3-7.7c-0.8-0.2-2.3-0.3-6-0.3c-4.5-0.1-5-0.1-5.2,0.2c-0.2,0.2-0.3,1.8-0.3,19.9v19.6h-11h-11V259.5
	L267.5,259.5z M302.9,252.5c3.9-0.7,6.8-1.9,9-3.5c3.5-2.7,5.4-7.8,4.7-12.6c-0.8-5.2-3.5-8.7-8.1-10.5c-3-1.2-4.1-1.3-10.2-1.3
	c-5.3,0-8.1,0.2-8.6,0.6c-0.2,0.2-0.2,2.3-0.2,13.8c0,12.5,0,13.6,0.3,13.8c0.2,0.2,0.8,0.3,5.8,0.2
	C300.2,252.8,301.3,252.8,302.9,252.5L302.9,252.5z M344.2,308.2c0.1-0.6,30-99.2,30.1-99.4c0.1-0.1,5.8-0.1,14.7-0.1
	c11.5,0,14.6,0,14.8,0.2c0.1,0.2,30.9,99.4,30.9,99.7c0,0.1-5.3,0.1-11.9,0.1l-11.9,0l-3.8-12.6c-2.3-7.6-3.9-12.7-4.1-12.8
	c-0.1-0.1-5.9-0.2-14.5-0.2c-13.4,0-14.3,0-14.5,0.3c-0.2,0.2-1.6,5.3-3.6,12.8l-3.4,12.5l-11.4,0l-11.4,0L344.2,308.2L344.2,308.2z
	 M399.5,266.8c0.2-0.1,0.4-0.2,0.4-0.4c0-0.1-1.4-5.1-3.1-10.9c-3.5-11.9-5.7-19.8-7.2-26.1c-0.8-3.5-1.1-4.2-1.3-4.3
	c-0.2,0-0.4,0-0.4,0.1c-0.1,0.1-1.4,5.6-3.4,15c-0.8,3.8-1.8,7.3-4.1,15.4c-1.7,5.8-3,10.6-3,10.8c0,0.1,0.1,0.3,0.3,0.3
	C378,266.9,399.1,266.9,399.5,266.8L399.5,266.8z M439.3,308.4c0-0.1-0.1-22.6,0-50l0-49.8l10.9,0l10.9,0v50v50h-10.9
	C441.7,308.6,439.3,308.6,439.3,308.4L439.3,308.4z M475.4,258.7l0-50l10.9,0l10.9,0v40.5c0,33.7,0,40.5,0.2,40.6
	c0.2,0.1,3.8,0.2,12.7,0.2l12.5,0v9.3v9.3l-23.6,0l-23.6,0L475.4,258.7L475.4,258.7z M16.9,118.1c-0.9-1.1-2.4-3.4-3.3-5
	c-0.4-0.7-1.1-1.8-1.6-2.6c-2.3-3.6-5.1-11.1-6.3-16.8c-1.3-6.2-1.8-9.5-2.1-15.5c-0.2-3.3,0.4-10.8,1.1-14.8
	c0.7-3.8,0.8-4.5,2.1-8.8C9,47.1,11,42.5,15,36.4c2.9-4.4,5.8-7.9,10.1-12.2c8-8,15.4-13,25-16.8c5.6-2.3,11.1-3.6,18.1-4.5
	C71.4,2.4,79,2.3,83,2.5c10.9,0.8,20.7,3.7,30.2,9c10.9,6.1,20.9,15.8,27.6,26.5c2.8,4.6,6.7,13.3,7.4,16.6c0.2,0.8,0.5,2.2,0.7,3.1
	c0.5,1.9,1.5,8.2,1.7,10.4c0.2,2.6,0.5,7.9,0.5,9c0,0.7-0.1,0.5-0.2-0.9c-0.9-12-5.3-24.4-12.2-34.4c-3.3-4.8-4.4-6.1-8.9-10.5
	c-8.1-8-17.7-13.7-29-17.1c-0.7-0.2-1.2-0.4-1.3-0.4c0,0-0.2-0.1-0.3-0.1c-0.5-0.2-5-1.2-6.8-1.5c-2.8-0.5-8.5-1-12.8-1
	c-11.7-0.2-26,3.8-36.3,10c-3.9,2.4-6.5,4.2-10.9,7.8c-2.4,2-7,6.8-9.3,9.8c-0.6,0.8-1.4,1.8-1.7,2.3c-0.8,1-3.3,4.8-4,5.9
	c-2.2,3.7-4.7,9.4-6.1,13.7c-0.8,2.3-1.8,6.2-2,7c-0.1,0.4-0.2,1.1-0.3,1.6c-0.5,2-1,7.2-1.2,11.1c-0.1,2.2-0.1,4.1-0.1,4.2
	c0,0.1,0.1,1.2,0.1,2.5c0,1.3,0.1,2.3,0.2,2.4c0,0.1,0.1,0.8,0.2,1.6c0.2,3,1.6,9.5,3,13.7c1.2,3.7,3.7,9.4,5.9,13.2
	c0.4,0.6,0.6,1.2,0.6,1.2C17.7,119,17.3,118.6,16.9,118.1L16.9,118.1z M172,99.4c-1.4-3.1-2.5-7.8-3.1-12.8
	c-0.3-2.6-0.4-9.3-0.1-12.2c0.9-9.4,3.5-17.5,7.9-24.1c1.8-2.8,3.4-4.7,5.7-7c6.2-6.1,13.6-10.5,22.7-13.2c2.7-0.8,4.4-1.2,7.8-1.8
	c4.7-0.8,7.2-1,12.2-1c11.6,0,22.2,1.7,27.4,4.4c0.7,0.4,1,0.6,0.9,0.8c0,0.1-1.1,4.1-2.4,8.8c-1.3,4.7-2.3,8.6-2.4,8.7
	c-0.1,0.1-0.6-0.1-1.4-0.4c-2.6-1.2-7.2-2.4-11.4-2.9c-3.9-0.5-6.1-0.6-11-0.5c-5.2,0.1-6.4,0.2-9.8,1.1
	c-7.5,1.9-14.2,6.4-17.9,12.2c-1,1.6-2.6,5-3.2,6.9c-1.3,4.1-1.8,7.6-1.8,12.5c0,3.8,0.2,5.7,0.8,8.8c0.8,3.8,2.6,8.2,4.5,11.1
	c0.4,0.7,0.8,1.3,0.8,1.3c0,0.1-5.8,0.1-13,0.1h-13L172,99.4L172,99.4z M235.2,94.6c0-4.1-0.1-5.6-0.2-5.8c-0.1-0.1-1.3-0.2-4.1-0.2
	h-3.9l-0.4-1.8c-0.2-1-1-4.9-1.8-8.6c-0.8-3.7-1.4-6.9-1.3-6.9c0.1-0.2,33.1-0.1,33.2,0c0.1,0.1,0,6.6,0,14.5l-0.1,14.3h-10.7h-10.7
	V94.6L235.2,94.6z M267.4,75.3c-0.1-13.7-0.1-29.5-0.1-35.2l0.1-10.3l1.2-0.2c6.8-1.2,18.2-2,28.1-2c8.3,0,12.4,0.3,17.6,1.4
	c12.3,2.5,20.3,8.5,23.3,17.6c1.4,4.1,1.8,9.4,1.1,13.5c-1,5.4-3.2,9.7-6.9,13.5c-2.7,2.8-5.5,4.8-8.6,6.1c-2.5,1.1-2.5,1.2-0.7,2.2
	c5.3,3,8.9,8.1,11.1,15.5c0.2,0.8,0.5,1.7,0.5,2l0.1,0.6H323c-10.9,0-11.2,0-11.2-0.3c-0.2-0.9-1.7-3.9-2.4-5.1
	c-1.1-1.8-3.1-3.6-4.8-4.5c-2.6-1.4-4.5-1.7-10.4-1.7c-3.2,0-4.4,0.1-4.5,0.2c-0.1,0.1-0.2,1.6-0.2,5.8v5.6h-10.9h-10.9L267.4,75.3
	L267.4,75.3z M301.9,72.2c6.8-1,11.2-3.5,13.3-7.8c1-2.1,1.4-3.6,1.4-6.3c0-2.7-0.4-4.4-1.5-6.6c-1-2-3-4.1-4.9-5.1
	c-3.2-1.6-5.8-2.1-11.7-2.1c-4,0-8.1,0.2-8.5,0.5c-0.3,0.1-0.3,0.8-0.3,13.8c0,7.5,0,13.7,0.1,13.8
	C289.9,72.6,300.2,72.5,301.9,72.2L301.9,72.2z M352.8,100c0-0.4,4.7-16.2,13.7-46.2c3.5-11.6,6.6-22,7-23.2
	c0.4-1.2,0.7-2.2,0.8-2.3c0.2-0.2,29.2-0.1,29.5,0c0.3,0.2,19.5,62.8,21.8,70.7l0.3,1.2h-36.5C362.5,100.2,352.8,100.1,352.8,100
	L352.8,100z M399.6,86.5c0.1-0.1,0.3-0.2,0.3-0.3c0-0.1-1.4-5.1-3.2-11c-4.2-14.1-5.9-20.5-7.7-28c-0.4-1.8-0.6-2.2-0.8-2.2
	c-0.2,0-0.3,0.1-0.4,0.3c0,0.2-1.1,4.7-2.3,10c-2.1,9.3-2.3,10.3-5.2,20.2c-1.7,5.7-3,10.5-3,10.7c0,0.1,0.1,0.3,0.2,0.3
	C377.8,86.6,399.3,86.6,399.6,86.5L399.6,86.5z M439.4,99.9c0-0.2-0.1-16.3-0.1-35.8c-0.1-23.9-0.1-35.6,0-35.7
	c0.1-0.2,2.5-0.2,11.1-0.2l10.9,0l0.1,17.8c0,9.8,0,26-0.1,36l-0.1,18.1h-10.9C440,100.2,439.4,100.1,439.4,99.9L439.4,99.9z
	 M475.5,94.5c-0.1-3.1-0.1-19.3-0.2-35.9l-0.1-30.3l0.4-0.1c0.2-0.1,5.2-0.1,11.1,0l10.7,0l0.1,11.1c0,6.1,0,22.3-0.1,36l-0.1,24.8
	h-10.8h-10.8L475.5,94.5L475.5,94.5z M569.6,99.1c-0.3-3.7-3.3-7.1-8.8-9.9c-2.1-1.1-3.8-1.8-7.1-2.9c-9.4-3.3-16.3-7.1-21-11.8
	c-3.3-3.3-5.7-7.7-6.6-12.3c-0.8-3.7-0.8-7.8,0-11.5c1.5-7.6,6.5-14.3,13.8-18.5c3.4-2,7.6-3.5,12.3-4.4c3-0.6,5.3-0.8,9-0.9
	c8.1-0.2,15.6,0.8,21.7,2.9c1.8,0.6,5.2,2.3,5.4,2.6c0.1,0.2-5.4,17.2-5.6,17.4c-0.1,0.1-2,0.1-4.2,0.1l-4.1,0l-1-0.9
	c-2.6-2.2-5-3.3-8.8-3.9c-1.6-0.2-2.1-0.2-3.7-0.1c-6.9,0.7-11.2,2.9-12.6,6.5c-0.4,1.1-0.6,3.5-0.3,4.9c0.5,2.4,2,4.5,5,6.4
	c2.9,1.9,9.3,4.9,14.7,6.9C580.1,74,588.1,81,591,89.7c0.9,2.6,1.2,4.4,1.3,7.6l0.1,2.9H581h-11.4L569.6,99.1L569.6,99.1z
	 M569.6,99.1"/>
<path fill="#0D0D0D" d="M3.7,77.4c0-2.4,0.3-8.1,0.6-10.2c0.6-5.3,1.9-10.6,3.9-16.8c2.3-6.9,6.9-14.8,12.5-21.4
	c1.9-2.2,6.9-7.2,9.3-9.3c7.2-6.2,14.8-10.5,23.6-13.5C58.4,4.5,63,3.6,70,2.7c0.7-0.1,4.3-0.1,8.1-0.1c7,0.1,7.4,0.1,12.2,0.9
	c9.9,1.7,19.1,5.4,27.8,11.2c7.6,5.1,15.5,12.9,20.3,20.1c1.4,2,1.2,1.9-1.4-1.3c-3.3-4.1-7.5-8.1-12.6-12c-2.4-1.8-2.9-2.1-6-4.1
	c-3.2-2-8.4-4.5-11.9-5.8c-2.2-0.8-5.6-2-5.9-2c-0.1,0-1.1-0.3-2.2-0.6c-3-0.9-6.1-1.5-9.9-1.9c-3.1-0.4-10.1-0.8-10.4-0.7
	c-0.1,0-1.5,0.1-3.1,0.2c-4.7,0.3-7,0.6-11,1.5c-9,2-15.8,4.7-23.4,9.1c-6.7,3.9-12.6,8.8-18,14.9c-3.1,3.4-7,9-9.1,12.8
	c-3,5.5-5.9,12.5-7.1,17.7c-0.2,0.8-0.5,2.1-0.7,2.7c-0.7,2.7-1.5,8-1.6,11C3.9,79.1,3.7,79.8,3.7,77.4L3.7,77.4z M170.4,65.8
	c0-0.6,1-4.2,1.8-6.2c1.7-4.6,4.3-9.2,7.1-12.8c1.6-2,4.8-5.2,7-6.9c1.9-1.5,4.9-3.6,7-4.8c8.7-4.9,19.8-7.6,31.3-7.6
	c10.1,0,19.5,1.3,25.5,3.4c1.8,0.7,3.1,1.3,3.1,1.6c0,0.3-4.6,17.4-4.7,17.5c0,0-0.7-0.2-1.4-0.5c-3.4-1.4-7.1-2.3-12.4-3
	c-3.4-0.4-10.5-0.6-13.6-0.3c-12.9,1.1-22.6,7.9-26.9,18.7l-0.5,1.3h-11.7C171.1,66.1,170.4,66.1,170.4,65.8L170.4,65.8z
	 M267.5,48.1c0-9.9,0-18,0-18.1c0.4-0.4,9.2-1.5,16-1.9c6.8-0.4,21.3-0.4,24.7,0c10.2,1.3,16.6,3.6,21.8,7.7
	c2.6,2.1,4.9,4.9,6.2,7.7c0.8,1.8,1.8,4.8,2.2,6.9c0.5,2.8,0.5,7.5,0,10c-0.4,1.8-1.1,4.3-1.6,5.2l-0.2,0.4h-11c-6,0-11,0-11-0.1
	c0,0,0.2-0.5,0.4-0.9c1.4-2.8,2-6.3,1.4-9.4c-0.5-3.1-1.8-5.6-3.9-7.5c-1.3-1.3-2.7-2-4.7-2.8c-2.7-1-4-1.1-9.9-1.1
	c-5.6,0-8.1,0.2-8.4,0.7c-0.2,0.2-0.2,2.6-0.2,10.7v10.4h-10.9h-10.9L267.5,48.1L267.5,48.1z M363.4,64.9c0.6-2.3,8.7-29.5,10.4-35
	l0.5-1.6l14.8,0l14.8,0l3.7,12.2c3.3,10.8,6.8,22.2,7.5,24.7l0.2,0.8h-10.6h-10.6l-0.2-0.4c-0.4-1.2-3.2-11-4.1-15.1
	c-1.5-6-1.4-5.8-1.8-5.8c-0.2,0-0.3,0.1-0.4,0.1c-0.1,0.1-1.8,7.7-3.5,15.4c-0.4,1.8-0.9,3.8-1.1,4.5l-0.3,1.2H373h-9.9L363.4,64.9
	L363.4,64.9z M439.3,56c-0.1-5.6-0.1-14.1-0.1-18.9v-8.8h11c7.4,0,11,0.1,11.1,0.2c0.1,0.1,0.1,8.6,0,18.9l-0.1,18.7h-10.8h-10.8
	L439.3,56L439.3,56z M475.5,61c-0.1-2.8-0.1-11.3-0.1-18.9V28.3h11c6,0,11,0.1,11,0.1c0,0.1,0,8.6,0,18.9l-0.1,18.8h-10.8h-10.8
	L475.5,61L475.5,61z M527.4,65.8c-0.7-1.4-1.4-4.4-1.6-7.3c-0.6-7.3,1.7-14.4,6.5-20c7.2-8.2,19.3-12.4,34.2-11.6
	c8.5,0.5,15,1.9,20.1,4.5c1,0.5,1.6,0.9,1.6,1.1c0,0.1-1.2,4.1-2.7,8.7l-2.7,8.4h-4.1h-4.1l-1.2-1c-3.3-2.8-7.1-4-11.7-3.8
	c-5.6,0.3-10.3,2-12.3,4.8c-1,1.3-1.4,2.5-1.5,4.2c-0.1,1.8,0.1,3.1,0.9,4.6c1.1,2.3,3.4,4.2,8.3,6.8l1.5,0.8l-15.4,0
	C528.4,66.1,527.5,66.1,527.4,65.8L527.4,65.8z M527.4,65.8"/>
</svg>
