<?xml version="1.0" encoding="utf-8"?>
<!-- Generator: Adobe Illustrator 17.1.0, SVG Export Plug-In . SVG Version: 6.00 Build 0)  -->
<!DOCTYPE svg PUBLIC "-//W3C//DTD SVG 1.1//EN" "http://www.w3.org/Graphics/SVG/1.1/DTD/svg11.dtd">
<svg version="1.1" id="Layer_1" xmlns="http://www.w3.org/2000/svg" xmlns:xlink="http://www.w3.org/1999/xlink" x="0px" y="0px"
	 viewBox="0 0 233 137" enable-background="new 0 0 233 137" xml:space="preserve">
<polygon points="183.3,124.8 116.1,98.5 49,124.8 75.5,82.9 7.5,57.2 91,57.6 116.1,15.5 141.3,57.6 224.8,57.3 156.8,82.9 
	183.3,124.8 "/>
<polygon fill="#569BBE" points="174.2,117.3 116.2,94.6 58.2,117.3 81.1,81.1 22.3,58.9 94.5,59.3 116.2,22.9 137.9,59.3 210.1,59 
	151.3,81.1 174.2,117.3 "/>
<path d="M71.7,37c5.8,0,2.4,14.6,0.4,19c-1.8,3.8-5.7,9.2-10.4,9.2c-5.6,0-5.5-6.4-3.2-11.2c1.2-2.6,3.1-5.5,5.7-7.7
	c-0.7,2.2,1.6,3.8,0.7,5.7c-0.6,1.3-1.9,2.8-2.6,4.2c-1.1,2.3-0.7,6.4,1.9,6.4c2.3,0,4.4-2.9,5.2-4.7c1.7-3.7,6.1-19.5,1.2-19.5
	c-5.6,0-15.2,13.7-17.2,18c-3.6,7.7-1,17.1,7.2,17.1c5.5,0,10.1-5.4,12.3-10.1c1.3-2.8,2-5.6,2.3-8.2l1.1-0.2
	c0.2,7.2,7.8,19.2,4.6,26.1C76.6,90,64.3,89.9,57.3,93c-1.5-3.5-3.5-6.7-6.3-9.2c6.3-2.1,21.7-5.7,25-12.9c1.4-3,0.4-8-1.2-9.7
	c-0.3,1.1-0.7,2.2-1.2,3.2c-2.9,6.1-9,10.9-15.3,10.9c-8.8,0-12.6-6.4-8.4-15.3C52.4,54.8,65.1,37,71.7,37L71.7,37z"/>
<path fill="none" stroke="#000000" stroke-width="9.7534" stroke-linejoin="round" stroke-miterlimit="3.8637" d="M71.7,37
	c5.8,0,2.4,14.6,0.4,19c-1.8,3.8-5.7,9.2-10.4,9.2c-5.6,0-5.5-6.4-3.2-11.2c1.2-2.6,3.1-5.5,5.7-7.7c-0.7,2.2,1.6,3.8,0.7,5.7
	c-0.6,1.3-1.9,2.8-2.6,4.2c-1.1,2.3-0.7,6.4,1.9,6.4c2.3,0,4.4-2.9,5.2-4.7c1.7-3.7,6.1-19.5,1.2-19.5c-5.6,0-15.2,13.7-17.2,18
	c-3.6,7.7-1,17.1,7.2,17.1c5.5,0,10.1-5.4,12.3-10.1c1.3-2.8,2-5.6,2.3-8.2l1.1-0.2c0.2,7.2,7.8,19.2,4.6,26.1
	C76.6,90,64.3,89.9,57.3,93c-1.5-3.5-3.5-6.7-6.3-9.2c6.3-2.1,21.7-5.7,25-12.9c1.4-3,0.4-8-1.2-9.7c-0.3,1.1-0.7,2.2-1.2,3.2
	c-2.9,6.1-9,10.9-15.3,10.9c-8.8,0-12.6-6.4-8.4-15.3C52.4,54.8,65.1,37,71.7,37L71.7,37z"/>
<path d="M86.7,58.2c0.4,0.9,1.4,5.8,2.1,5.8c1.7,0,4.7-4.6,5.5-5.8c1.5,1,0.7,3,3.4,3c1.2,0,1.9-2.7,3.2-2.7c0,1.1,0.1,2.1-0.5,3.3
	c-0.9,1.9-3.2,4.6-5.5,4.6c-1.6,0-3.9-2-4.3-2c-0.5,0-1.4,0.2-1.6,0.8c-1.2,2.5,2,10.9,5.1,10.9c1.7,0,3.7-1.2,5.5-2
	c-0.5,3-0.5,5.6,0.1,8.2c-1.6,1-3.5,1.5-5,1.5c-7.7,0-3.5-18.2-10.6-22.1L86.7,58.2L86.7,58.2z"/>
<path fill="none" stroke="#000000" stroke-width="9.7534" stroke-linejoin="round" stroke-miterlimit="3.8637" d="M86.7,58.2
	c0.4,0.9,1.4,5.8,2.1,5.8c1.7,0,4.7-4.6,5.5-5.8c1.5,1,0.7,3,3.4,3c1.2,0,1.9-2.7,3.2-2.7c0,1.1,0.1,2.1-0.5,3.3
	c-0.9,1.9-3.2,4.6-5.5,4.6c-1.6,0-3.9-2-4.3-2c-0.5,0-1.4,0.2-1.6,0.8c-1.2,2.5,2,10.9,5.1,10.9c1.7,0,3.7-1.2,5.5-2
	c-0.5,3-0.5,5.6,0.1,8.2c-1.6,1-3.5,1.5-5,1.5c-7.7,0-3.5-18.2-10.6-22.1L86.7,58.2L86.7,58.2z"/>
<path d="M116.5,56.7c5.9,0,8.2,10.6,5.5,16.2c-2,4.4-5.6,7.5-10.3,7.5c-8.2,0-7.1-11.2-4-18.1c0.9-1.9,3.9-6,6.2-6
	C114.9,56.5,115.6,56.7,116.5,56.7L116.5,56.7z M116.3,57.7c-0.9,0-1.7,0.5-2.2,1.4c-0.9,1.9,3.6,3.9,2.9,5.2
	c-0.4,0.9-1.9,1.7-2.7,1.7c-3.9,0-3.8-5.1-1.5-8.4c-1.4,0.9-2.4,2.3-3,3.6c-2.3,4.9-0.5,11.5,4.7,11.5c2.9,0,6.2-2.6,7.4-5.3
	C123.6,64.1,119.6,57.7,116.3,57.7L116.3,57.7z"/>
<path fill="none" stroke="#000000" stroke-width="9.7534" stroke-linejoin="round" stroke-miterlimit="3.8637" d="M116.5,56.7
	c5.9,0,8.2,10.6,5.5,16.2c-2,4.4-5.6,7.5-10.3,7.5c-8.2,0-7.1-11.2-4-18.1c0.9-1.9,3.9-6,6.2-6C114.9,56.5,115.6,56.7,116.5,56.7
	L116.5,56.7z M116.3,57.7c-0.9,0-1.7,0.5-2.2,1.4c-0.9,1.9,3.6,3.9,2.9,5.2c-0.4,0.9-1.9,1.7-2.7,1.7c-3.9,0-3.8-5.1-1.5-8.4
	c-1.4,0.9-2.4,2.3-3,3.6c-2.3,4.9-0.5,11.5,4.7,11.5c2.9,0,6.2-2.6,7.4-5.3C123.6,64.1,119.6,57.7,116.3,57.7L116.3,57.7z"/>
<path d="M143.1,74.2c-1.5,3.3-4.4,5.1-7.6,5.1c-10.2,0-12.2-9.4-7.8-18.8c1-2.2,2.8-4.7,5.4-4.7C141.3,55.8,147,66,143.1,74.2
	L143.1,74.2z M135,57c-0.8,0-1.4,0.3-1.8,1c-0.8,1.7,3.5,3.2,3.5,5c-0.5,0.5-1.7,1.1-2.3,1.1c-3.1,0-5.4-4.2-2.8-7.4
	c-1.1,0.7-1.7,1.7-2.2,2.7c-2.7,5.7,1.1,11.6,6.7,11.6c2.3,0,5.3-1.3,6.5-3.9C144.5,63.4,138.4,57,135,57L135,57z"/>
<path fill="none" stroke="#000000" stroke-width="9.7534" stroke-linejoin="round" stroke-miterlimit="3.8637" d="M143.1,74.2
	c-1.5,3.3-4.4,5.1-7.6,5.1c-10.2,0-12.2-9.4-7.8-18.8c1-2.2,2.8-4.7,5.4-4.7C141.3,55.8,147,66,143.1,74.2L143.1,74.2z M135,57
	c-0.8,0-1.4,0.3-1.8,1c-0.8,1.7,3.5,3.2,3.5,5c-0.5,0.5-1.7,1.1-2.3,1.1c-3.1,0-5.4-4.2-2.8-7.4c-1.1,0.7-1.7,1.7-2.2,2.7
	c-2.7,5.7,1.1,11.6,6.7,11.6c2.3,0,5.3-1.3,6.5-3.9C144.5,63.4,138.4,57,135,57L135,57z"/>
<path d="M153.6,56.9c8.8,0,13.2,16.3,9.3,24.6c-0.8,1.6-2.1,3.2-4,3.2c-10,0-7.5-20.1-13.1-25.8c0.5-0.6,1-1.1,1.5-1.7
	c3.8,4.5,1.9,16.4,10.1,16.4c1.9,0,3.3-1.7,4.1-3.3c2-4.3-1.7-11.8-5.8-11.8c0,0-0.6,0-0.6,0.3c0.2,2.8,2.3,1,0.1,5.7
	c-2.2-0.4-4.6-4-3.3-6.6C152.1,57.1,153,56.9,153.6,56.9L153.6,56.9z"/>
<path fill="none" stroke="#000000" stroke-width="9.7534" stroke-linejoin="round" stroke-miterlimit="3.8637" d="M153.6,56.9
	c8.8,0,13.2,16.3,9.3,24.6c-0.8,1.6-2.1,3.2-4,3.2c-10,0-7.5-20.1-13.1-25.8c0.5-0.6,1-1.1,1.5-1.7c3.8,4.5,1.9,16.4,10.1,16.4
	c1.9,0,3.3-1.7,4.1-3.3c2-4.3-1.7-11.8-5.8-11.8c0,0-0.6,0-0.6,0.3c0.2,2.8,2.3,1,0.1,5.7c-2.2-0.4-4.6-4-3.3-6.6
	C152.1,57.1,153,56.9,153.6,56.9L153.6,56.9z"/>
<path d="M175.4,56.7c0.8,0.1,2.1,0,2.8,0.2c0.1,0,0,0.2,0.1,0.3c0.2,1.2,0.6,2.4,0.8,3.6c1.1,4.6,1.8,9.4,3.1,14
	c1.4,5,2.9,10.6,1.2,16.9c-0.2,0.6-0.4,1.2-0.7,1.9c-2,4.2-18.8,9-23.2,9c-0.5,0-1.1-0.2-1.4-0.5c1.9-1.2,3-2.4,3.9-4.2
	c1-2.1,1-4.1,0.8-6c0.4,0.2,13.3-0.1,13.8-0.1c1.9,0,3.5-1.9,4.3-3.5c1.4-3,1.2-6.1,0.9-8.6c-0.1-1.3-0.3-2.5-0.5-3.8l-0.4-1.8
	l0-0.2l0-0.2c0.2,0,0,0.4,0,0.6c0.1,3.1,0.1,7.4-1.6,10.9c-0.8,1.6-2,3.3-3.9,3.3c-8.4,0-4.2-24.1-10.9-29.9c0.4-0.6,0.7-1.3,1-1.9
	c4,4.9,4.2,18.3,10.1,18.3c1.4,0,2.9-1.4,3.5-2.6C181.7,66.9,177.3,60.4,175.4,56.7L175.4,56.7z"/>
<path fill="none" stroke="#000000" stroke-width="9.7534" stroke-linejoin="round" stroke-miterlimit="3.8637" d="M175.4,56.7
	c0.8,0.1,2.1,0,2.8,0.2c0.1,0,0,0.2,0.1,0.3c0.2,1.2,0.6,2.4,0.8,3.6c1.1,4.6,1.8,9.4,3.1,14c1.4,5,2.9,10.6,1.2,16.9
	c-0.2,0.6-0.4,1.2-0.7,1.9c-2,4.2-18.8,9-23.2,9c-0.5,0-1.1-0.2-1.4-0.5c1.9-1.2,3-2.4,3.9-4.2c1-2.1,1-4.1,0.8-6
	c0.4,0.2,13.3-0.1,13.8-0.1c1.9,0,3.5-1.9,4.3-3.5c1.4-3,1.2-6.1,0.9-8.6c-0.1-1.3-0.3-2.5-0.5-3.8l-0.4-1.8l0-0.2l0-0.2
	c0.2,0,0,0.4,0,0.6c0.1,3.1,0.1,7.4-1.6,10.9c-0.8,1.6-2,3.3-3.9,3.3c-8.4,0-4.2-24.1-10.9-29.9c0.4-0.6,0.7-1.3,1-1.9
	c4,4.9,4.2,18.3,10.1,18.3c1.4,0,2.9-1.4,3.5-2.6C181.7,66.9,177.3,60.4,175.4,56.7L175.4,56.7z"/>
<path d="M71.7,37c5.8,0,2.4,14.6,0.4,19c-1.8,3.8-5.7,9.2-10.4,9.2c-5.6,0-5.5-6.4-3.2-11.2c1.2-2.6,3.1-5.5,5.7-7.7
	c-0.7,2.2,1.6,3.8,0.7,5.7c-0.6,1.3-1.9,2.8-2.6,4.2c-1.1,2.3-0.7,6.4,1.9,6.4c2.3,0,4.4-2.9,5.2-4.7c1.7-3.7,6.1-19.5,1.2-19.5
	c-5.6,0-15.2,13.7-17.2,18c-3.6,7.7-1,17.1,7.2,17.1c5.5,0,10.1-5.4,12.3-10.1c1.3-2.8,2-5.6,2.3-8.2l1.1-0.2
	c0.2,7.2,7.8,19.2,4.6,26.1C76.6,90,64.3,89.9,57.3,93c-1.5-3.5-3.5-6.7-6.3-9.2c6.3-2.1,21.7-5.7,25-12.9c1.4-3,0.4-8-1.2-9.7
	c-0.3,1.1-0.7,2.2-1.2,3.2c-2.9,6.1-9,10.9-15.3,10.9c-8.8,0-12.6-6.4-8.4-15.3C52.4,54.8,65.1,37,71.7,37L71.7,37z"/>
<path fill="none" stroke="#000000" stroke-width="0.8128" stroke-miterlimit="3.8637" d="M71.7,37c5.8,0,2.4,14.6,0.4,19
	c-1.8,3.8-5.7,9.2-10.4,9.2c-5.6,0-5.5-6.4-3.2-11.2c1.2-2.6,3.1-5.5,5.7-7.7c-0.7,2.2,1.6,3.8,0.7,5.7c-0.6,1.3-1.9,2.8-2.6,4.2
	c-1.1,2.3-0.7,6.4,1.9,6.4c2.3,0,4.4-2.9,5.2-4.7c1.7-3.7,6.1-19.5,1.2-19.5c-5.6,0-15.2,13.7-17.2,18c-3.6,7.7-1,17.1,7.2,17.1
	c5.5,0,10.1-5.4,12.3-10.1c1.3-2.8,2-5.6,2.3-8.2l1.1-0.2c0.2,7.2,7.8,19.2,4.6,26.1C76.6,90,64.3,89.9,57.3,93
	c-1.5-3.5-3.5-6.7-6.3-9.2c6.3-2.1,21.7-5.7,25-12.9c1.4-3,0.4-8-1.2-9.7c-0.3,1.1-0.7,2.2-1.2,3.2c-2.9,6.1-9,10.9-15.3,10.9
	c-8.8,0-12.6-6.4-8.4-15.3C52.4,54.8,65.1,37,71.7,37L71.7,37z"/>
<path d="M86.7,58.2c0.4,0.9,1.4,5.8,2.1,5.8c1.7,0,4.7-4.6,5.5-5.8c1.5,1,0.7,3,3.4,3c1.2,0,1.9-2.7,3.2-2.7c0,1.1,0.1,2.1-0.5,3.3
	c-0.9,1.9-3.2,4.6-5.5,4.6c-1.6,0-3.9-2-4.3-2c-0.5,0-1.4,0.2-1.6,0.8c-1.2,2.5,2,10.9,5.1,10.9c1.7,0,3.7-1.2,5.5-2
	c-0.5,3-0.5,5.6,0.1,8.2c-1.6,1-3.5,1.5-5,1.5c-7.7,0-3.5-18.2-10.6-22.1L86.7,58.2L86.7,58.2z"/>
<path fill="none" stroke="#000000" stroke-width="0.8128" stroke-miterlimit="3.8637" d="M86.7,58.2c0.4,0.9,1.4,5.8,2.1,5.8
	c1.7,0,4.7-4.6,5.5-5.8c1.5,1,0.7,3,3.4,3c1.2,0,1.9-2.7,3.2-2.7c0,1.1,0.1,2.1-0.5,3.3c-0.9,1.9-3.2,4.6-5.5,4.6
	c-1.6,0-3.9-2-4.3-2c-0.5,0-1.4,0.2-1.6,0.8c-1.2,2.5,2,10.9,5.1,10.9c1.7,0,3.7-1.2,5.5-2c-0.5,3-0.5,5.6,0.1,8.2
	c-1.6,1-3.5,1.5-5,1.5c-7.7,0-3.5-18.2-10.6-22.1L86.7,58.2L86.7,58.2z"/>
<path d="M116.5,56.7c5.9,0,8.2,10.6,5.5,16.2c-2,4.4-5.6,7.5-10.3,7.5c-8.2,0-7.1-11.2-4-18.1c0.9-1.9,3.9-6,6.2-6
	C114.9,56.5,115.6,56.7,116.5,56.7L116.5,56.7z M116.3,57.7c-0.9,0-1.7,0.5-2.2,1.4c-0.9,1.9,3.6,3.9,2.9,5.2
	c-0.4,0.9-1.9,1.7-2.7,1.7c-3.9,0-3.8-5.1-1.5-8.4c-1.4,0.9-2.4,2.3-3,3.6c-2.3,4.9-0.5,11.5,4.7,11.5c2.9,0,6.2-2.6,7.4-5.3
	C123.6,64.1,119.6,57.7,116.3,57.7L116.3,57.7z"/>
<path fill="none" stroke="#000000" stroke-width="0.8128" stroke-miterlimit="3.8637" d="M116.5,56.7c5.9,0,8.2,10.6,5.5,16.2
	c-2,4.4-5.6,7.5-10.3,7.5c-8.2,0-7.1-11.2-4-18.1c0.9-1.9,3.9-6,6.2-6C114.9,56.5,115.6,56.7,116.5,56.7L116.5,56.7z M116.3,57.7
	c-0.9,0-1.7,0.5-2.2,1.4c-0.9,1.9,3.6,3.9,2.9,5.2c-0.4,0.9-1.9,1.7-2.7,1.7c-3.9,0-3.8-5.1-1.5-8.4c-1.4,0.9-2.4,2.3-3,3.6
	c-2.3,4.9-0.5,11.5,4.7,11.5c2.9,0,6.2-2.6,7.4-5.3C123.6,64.1,119.6,57.7,116.3,57.7L116.3,57.7z"/>
<path d="M143.1,74.2c-1.5,3.3-4.4,5.1-7.6,5.1c-10.2,0-12.2-9.4-7.8-18.8c1-2.2,2.8-4.7,5.4-4.7C141.3,55.8,147,66,143.1,74.2
	L143.1,74.2z M135,57c-0.8,0-1.4,0.3-1.8,1c-0.8,1.7,3.5,3.2,3.5,5c-0.5,0.5-1.7,1.1-2.3,1.1c-3.1,0-5.4-4.2-2.8-7.4
	c-1.1,0.7-1.7,1.7-2.2,2.7c-2.7,5.7,1.1,11.6,6.7,11.6c2.3,0,5.3-1.3,6.5-3.9C144.5,63.4,138.4,57,135,57L135,57z"/>
<path fill="none" stroke="#000000" stroke-width="0.8128" stroke-miterlimit="3.8637" d="M143.1,74.2c-1.5,3.3-4.4,5.1-7.6,5.1
	c-10.2,0-12.2-9.4-7.8-18.8c1-2.2,2.8-4.7,5.4-4.7C141.3,55.8,147,66,143.1,74.2L143.1,74.2z M135,57c-0.8,0-1.4,0.3-1.8,1
	c-0.8,1.7,3.5,3.2,3.5,5c-0.5,0.5-1.7,1.1-2.3,1.1c-3.1,0-5.4-4.2-2.8-7.4c-1.1,0.7-1.7,1.7-2.2,2.7c-2.7,5.7,1.1,11.6,6.7,11.6
	c2.3,0,5.3-1.3,6.5-3.9C144.5,63.4,138.4,57,135,57L135,57z"/>
<path d="M153.6,56.9c8.8,0,13.2,16.3,9.3,24.6c-0.8,1.6-2.1,3.2-4,3.2c-10,0-7.5-20.1-13.1-25.8c0.5-0.6,1-1.1,1.5-1.7
	c3.8,4.5,1.9,16.4,10.1,16.4c1.9,0,3.3-1.7,4.1-3.3c2-4.3-1.7-11.8-5.8-11.8c0,0-0.6,0-0.6,0.3c0.2,2.8,2.3,1,0.1,5.7
	c-2.2-0.4-4.6-4-3.3-6.6C152.1,57.1,153,56.9,153.6,56.9L153.6,56.9z"/>
<path fill="none" stroke="#000000" stroke-width="0.8128" stroke-miterlimit="3.8637" d="M153.6,56.9c8.8,0,13.2,16.3,9.3,24.6
	c-0.8,1.6-2.1,3.2-4,3.2c-10,0-7.5-20.1-13.1-25.8c0.5-0.6,1-1.1,1.5-1.7c3.8,4.5,1.9,16.4,10.1,16.4c1.9,0,3.3-1.7,4.1-3.3
	c2-4.3-1.7-11.8-5.8-11.8c0,0-0.6,0-0.6,0.3c0.2,2.8,2.3,1,0.1,5.7c-2.2-0.4-4.6-4-3.3-6.6C152.1,57.1,153,56.9,153.6,56.9
	L153.6,56.9z"/>
<path d="M175.4,56.7c0.8,0.1,2.1,0,2.8,0.2c0.1,0,0,0.2,0.1,0.3c0.2,1.2,0.6,2.4,0.8,3.6c1.1,4.6,1.8,9.4,3.1,14
	c1.4,5,2.9,10.6,1.2,16.9c-0.2,0.6-0.4,1.2-0.7,1.9c-2,4.2-7,8.2-11.4,8.2c-0.5,0-1.1-0.2-1.4-0.5c1.9-1.2,3-2.4,3.9-4.2
	c1-2.1,1-4.1,0.8-6c0.4,0.2,1.5,0.7,2,0.7c1.9,0,3.5-1.9,4.3-3.5c1.4-3,1.2-6.1,0.9-8.6c-0.1-1.3-0.3-2.5-0.5-3.8l-0.4-1.8l0-0.2
	l0-0.2c0.2,0,0,0.4,0,0.6c0.1,3.1,0.1,7.4-1.6,10.9c-0.8,1.6-2,3.3-3.9,3.3c-8.4,0-4.2-24.1-10.9-29.9c0.4-0.6,0.7-1.3,1-1.9
	c4,4.9,4.2,18.3,10.1,18.3c1.4,0,2.9-1.4,3.5-2.6C181.7,66.9,177.3,60.4,175.4,56.7L175.4,56.7z"/>
<path fill="none" stroke="#000000" stroke-width="0.8128" stroke-miterlimit="3.8637" d="M175.4,56.7c0.8,0.1,2.1,0,2.8,0.2
	c0.1,0,0,0.2,0.1,0.3c0.2,1.2,0.6,2.4,0.8,3.6c1.1,4.6,1.8,9.4,3.1,14c1.4,5,2.9,10.6,1.2,16.9c-0.2,0.6-0.4,1.2-0.7,1.9
	c-2,4.2-7,8.2-11.4,8.2c-0.5,0-1.1-0.2-1.4-0.5c1.9-1.2,3-2.4,3.9-4.2c1-2.1,1-4.1,0.8-6c0.4,0.2,1.5,0.7,2,0.7
	c1.9,0,3.5-1.9,4.3-3.5c1.4-3,1.2-6.1,0.9-8.6c-0.1-1.3-0.3-2.5-0.5-3.8l-0.4-1.8l0-0.2l0-0.2c0.2,0,0,0.4,0,0.6
	c0.1,3.1,0.1,7.4-1.6,10.9c-0.8,1.6-2,3.3-3.9,3.3c-8.4,0-4.2-24.1-10.9-29.9c0.4-0.6,0.7-1.3,1-1.9c4,4.9,4.2,18.3,10.1,18.3
	c1.4,0,2.9-1.4,3.5-2.6C181.7,66.9,177.3,60.4,175.4,56.7L175.4,56.7z"/>
<path d="M71.7,37c5.8,0,2.4,14.6,0.4,19c-1.8,3.8-5.7,9.2-10.4,9.2c-5.6,0-5.5-6.4-3.2-11.2c1.2-2.6,3.1-5.5,5.7-7.7
	c-0.7,2.2,1.6,3.8,0.7,5.7c-0.6,1.3-1.9,2.8-2.6,4.2c-1.1,2.3-0.7,6.4,1.9,6.4c2.3,0,4.4-2.9,5.2-4.7c1.7-3.7,6.1-19.5,1.2-19.5
	c-5.6,0-15.2,13.7-17.2,18c-3.6,7.7-1,17.1,7.2,17.1c5.5,0,10.1-5.4,12.3-10.1c1.3-2.8,2-5.6,2.3-8.2l1.1-0.2
	c0.2,7.2,7.8,19.2,4.6,26.1C76.6,90,64.3,89.9,57.3,93c-1.5-3.5-3.5-6.7-6.3-9.2c6.3-2.1,21.7-5.7,25-12.9c1.4-3,0.4-8-1.2-9.7
	c-0.3,1.1-0.7,2.2-1.2,3.2c-2.9,6.1-9,10.9-15.3,10.9c-8.8,0-12.6-6.4-8.4-15.3C52.4,54.8,65.1,37,71.7,37L71.7,37z"/>
<path fill="none" stroke="#000000" stroke-width="9.7534" stroke-linejoin="round" stroke-miterlimit="3.8637" d="M71.7,37
	c5.8,0,2.4,14.6,0.4,19c-1.8,3.8-5.7,9.2-10.4,9.2c-5.6,0-5.5-6.4-3.2-11.2c1.2-2.6,3.1-5.5,5.7-7.7c-0.7,2.2,1.6,3.8,0.7,5.7
	c-0.6,1.3-1.9,2.8-2.6,4.2c-1.1,2.3-0.7,6.4,1.9,6.4c2.3,0,4.4-2.9,5.2-4.7c1.7-3.7,6.1-19.5,1.2-19.5c-5.6,0-15.2,13.7-17.2,18
	c-3.6,7.7-1,17.1,7.2,17.1c5.5,0,10.1-5.4,12.3-10.1c1.3-2.8,2-5.6,2.3-8.2l1.1-0.2c0.2,7.2,7.8,19.2,4.6,26.1
	C76.6,90,64.3,89.9,57.3,93c-1.5-3.5-3.5-6.7-6.3-9.2c6.3-2.1,21.7-5.7,25-12.9c1.4-3,0.4-8-1.2-9.7c-0.3,1.1-0.7,2.2-1.2,3.2
	c-2.9,6.1-9,10.9-15.3,10.9c-8.8,0-12.6-6.4-8.4-15.3C52.4,54.8,65.1,37,71.7,37L71.7,37z"/>
<path d="M86.7,58.2c0.4,0.9,1.4,5.8,2.1,5.8c1.7,0,4.7-4.6,5.5-5.8c1.5,1,0.7,3,3.4,3c1.2,0,1.9-2.7,3.2-2.7c0,1.1,0.1,2.1-0.5,3.3
	c-0.9,1.9-3.2,4.6-5.5,4.6c-1.6,0-3.9-2-4.3-2c-0.5,0-1.4,0.2-1.6,0.8c-1.2,2.5,2,10.9,5.1,10.9c1.7,0,3.7-1.2,5.5-2
	c-0.5,3-0.5,5.6,0.1,8.2c-1.6,1-3.5,1.5-5,1.5c-7.7,0-3.5-18.2-10.6-22.1L86.7,58.2L86.7,58.2z"/>
<path fill="none" stroke="#000000" stroke-width="9.7534" stroke-linejoin="round" stroke-miterlimit="3.8637" d="M86.7,58.2
	c0.4,0.9,1.4,5.8,2.1,5.8c1.7,0,4.7-4.6,5.5-5.8c1.5,1,0.7,3,3.4,3c1.2,0,1.9-2.7,3.2-2.7c0,1.1,0.1,2.1-0.5,3.3
	c-0.9,1.9-3.2,4.6-5.5,4.6c-1.6,0-3.9-2-4.3-2c-0.5,0-1.4,0.2-1.6,0.8c-1.2,2.5,2,10.9,5.1,10.9c1.7,0,3.7-1.2,5.5-2
	c-0.5,3-0.5,5.6,0.1,8.2c-1.6,1-3.5,1.5-5,1.5c-7.7,0-3.5-18.2-10.6-22.1L86.7,58.2L86.7,58.2z"/>
<path d="M116.5,56.7c5.9,0,8.2,10.6,5.5,16.2c-2,4.4-5.6,7.5-10.3,7.5c-8.2,0-7.1-11.2-4-18.1c0.9-1.9,3.9-6,6.2-6
	C114.9,56.5,115.6,56.7,116.5,56.7L116.5,56.7z M116.3,57.7c-0.9,0-1.7,0.5-2.2,1.4c-0.9,1.9,3.6,3.9,2.9,5.2
	c-0.4,0.9-1.9,1.7-2.7,1.7c-3.9,0-3.8-5.1-1.5-8.4c-1.4,0.9-2.4,2.3-3,3.6c-2.3,4.9-0.5,11.5,4.7,11.5c2.9,0,6.2-2.6,7.4-5.3
	C123.6,64.1,119.6,57.7,116.3,57.7L116.3,57.7z"/>
<path fill="none" stroke="#000000" stroke-width="9.7534" stroke-linejoin="round" stroke-miterlimit="3.8637" d="M116.5,56.7
	c5.9,0,8.2,10.6,5.5,16.2c-2,4.4-5.6,7.5-10.3,7.5c-8.2,0-7.1-11.2-4-18.1c0.9-1.9,3.9-6,6.2-6C114.9,56.5,115.6,56.7,116.5,56.7
	L116.5,56.7z M116.3,57.7c-0.9,0-1.7,0.5-2.2,1.4c-0.9,1.9,3.6,3.9,2.9,5.2c-0.4,0.9-1.9,1.7-2.7,1.7c-3.9,0-3.8-5.1-1.5-8.4
	c-1.4,0.9-2.4,2.3-3,3.6c-2.3,4.9-0.5,11.5,4.7,11.5c2.9,0,6.2-2.6,7.4-5.3C123.6,64.1,119.6,57.7,116.3,57.7L116.3,57.7z"/>
<path d="M143.1,74.2c-1.5,3.3-4.4,5.1-7.6,5.1c-10.2,0-12.2-9.4-7.8-18.8c1-2.2,2.8-4.7,5.4-4.7C141.3,55.8,147,66,143.1,74.2
	L143.1,74.2z M135,57c-0.8,0-1.4,0.3-1.8,1c-0.8,1.7,3.5,3.2,3.5,5c-0.5,0.5-1.7,1.1-2.3,1.1c-3.1,0-5.4-4.2-2.8-7.4
	c-1.1,0.7-1.7,1.7-2.2,2.7c-2.7,5.7,1.1,11.6,6.7,11.6c2.3,0,5.3-1.3,6.5-3.9C144.5,63.4,138.4,57,135,57L135,57z"/>
<path fill="none" stroke="#000000" stroke-width="9.7534" stroke-linejoin="round" stroke-miterlimit="3.8637" d="M143.1,74.2
	c-1.5,3.3-4.4,5.1-7.6,5.1c-10.2,0-12.2-9.4-7.8-18.8c1-2.2,2.8-4.7,5.4-4.7C141.3,55.8,147,66,143.1,74.2L143.1,74.2z M135,57
	c-0.8,0-1.4,0.3-1.8,1c-0.8,1.7,3.5,3.2,3.5,5c-0.5,0.5-1.7,1.1-2.3,1.1c-3.1,0-5.4-4.2-2.8-7.4c-1.1,0.7-1.7,1.7-2.2,2.7
	c-2.7,5.7,1.1,11.6,6.7,11.6c2.3,0,5.3-1.3,6.5-3.9C144.5,63.4,138.4,57,135,57L135,57z"/>
<path d="M153.6,56.9c8.8,0,13.2,16.3,9.3,24.6c-0.8,1.6-2.1,3.2-4,3.2c-10,0-7.5-20.1-13.1-25.8c0.5-0.6,1-1.1,1.5-1.7
	c3.8,4.5,1.9,16.4,10.1,16.4c1.9,0,3.3-1.7,4.1-3.3c2-4.3-1.7-11.8-5.8-11.8c0,0-0.6,0-0.6,0.3c0.2,2.8,2.3,1,0.1,5.7
	c-2.2-0.4-4.6-4-3.3-6.6C152.1,57.1,153,56.9,153.6,56.9L153.6,56.9z"/>
<path fill="none" stroke="#000000" stroke-width="9.7534" stroke-linejoin="round" stroke-miterlimit="3.8637" d="M153.6,56.9
	c8.8,0,13.2,16.3,9.3,24.6c-0.8,1.6-2.1,3.2-4,3.2c-10,0-7.5-20.1-13.1-25.8c0.5-0.6,1-1.1,1.5-1.7c3.8,4.5,1.9,16.4,10.1,16.4
	c1.9,0,3.3-1.7,4.1-3.3c2-4.3-1.7-11.8-5.8-11.8c0,0-0.6,0-0.6,0.3c0.2,2.8,2.3,1,0.1,5.7c-2.2-0.4-4.6-4-3.3-6.6
	C152.1,57.1,153,56.9,153.6,56.9L153.6,56.9z"/>
<path d="M175.4,56.7c0.8,0.1,2.1,0,2.8,0.2c0.1,0,0,0.2,0.1,0.3c0.2,1.2,0.6,2.4,0.8,3.6c1.1,4.6,1.8,9.4,3.1,14
	c1.4,5,2.9,10.6,1.2,16.9c-0.2,0.6-0.4,1.2-0.7,1.9c-2,4.2-7,8.2-11.4,8.2c-0.5,0-1.1-0.2-1.4-0.5c1.9-1.2,3-2.4,3.9-4.2
	c1-2.1,1-4.1,0.8-6c0.4,0.2,1.5,0.7,2,0.7c1.9,0,3.5-1.9,4.3-3.5c1.4-3,1.2-6.1,0.9-8.6c-0.1-1.3-0.3-2.5-0.5-3.8l-0.4-1.8l0-0.2
	l0-0.2c0.2,0,0,0.4,0,0.6c0.1,3.1,0.1,7.4-1.6,10.9c-0.8,1.6-2,3.3-3.9,3.3c-8.4,0-4.2-24.1-10.9-29.9c0.4-0.6,0.7-1.3,1-1.9
	c4,4.9,4.2,18.3,10.1,18.3c1.4,0,2.9-1.4,3.5-2.6C181.7,66.9,177.3,60.4,175.4,56.7L175.4,56.7z"/>
<path fill="none" stroke="#000000" stroke-width="9.7534" stroke-linejoin="round" stroke-miterlimit="3.8637" d="M175.4,56.7
	c0.8,0.1,2.1,0,2.8,0.2c0.1,0,0,0.2,0.1,0.3c0.2,1.2,0.6,2.4,0.8,3.6c1.1,4.6,1.8,9.4,3.1,14c1.4,5,2.9,10.6,1.2,16.9
	c-0.2,0.6-0.4,1.2-0.7,1.9c-2,4.2-7,8.2-11.4,8.2c-0.5,0-1.1-0.2-1.4-0.5c1.9-1.2,3-2.4,3.9-4.2c1-2.1,1-4.1,0.8-6
	c0.4,0.2,1.5,0.7,2,0.7c1.9,0,3.5-1.9,4.3-3.5c1.4-3,1.2-6.1,0.9-8.6c-0.1-1.3-0.3-2.5-0.5-3.8l-0.4-1.8l0-0.2l0-0.2
	c0.2,0,0,0.4,0,0.6c0.1,3.1,0.1,7.4-1.6,10.9c-0.8,1.6-2,3.3-3.9,3.3c-8.4,0-4.2-24.1-10.9-29.9c0.4-0.6,0.7-1.3,1-1.9
	c4,4.9,4.2,18.3,10.1,18.3c1.4,0,2.9-1.4,3.5-2.6C181.7,66.9,177.3,60.4,175.4,56.7L175.4,56.7z"/>
<path fill="#FFFFFF" d="M71.7,37c5.8,0,2.4,14.6,0.4,19c-1.8,3.8-5.7,9.2-10.4,9.2c-5.6,0-5.5-6.4-3.2-11.2c1.2-2.6,3.1-5.5,5.7-7.7
	c-0.7,2.2,1.6,3.8,0.7,5.7c-0.6,1.3-1.9,2.8-2.6,4.2c-1.1,2.3-0.7,6.4,1.9,6.4c2.3,0,4.4-2.9,5.2-4.7c1.7-3.7,6.1-19.5,1.2-19.5
	c-5.6,0-15.2,13.7-17.2,18c-3.6,7.7-1,17.1,7.2,17.1c5.5,0,10.1-5.4,12.3-10.1c1.3-2.8,2-5.6,2.3-8.2l1.1-0.2
	c0.2,7.2,7.8,19.2,4.6,26.1C76.6,90,64.3,89.9,57.3,93c-1.5-3.5-3.5-6.7-6.3-9.2c6.3-2.1,21.7-5.7,25-12.9c1.4-3,0.4-8-1.2-9.7
	c-0.3,1.1-0.7,2.2-1.2,3.2c-2.9,6.1-9,10.9-15.3,10.9c-8.8,0-12.6-6.4-8.4-15.3C52.4,54.8,65.1,37,71.7,37L71.7,37z"/>
<path fill="#FFFFFF" d="M86.7,58.2c0.4,0.9,1.4,5.8,2.1,5.8c1.7,0,4.7-4.6,5.5-5.8c1.5,1,0.7,3,3.4,3c1.2,0,1.9-2.7,3.2-2.7
	c0,1.1,0.1,2.1-0.5,3.3c-0.9,1.9-3.2,4.6-5.5,4.6c-1.6,0-3.9-2-4.3-2c-0.5,0-1.4,0.2-1.6,0.8c-1.2,2.5,2,10.9,5.1,10.9
	c1.7,0,3.7-1.2,5.5-2c-0.5,3-0.5,5.6,0.1,8.2c-1.6,1-3.5,1.5-5,1.5c-7.7,0-3.5-18.2-10.6-22.1L86.7,58.2L86.7,58.2z"/>
<path fill="#FFFFFF" d="M116.5,56.7c5.9,0,8.2,10.6,5.5,16.2c-2,4.4-5.6,7.5-10.3,7.5c-8.2,0-7.1-11.2-4-18.1c0.9-1.9,3.9-6,6.2-6
	C114.9,56.5,115.6,56.7,116.5,56.7L116.5,56.7z M116.3,57.7c-0.9,0-1.7,0.5-2.2,1.4c-0.9,1.9,3.6,3.9,2.9,5.2
	c-0.4,0.9-1.9,1.7-2.7,1.7c-3.9,0-3.8-5.1-1.5-8.4c-1.4,0.9-2.4,2.3-3,3.6c-2.3,4.9-0.5,11.5,4.7,11.5c2.9,0,6.2-2.6,7.4-5.3
	C123.6,64.1,119.6,57.7,116.3,57.7L116.3,57.7z"/>
<path fill="#FFFFFF" d="M143.1,74.2c-1.5,3.3-4.4,5.1-7.6,5.1c-10.2,0-12.2-9.4-7.8-18.8c1-2.2,2.8-4.7,5.4-4.7
	C141.3,55.8,147,66,143.1,74.2L143.1,74.2z M135,57c-0.8,0-1.4,0.3-1.8,1c-0.8,1.7,3.5,3.2,3.5,5c-0.5,0.5-1.7,1.1-2.3,1.1
	c-3.1,0-5.4-4.2-2.8-7.4c-1.1,0.7-1.7,1.7-2.2,2.7c-2.7,5.7,1.1,11.6,6.7,11.6c2.3,0,5.3-1.3,6.5-3.9C144.5,63.4,138.4,57,135,57
	L135,57z"/>
<path fill="#FFFFFF" d="M153.6,56.9c8.8,0,13.2,16.3,9.3,24.6c-0.8,1.6-2.1,3.2-4,3.2c-10,0-7.5-20.1-13.1-25.8
	c0.5-0.6,1-1.1,1.5-1.7c3.8,4.5,1.9,16.4,10.1,16.4c1.9,0,3.3-1.7,4.1-3.3c2-4.3-1.7-11.8-5.8-11.8c0,0-0.6,0-0.6,0.3
	c0.2,2.8,2.3,1,0.1,5.7c-2.2-0.4-4.6-4-3.3-6.6C152.1,57.1,153,56.9,153.6,56.9L153.6,56.9z"/>
<path fill="#FFFFFF" d="M175.4,56.7c0.8,0.1,2.1,0,2.8,0.2c0.1,0,0,0.2,0.1,0.3c0.2,1.2,0.6,2.4,0.8,3.6c1.1,4.6,1.8,9.4,3.1,14
	c1.4,5,2.9,10.6,1.2,16.9c-0.2,0.6-0.4,1.2-0.7,1.9c-6.6,12.7-20.6,9.3-25,9.3c-0.5,0-1.1-0.2-1.4-0.5c1.9-1.2,3-2.4,3.9-4.2
	c1-2.1,1-4.1,0.8-6c0.4,0.2,1.5,0.7,2,0.7c1.9,0,12.5,5.5,17.9-4.6c1.4-3,1.2-6.1,0.9-8.6c-0.1-1.3-0.3-2.5-0.5-3.8l-0.4-1.8l0-0.2
	l0-0.2c0.2,0,0,0.4,0,0.6c0.1,3.1,0.1,7.4-1.6,10.9c-0.8,1.6-2,3.3-3.9,3.3c-8.4,0-4.2-24.1-10.9-29.9c0.4-0.6,0.7-1.3,1-1.9
	c4,4.9,4.2,18.3,10.1,18.3c1.4,0,2.9-1.4,3.5-2.6C181.7,66.9,177.3,60.4,175.4,56.7L175.4,56.7z"/>
<polygon points="183.3,124.8 116.1,98.5 49,124.8 75.5,82.9 7.5,57.2 91,57.6 116.1,15.5 141.3,57.6 224.8,57.3 156.8,82.9 
	183.3,124.8 "/>
<polygon fill="#569BBE" points="174.2,117.3 116.2,94.6 58.2,117.3 81.1,81.1 22.3,58.9 94.5,59.3 116.2,22.9 137.9,59.3 210.1,59 
	151.3,81.1 174.2,117.3 "/>
<path d="M71.7,37c5.8,0,2.4,14.6,0.4,19c-1.8,3.8-5.7,9.2-10.4,9.2c-5.6,0-5.5-6.4-3.2-11.2c1.2-2.6,3.1-5.5,5.7-7.7
	c-0.7,2.2,1.6,3.8,0.7,5.7c-0.6,1.3-1.9,2.8-2.6,4.2c-1.1,2.3-0.7,6.4,1.9,6.4c2.3,0,4.4-2.9,5.2-4.7c1.7-3.7,6.1-19.5,1.2-19.5
	c-5.6,0-15.2,13.7-17.2,18c-3.6,7.7-1,17.1,7.2,17.1c5.5,0,10.1-5.4,12.3-10.1c1.3-2.8,2-5.6,2.3-8.2l1.1-0.2
	c0.2,7.2,7.8,19.2,4.6,26.1C76.6,90,64.3,89.9,57.3,93c-1.5-3.5-3.5-6.7-6.3-9.2c6.3-2.1,21.7-5.7,25-12.9c1.4-3,0.4-8-1.2-9.7
	c-0.3,1.1-0.7,2.2-1.2,3.2c-2.9,6.1-9,10.9-15.3,10.9c-8.8,0-12.6-6.4-8.4-15.3C52.4,54.8,65.1,37,71.7,37L71.7,37z"/>
<path fill="none" stroke="#000000" stroke-width="9.7534" stroke-linejoin="round" stroke-miterlimit="3.8637" d="M71.7,37
	c5.8,0,2.4,14.6,0.4,19c-1.8,3.8-5.7,9.2-10.4,9.2c-5.6,0-5.5-6.4-3.2-11.2c1.2-2.6,3.1-5.5,5.7-7.7c-0.7,2.2,1.6,3.8,0.7,5.7
	c-0.6,1.3-1.9,2.8-2.6,4.2c-1.1,2.3-0.7,6.4,1.9,6.4c2.3,0,4.4-2.9,5.2-4.7c1.7-3.7,6.1-19.5,1.2-19.5c-5.6,0-15.2,13.7-17.2,18
	c-3.6,7.7-1,17.1,7.2,17.1c5.5,0,10.1-5.4,12.3-10.1c1.3-2.8,2-5.6,2.3-8.2l1.1-0.2c0.2,7.2,7.8,19.2,4.6,26.1
	C76.6,90,64.3,89.9,57.3,93c-1.5-3.5-3.5-6.7-6.3-9.2c6.3-2.1,21.7-5.7,25-12.9c1.4-3,0.4-8-1.2-9.7c-0.3,1.1-0.7,2.2-1.2,3.2
	c-2.9,6.1-9,10.9-15.3,10.9c-8.8,0-12.6-6.4-8.4-15.3C52.4,54.8,65.1,37,71.7,37L71.7,37z"/>
<path d="M86.7,58.2c0.4,0.9,1.4,5.8,2.1,5.8c1.7,0,4.7-4.6,5.5-5.8c1.5,1,0.7,3,3.4,3c1.2,0,1.9-2.7,3.2-2.7c0,1.1,0.1,2.1-0.5,3.3
	c-0.9,1.9-3.2,4.6-5.5,4.6c-1.6,0-3.9-2-4.3-2c-0.5,0-1.4,0.2-1.6,0.8c-1.2,2.5,2,10.9,5.1,10.9c1.7,0,3.7-1.2,5.5-2
	c-0.5,3-0.5,5.6,0.1,8.2c-1.6,1-3.5,1.5-5,1.5c-7.7,0-3.5-18.2-10.6-22.1L86.7,58.2L86.7,58.2z"/>
<path fill="none" stroke="#000000" stroke-width="9.7534" stroke-linejoin="round" stroke-miterlimit="3.8637" d="M86.7,58.2
	c0.4,0.9,1.4,5.8,2.1,5.8c1.7,0,4.7-4.6,5.5-5.8c1.5,1,0.7,3,3.4,3c1.2,0,1.9-2.7,3.2-2.7c0,1.1,0.1,2.1-0.5,3.3
	c-0.9,1.9-3.2,4.6-5.5,4.6c-1.6,0-3.9-2-4.3-2c-0.5,0-1.4,0.2-1.6,0.8c-1.2,2.5,2,10.9,5.1,10.9c1.7,0,3.7-1.2,5.5-2
	c-0.5,3-0.5,5.6,0.1,8.2c-1.6,1-3.5,1.5-5,1.5c-7.7,0-3.5-18.2-10.6-22.1L86.7,58.2L86.7,58.2z"/>
<path d="M116.5,56.7c5.9,0,8.2,10.6,5.5,16.2c-2,4.4-5.6,7.5-10.3,7.5c-8.2,0-7.1-11.2-4-18.1c0.9-1.9,3.9-6,6.2-6
	C114.9,56.5,115.6,56.7,116.5,56.7L116.5,56.7z M116.3,57.7c-0.9,0-1.7,0.5-2.2,1.4c-0.9,1.9,3.6,3.9,2.9,5.2
	c-0.4,0.9-1.9,1.7-2.7,1.7c-3.9,0-3.8-5.1-1.5-8.4c-1.4,0.9-2.4,2.3-3,3.6c-2.3,4.9-0.5,11.5,4.7,11.5c2.9,0,6.2-2.6,7.4-5.3
	C123.6,64.1,119.6,57.7,116.3,57.7L116.3,57.7z"/>
<path fill="none" stroke="#000000" stroke-width="9.7534" stroke-linejoin="round" stroke-miterlimit="3.8637" d="M116.5,56.7
	c5.9,0,8.2,10.6,5.5,16.2c-2,4.4-5.6,7.5-10.3,7.5c-8.2,0-7.1-11.2-4-18.1c0.9-1.9,3.9-6,6.2-6C114.9,56.5,115.6,56.7,116.5,56.7
	L116.5,56.7z M116.3,57.7c-0.9,0-1.7,0.5-2.2,1.4c-0.9,1.9,3.6,3.9,2.9,5.2c-0.4,0.9-1.9,1.7-2.7,1.7c-3.9,0-3.8-5.1-1.5-8.4
	c-1.4,0.9-2.4,2.3-3,3.6c-2.3,4.9-0.5,11.5,4.7,11.5c2.9,0,6.2-2.6,7.4-5.3C123.6,64.1,119.6,57.7,116.3,57.7L116.3,57.7z"/>
<path d="M143.1,74.2c-1.5,3.3-4.4,5.1-7.6,5.1c-10.2,0-12.2-9.4-7.8-18.8c1-2.2,2.8-4.7,5.4-4.7C141.3,55.8,147,66,143.1,74.2
	L143.1,74.2z M135,57c-0.8,0-1.4,0.3-1.8,1c-0.8,1.7,3.5,3.2,3.5,5c-0.5,0.5-1.7,1.1-2.3,1.1c-3.1,0-5.4-4.2-2.8-7.4
	c-1.1,0.7-1.7,1.7-2.2,2.7c-2.7,5.7,1.1,11.6,6.7,11.6c2.3,0,5.3-1.3,6.5-3.9C144.5,63.4,138.4,57,135,57L135,57z"/>
<path fill="none" stroke="#000000" stroke-width="9.7534" stroke-linejoin="round" stroke-miterlimit="3.8637" d="M143.1,74.2
	c-1.5,3.3-4.4,5.1-7.6,5.1c-10.2,0-12.2-9.4-7.8-18.8c1-2.2,2.8-4.7,5.4-4.7C141.3,55.8,147,66,143.1,74.2L143.1,74.2z M135,57
	c-0.8,0-1.4,0.3-1.8,1c-0.8,1.7,3.5,3.2,3.5,5c-0.5,0.5-1.7,1.1-2.3,1.1c-3.1,0-5.4-4.2-2.8-7.4c-1.1,0.7-1.7,1.7-2.2,2.7
	c-2.7,5.7,1.1,11.6,6.7,11.6c2.3,0,5.3-1.3,6.5-3.9C144.5,63.4,138.4,57,135,57L135,57z"/>
<path d="M153.6,56.9c8.8,0,13.2,16.3,9.3,24.6c-0.8,1.6-2.1,3.2-4,3.2c-10,0-7.5-20.1-13.1-25.8c0.5-0.6,1-1.1,1.5-1.7
	c3.8,4.5,1.9,16.4,10.1,16.4c1.9,0,3.3-1.7,4.1-3.3c2-4.3-1.7-11.8-5.8-11.8c0,0-0.6,0-0.6,0.3c0.2,2.8,2.3,1,0.1,5.7
	c-2.2-0.4-4.6-4-3.3-6.6C152.1,57.1,153,56.9,153.6,56.9L153.6,56.9z"/>
<path fill="none" stroke="#000000" stroke-width="9.7534" stroke-linejoin="round" stroke-miterlimit="3.8637" d="M153.6,56.9
	c8.8,0,13.2,16.3,9.3,24.6c-0.8,1.6-2.1,3.2-4,3.2c-10,0-7.5-20.1-13.1-25.8c0.5-0.6,1-1.1,1.5-1.7c3.8,4.5,1.9,16.4,10.1,16.4
	c1.9,0,3.3-1.7,4.1-3.3c2-4.3-1.7-11.8-5.8-11.8c0,0-0.6,0-0.6,0.3c0.2,2.8,2.3,1,0.1,5.7c-2.2-0.4-4.6-4-3.3-6.6
	C152.1,57.1,153,56.9,153.6,56.9L153.6,56.9z"/>
<path d="M175.4,56.7c0.8,0.1,2.1,0,2.8,0.2c0.1,0,0,0.2,0.1,0.3c0.2,1.2,0.6,2.4,0.8,3.6c1.1,4.6,1.8,9.4,3.1,14
	c1.4,5,2.9,10.6,1.2,16.9c-0.2,0.6-0.4,1.2-0.7,1.9c-2,4.2-18.8,9-23.2,9c-0.5,0-1.1-0.2-1.4-0.5c1.9-1.2,3-2.4,3.9-4.2
	c1-2.1,1-4.1,0.8-6c0.4,0.2,13.3-0.1,13.8-0.1c1.9,0,3.5-1.9,4.3-3.5c1.4-3,1.2-6.1,0.9-8.6c-0.1-1.3-0.3-2.5-0.5-3.8l-0.4-1.8
	l0-0.2l0-0.2c0.2,0,0,0.4,0,0.6c0.1,3.1,0.1,7.4-1.6,10.9c-0.8,1.6-2,3.3-3.9,3.3c-8.4,0-4.2-24.1-10.9-29.9c0.4-0.6,0.7-1.3,1-1.9
	c4,4.9,4.2,18.3,10.1,18.3c1.4,0,2.9-1.4,3.5-2.6C181.7,66.9,177.3,60.4,175.4,56.7L175.4,56.7z"/>
<path fill="none" stroke="#000000" stroke-width="9.7534" stroke-linejoin="round" stroke-miterlimit="3.8637" d="M175.4,56.7
	c0.8,0.1,2.1,0,2.8,0.2c0.1,0,0,0.2,0.1,0.3c0.2,1.2,0.6,2.4,0.8,3.6c1.1,4.6,1.8,9.4,3.1,14c1.4,5,2.9,10.6,1.2,16.9
	c-0.2,0.6-0.4,1.2-0.7,1.9c-2,4.2-18.8,9-23.2,9c-0.5,0-1.1-0.2-1.4-0.5c1.9-1.2,3-2.4,3.9-4.2c1-2.1,1-4.1,0.8-6
	c0.4,0.2,13.3-0.1,13.8-0.1c1.9,0,3.5-1.9,4.3-3.5c1.4-3,1.2-6.1,0.9-8.6c-0.1-1.3-0.3-2.5-0.5-3.8l-0.4-1.8l0-0.2l0-0.2
	c0.2,0,0,0.4,0,0.6c0.1,3.1,0.1,7.4-1.6,10.9c-0.8,1.6-2,3.3-3.9,3.3c-8.4,0-4.2-24.1-10.9-29.9c0.4-0.6,0.7-1.3,1-1.9
	c4,4.9,4.2,18.3,10.1,18.3c1.4,0,2.9-1.4,3.5-2.6C181.7,66.9,177.3,60.4,175.4,56.7L175.4,56.7z"/>
<path d="M71.7,37c5.8,0,2.4,14.6,0.4,19c-1.8,3.8-5.7,9.2-10.4,9.2c-5.6,0-5.5-6.4-3.2-11.2c1.2-2.6,3.1-5.5,5.7-7.7
	c-0.7,2.2,1.6,3.8,0.7,5.7c-0.6,1.3-1.9,2.8-2.6,4.2c-1.1,2.3-0.7,6.4,1.9,6.4c2.3,0,4.4-2.9,5.2-4.7c1.7-3.7,6.1-19.5,1.2-19.5
	c-5.6,0-15.2,13.7-17.2,18c-3.6,7.7-1,17.1,7.2,17.1c5.5,0,10.1-5.4,12.3-10.1c1.3-2.8,2-5.6,2.3-8.2l1.1-0.2
	c0.2,7.2,7.8,19.2,4.6,26.1C76.6,90,64.3,89.9,57.3,93c-1.5-3.5-3.5-6.7-6.3-9.2c6.3-2.1,21.7-5.7,25-12.9c1.4-3,0.4-8-1.2-9.7
	c-0.3,1.1-0.7,2.2-1.2,3.2c-2.9,6.1-9,10.9-15.3,10.9c-8.8,0-12.6-6.4-8.4-15.3C52.4,54.8,65.1,37,71.7,37L71.7,37z"/>
<path fill="none" stroke="#000000" stroke-width="0.8128" stroke-miterlimit="3.8637" d="M71.7,37c5.8,0,2.4,14.6,0.4,19
	c-1.8,3.8-5.7,9.2-10.4,9.2c-5.6,0-5.5-6.4-3.2-11.2c1.2-2.6,3.1-5.5,5.7-7.7c-0.7,2.2,1.6,3.8,0.7,5.7c-0.6,1.3-1.9,2.8-2.6,4.2
	c-1.1,2.3-0.7,6.4,1.9,6.4c2.3,0,4.4-2.9,5.2-4.7c1.7-3.7,6.1-19.5,1.2-19.5c-5.6,0-15.2,13.7-17.2,18c-3.6,7.7-1,17.1,7.2,17.1
	c5.5,0,10.1-5.4,12.3-10.1c1.3-2.8,2-5.6,2.3-8.2l1.1-0.2c0.2,7.2,7.8,19.2,4.6,26.1C76.6,90,64.3,89.9,57.3,93
	c-1.5-3.5-3.5-6.7-6.3-9.2c6.3-2.1,21.7-5.7,25-12.9c1.4-3,0.4-8-1.2-9.7c-0.3,1.1-0.7,2.2-1.2,3.2c-2.9,6.1-9,10.9-15.3,10.9
	c-8.8,0-12.6-6.4-8.4-15.3C52.4,54.8,65.1,37,71.7,37L71.7,37z"/>
<path d="M86.7,58.2c0.4,0.9,1.4,5.8,2.1,5.8c1.7,0,4.7-4.6,5.5-5.8c1.5,1,0.7,3,3.4,3c1.2,0,1.9-2.7,3.2-2.7c0,1.1,0.1,2.1-0.5,3.3
	c-0.9,1.9-3.2,4.6-5.5,4.6c-1.6,0-3.9-2-4.3-2c-0.5,0-1.4,0.2-1.6,0.8c-1.2,2.5,2,10.9,5.1,10.9c1.7,0,3.7-1.2,5.5-2
	c-0.5,3-0.5,5.6,0.1,8.2c-1.6,1-3.5,1.5-5,1.5c-7.7,0-3.5-18.2-10.6-22.1L86.7,58.2L86.7,58.2z"/>
<path fill="none" stroke="#000000" stroke-width="0.8128" stroke-miterlimit="3.8637" d="M86.7,58.2c0.4,0.9,1.4,5.8,2.1,5.8
	c1.7,0,4.7-4.6,5.5-5.8c1.5,1,0.7,3,3.4,3c1.2,0,1.9-2.7,3.2-2.7c0,1.1,0.1,2.1-0.5,3.3c-0.9,1.9-3.2,4.6-5.5,4.6
	c-1.6,0-3.9-2-4.3-2c-0.5,0-1.4,0.2-1.6,0.8c-1.2,2.5,2,10.9,5.1,10.9c1.7,0,3.7-1.2,5.5-2c-0.5,3-0.5,5.6,0.1,8.2
	c-1.6,1-3.5,1.5-5,1.5c-7.7,0-3.5-18.2-10.6-22.1L86.7,58.2L86.7,58.2z"/>
<path d="M116.5,56.7c5.9,0,8.2,10.6,5.5,16.2c-2,4.4-5.6,7.5-10.3,7.5c-8.2,0-7.1-11.2-4-18.1c0.9-1.9,3.9-6,6.2-6
	C114.9,56.5,115.6,56.7,116.5,56.7L116.5,56.7z M116.3,57.7c-0.9,0-1.7,0.5-2.2,1.4c-0.9,1.9,3.6,3.9,2.9,5.2
	c-0.4,0.9-1.9,1.7-2.7,1.7c-3.9,0-3.8-5.1-1.5-8.4c-1.4,0.9-2.4,2.3-3,3.6c-2.3,4.9-0.5,11.5,4.7,11.5c2.9,0,6.2-2.6,7.4-5.3
	C123.6,64.1,119.6,57.7,116.3,57.7L116.3,57.7z"/>
<path fill="none" stroke="#000000" stroke-width="0.8128" stroke-miterlimit="3.8637" d="M116.5,56.7c5.9,0,8.2,10.6,5.5,16.2
	c-2,4.4-5.6,7.5-10.3,7.5c-8.2,0-7.1-11.2-4-18.1c0.9-1.9,3.9-6,6.2-6C114.9,56.5,115.6,56.7,116.5,56.7L116.5,56.7z M116.3,57.7
	c-0.9,0-1.7,0.5-2.2,1.4c-0.9,1.9,3.6,3.9,2.9,5.2c-0.4,0.9-1.9,1.7-2.7,1.7c-3.9,0-3.8-5.1-1.5-8.4c-1.4,0.9-2.4,2.3-3,3.6
	c-2.3,4.9-0.5,11.5,4.7,11.5c2.9,0,6.2-2.6,7.4-5.3C123.6,64.1,119.6,57.7,116.3,57.7L116.3,57.7z"/>
<path d="M143.1,74.2c-1.5,3.3-4.4,5.1-7.6,5.1c-10.2,0-12.2-9.4-7.8-18.8c1-2.2,2.8-4.7,5.4-4.7C141.3,55.8,147,66,143.1,74.2
	L143.1,74.2z M135,57c-0.8,0-1.4,0.3-1.8,1c-0.8,1.7,3.5,3.2,3.5,5c-0.5,0.5-1.7,1.1-2.3,1.1c-3.1,0-5.4-4.2-2.8-7.4
	c-1.1,0.7-1.7,1.7-2.2,2.7c-2.7,5.7,1.1,11.6,6.7,11.6c2.3,0,5.3-1.3,6.5-3.9C144.5,63.4,138.4,57,135,57L135,57z"/>
<path fill="none" stroke="#000000" stroke-width="0.8128" stroke-miterlimit="3.8637" d="M143.1,74.2c-1.5,3.3-4.4,5.1-7.6,5.1
	c-10.2,0-12.2-9.4-7.8-18.8c1-2.2,2.8-4.7,5.4-4.7C141.3,55.8,147,66,143.1,74.2L143.1,74.2z M135,57c-0.8,0-1.4,0.3-1.8,1
	c-0.8,1.7,3.5,3.2,3.5,5c-0.5,0.5-1.7,1.1-2.3,1.1c-3.1,0-5.4-4.2-2.8-7.4c-1.1,0.7-1.7,1.7-2.2,2.7c-2.7,5.7,1.1,11.6,6.7,11.6
	c2.3,0,5.3-1.3,6.5-3.9C144.5,63.4,138.4,57,135,57L135,57z"/>
<path d="M153.6,56.9c8.8,0,13.2,16.3,9.3,24.6c-0.8,1.6-2.1,3.2-4,3.2c-10,0-7.5-20.1-13.1-25.8c0.5-0.6,1-1.1,1.5-1.7
	c3.8,4.5,1.9,16.4,10.1,16.4c1.9,0,3.3-1.7,4.1-3.3c2-4.3-1.7-11.8-5.8-11.8c0,0-0.6,0-0.6,0.3c0.2,2.8,2.3,1,0.1,5.7
	c-2.2-0.4-4.6-4-3.3-6.6C152.1,57.1,153,56.9,153.6,56.9L153.6,56.9z"/>
<path fill="none" stroke="#000000" stroke-width="0.8128" stroke-miterlimit="3.8637" d="M153.6,56.9c8.8,0,13.2,16.3,9.3,24.6
	c-0.8,1.6-2.1,3.2-4,3.2c-10,0-7.5-20.1-13.1-25.8c0.5-0.6,1-1.1,1.5-1.7c3.8,4.5,1.9,16.4,10.1,16.4c1.9,0,3.3-1.7,4.1-3.3
	c2-4.3-1.7-11.8-5.8-11.8c0,0-0.6,0-0.6,0.3c0.2,2.8,2.3,1,0.1,5.7c-2.2-0.4-4.6-4-3.3-6.6C152.1,57.1,153,56.9,153.6,56.9
	L153.6,56.9z"/>
<path d="M175.4,56.7c0.8,0.1,2.1,0,2.8,0.2c0.1,0,0,0.2,0.1,0.3c0.2,1.2,0.6,2.4,0.8,3.6c1.1,4.6,1.8,9.4,3.1,14
	c1.4,5,2.9,10.6,1.2,16.9c-0.2,0.6-0.4,1.2-0.7,1.9c-2,4.2-7,8.2-11.4,8.2c-0.5,0-1.1-0.2-1.4-0.5c1.9-1.2,3-2.4,3.9-4.2
	c1-2.1,1-4.1,0.8-6c0.4,0.2,1.5,0.7,2,0.7c1.9,0,3.5-1.9,4.3-3.5c1.4-3,1.2-6.1,0.9-8.6c-0.1-1.3-0.3-2.5-0.5-3.8l-0.4-1.8l0-0.2
	l0-0.2c0.2,0,0,0.4,0,0.6c0.1,3.1,0.1,7.4-1.6,10.9c-0.8,1.6-2,3.3-3.9,3.3c-8.4,0-4.2-24.1-10.9-29.9c0.4-0.6,0.7-1.3,1-1.9
	c4,4.9,4.2,18.3,10.1,18.3c1.4,0,2.9-1.4,3.5-2.6C181.7,66.9,177.3,60.4,175.4,56.7L175.4,56.7z"/>
<path fill="none" stroke="#000000" stroke-width="0.8128" stroke-miterlimit="3.8637" d="M175.4,56.7c0.8,0.1,2.1,0,2.8,0.2
	c0.1,0,0,0.2,0.1,0.3c0.2,1.2,0.6,2.4,0.8,3.6c1.1,4.6,1.8,9.4,3.1,14c1.4,5,2.9,10.6,1.2,16.9c-0.2,0.6-0.4,1.2-0.7,1.9
	c-2,4.2-7,8.2-11.4,8.2c-0.5,0-1.1-0.2-1.4-0.5c1.9-1.2,3-2.4,3.9-4.2c1-2.1,1-4.1,0.8-6c0.4,0.2,1.5,0.7,2,0.7
	c1.9,0,3.5-1.9,4.3-3.5c1.4-3,1.2-6.1,0.9-8.6c-0.1-1.3-0.3-2.5-0.5-3.8l-0.4-1.8l0-0.2l0-0.2c0.2,0,0,0.4,0,0.6
	c0.1,3.1,0.1,7.4-1.6,10.9c-0.8,1.6-2,3.3-3.9,3.3c-8.4,0-4.2-24.1-10.9-29.9c0.4-0.6,0.7-1.3,1-1.9c4,4.9,4.2,18.3,10.1,18.3
	c1.4,0,2.9-1.4,3.5-2.6C181.7,66.9,177.3,60.4,175.4,56.7L175.4,56.7z"/>
<path d="M71.7,37c5.8,0,2.4,14.6,0.4,19c-1.8,3.8-5.7,9.2-10.4,9.2c-5.6,0-5.5-6.4-3.2-11.2c1.2-2.6,3.1-5.5,5.7-7.7
	c-0.7,2.2,1.6,3.8,0.7,5.7c-0.6,1.3-1.9,2.8-2.6,4.2c-1.1,2.3-0.7,6.4,1.9,6.4c2.3,0,4.4-2.9,5.2-4.7c1.7-3.7,6.1-19.5,1.2-19.5
	c-5.6,0-15.2,13.7-17.2,18c-3.6,7.7-1,17.1,7.2,17.1c5.5,0,10.1-5.4,12.3-10.1c1.3-2.8,2-5.6,2.3-8.2l1.1-0.2
	c0.2,7.2,7.8,19.2,4.6,26.1C76.6,90,64.3,89.9,57.3,93c-1.5-3.5-3.5-6.7-6.3-9.2c6.3-2.1,21.7-5.7,25-12.9c1.4-3,0.4-8-1.2-9.7
	c-0.3,1.1-0.7,2.2-1.2,3.2c-2.9,6.1-9,10.9-15.3,10.9c-8.8,0-12.6-6.4-8.4-15.3C52.4,54.8,65.1,37,71.7,37L71.7,37z"/>
<path fill="none" stroke="#000000" stroke-width="9.7534" stroke-linejoin="round" stroke-miterlimit="3.8637" d="M71.7,37
	c5.8,0,2.4,14.6,0.4,19c-1.8,3.8-5.7,9.2-10.4,9.2c-5.6,0-5.5-6.4-3.2-11.2c1.2-2.6,3.1-5.5,5.7-7.7c-0.7,2.2,1.6,3.8,0.7,5.7
	c-0.6,1.3-1.9,2.8-2.6,4.2c-1.1,2.3-0.7,6.4,1.9,6.4c2.3,0,4.4-2.9,5.2-4.7c1.7-3.7,6.1-19.5,1.2-19.5c-5.6,0-15.2,13.7-17.2,18
	c-3.6,7.7-1,17.1,7.2,17.1c5.5,0,10.1-5.4,12.3-10.1c1.3-2.8,2-5.6,2.3-8.2l1.1-0.2c0.2,7.2,7.8,19.2,4.6,26.1
	C76.6,90,64.3,89.9,57.3,93c-1.5-3.5-3.5-6.7-6.3-9.2c6.3-2.1,21.7-5.7,25-12.9c1.4-3,0.4-8-1.2-9.7c-0.3,1.1-0.7,2.2-1.2,3.2
	c-2.9,6.1-9,10.9-15.3,10.9c-8.8,0-12.6-6.4-8.4-15.3C52.4,54.8,65.1,37,71.7,37L71.7,37z"/>
<path d="M86.7,58.2c0.4,0.9,1.4,5.8,2.1,5.8c1.7,0,4.7-4.6,5.5-5.8c1.5,1,0.7,3,3.4,3c1.2,0,1.9-2.7,3.2-2.7c0,1.1,0.1,2.1-0.5,3.3
	c-0.9,1.9-3.2,4.6-5.5,4.6c-1.6,0-3.9-2-4.3-2c-0.5,0-1.4,0.2-1.6,0.8c-1.2,2.5,2,10.9,5.1,10.9c1.7,0,3.7-1.2,5.5-2
	c-0.5,3-0.5,5.6,0.1,8.2c-1.6,1-3.5,1.5-5,1.5c-7.7,0-3.5-18.2-10.6-22.1L86.7,58.2L86.7,58.2z"/>
<path fill="none" stroke="#000000" stroke-width="9.7534" stroke-linejoin="round" stroke-miterlimit="3.8637" d="M86.7,58.2
	c0.4,0.9,1.4,5.8,2.1,5.8c1.7,0,4.7-4.6,5.5-5.8c1.5,1,0.7,3,3.4,3c1.2,0,1.9-2.7,3.2-2.7c0,1.1,0.1,2.1-0.5,3.3
	c-0.9,1.9-3.2,4.6-5.5,4.6c-1.6,0-3.9-2-4.3-2c-0.5,0-1.4,0.2-1.6,0.8c-1.2,2.5,2,10.9,5.1,10.9c1.7,0,3.7-1.2,5.5-2
	c-0.5,3-0.5,5.6,0.1,8.2c-1.6,1-3.5,1.5-5,1.5c-7.7,0-3.5-18.2-10.6-22.1L86.7,58.2L86.7,58.2z"/>
<path d="M116.5,56.7c5.9,0,8.2,10.6,5.5,16.2c-2,4.4-5.6,7.5-10.3,7.5c-8.2,0-7.1-11.2-4-18.1c0.9-1.9,3.9-6,6.2-6
	C114.9,56.5,115.6,56.7,116.5,56.7L116.5,56.7z M116.3,57.7c-0.9,0-1.7,0.5-2.2,1.4c-0.9,1.9,3.6,3.9,2.9,5.2
	c-0.4,0.9-1.9,1.7-2.7,1.7c-3.9,0-3.8-5.1-1.5-8.4c-1.4,0.9-2.4,2.3-3,3.6c-2.3,4.9-0.5,11.5,4.7,11.5c2.9,0,6.2-2.6,7.4-5.3
	C123.6,64.1,119.6,57.7,116.3,57.7L116.3,57.7z"/>
<path fill="none" stroke="#000000" stroke-width="9.7534" stroke-linejoin="round" stroke-miterlimit="3.8637" d="M116.5,56.7
	c5.9,0,8.2,10.6,5.5,16.2c-2,4.4-5.6,7.5-10.3,7.5c-8.2,0-7.1-11.2-4-18.1c0.9-1.9,3.9-6,6.2-6C114.9,56.5,115.6,56.7,116.5,56.7
	L116.5,56.7z M116.3,57.7c-0.9,0-1.7,0.5-2.2,1.4c-0.9,1.9,3.6,3.9,2.9,5.2c-0.4,0.9-1.9,1.7-2.7,1.7c-3.9,0-3.8-5.1-1.5-8.4
	c-1.4,0.9-2.4,2.3-3,3.6c-2.3,4.9-0.5,11.5,4.7,11.5c2.9,0,6.2-2.6,7.4-5.3C123.6,64.1,119.6,57.7,116.3,57.7L116.3,57.7z"/>
<path d="M143.1,74.2c-1.5,3.3-4.4,5.1-7.6,5.1c-10.2,0-12.2-9.4-7.8-18.8c1-2.2,2.8-4.7,5.4-4.7C141.3,55.8,147,66,143.1,74.2
	L143.1,74.2z M135,57c-0.8,0-1.4,0.3-1.8,1c-0.8,1.7,3.5,3.2,3.5,5c-0.5,0.5-1.7,1.1-2.3,1.1c-3.1,0-5.4-4.2-2.8-7.4
	c-1.1,0.7-1.7,1.7-2.2,2.7c-2.7,5.7,1.1,11.6,6.7,11.6c2.3,0,5.3-1.3,6.5-3.9C144.5,63.4,138.4,57,135,57L135,57z"/>
<path fill="none" stroke="#000000" stroke-width="9.7534" stroke-linejoin="round" stroke-miterlimit="3.8637" d="M143.1,74.2
	c-1.5,3.3-4.4,5.1-7.6,5.1c-10.2,0-12.2-9.4-7.8-18.8c1-2.2,2.8-4.7,5.4-4.7C141.3,55.8,147,66,143.1,74.2L143.1,74.2z M135,57
	c-0.8,0-1.4,0.3-1.8,1c-0.8,1.7,3.5,3.2,3.5,5c-0.5,0.5-1.7,1.1-2.3,1.1c-3.1,0-5.4-4.2-2.8-7.4c-1.1,0.7-1.7,1.7-2.2,2.7
	c-2.7,5.7,1.1,11.6,6.7,11.6c2.3,0,5.3-1.3,6.5-3.9C144.5,63.4,138.4,57,135,57L135,57z"/>
<path d="M153.6,56.9c8.8,0,13.2,16.3,9.3,24.6c-0.8,1.6-2.1,3.2-4,3.2c-10,0-7.5-20.1-13.1-25.8c0.5-0.6,1-1.1,1.5-1.7
	c3.8,4.5,1.9,16.4,10.1,16.4c1.9,0,3.3-1.7,4.1-3.3c2-4.3-1.7-11.8-5.8-11.8c0,0-0.6,0-0.6,0.3c0.2,2.8,2.3,1,0.1,5.7
	c-2.2-0.4-4.6-4-3.3-6.6C152.1,57.1,153,56.9,153.6,56.9L153.6,56.9z"/>
<path fill="none" stroke="#000000" stroke-width="9.7534" stroke-linejoin="round" stroke-miterlimit="3.8637" d="M153.6,56.9
	c8.8,0,13.2,16.3,9.3,24.6c-0.8,1.6-2.1,3.2-4,3.2c-10,0-7.5-20.1-13.1-25.8c0.5-0.6,1-1.1,1.5-1.7c3.8,4.5,1.9,16.4,10.1,16.4
	c1.9,0,3.3-1.7,4.1-3.3c2-4.3-1.7-11.8-5.8-11.8c0,0-0.6,0-0.6,0.3c0.2,2.8,2.3,1,0.1,5.7c-2.2-0.4-4.6-4-3.3-6.6
	C152.1,57.1,153,56.9,153.6,56.9L153.6,56.9z"/>
<path d="M175.4,56.7c0.8,0.1,2.1,0,2.8,0.2c0.1,0,0,0.2,0.1,0.3c0.2,1.2,0.6,2.4,0.8,3.6c1.1,4.6,1.8,9.4,3.1,14
	c1.4,5,2.9,10.6,1.2,16.9c-0.2,0.6-0.4,1.2-0.7,1.9c-2,4.2-7,8.2-11.4,8.2c-0.5,0-1.1-0.2-1.4-0.5c1.9-1.2,3-2.4,3.9-4.2
	c1-2.1,1-4.1,0.8-6c0.4,0.2,1.5,0.7,2,0.7c1.9,0,3.5-1.9,4.3-3.5c1.4-3,1.2-6.1,0.9-8.6c-0.1-1.3-0.3-2.5-0.5-3.8l-0.4-1.8l0-0.2
	l0-0.2c0.2,0,0,0.4,0,0.6c0.1,3.1,0.1,7.4-1.6,10.9c-0.8,1.6-2,3.3-3.9,3.3c-8.4,0-4.2-24.1-10.9-29.9c0.4-0.6,0.7-1.3,1-1.9
	c4,4.9,4.2,18.3,10.1,18.3c1.4,0,2.9-1.4,3.5-2.6C181.7,66.9,177.3,60.4,175.4,56.7L175.4,56.7z"/>
<path fill="none" stroke="#000000" stroke-width="9.7534" stroke-linejoin="round" stroke-miterlimit="3.8637" d="M175.4,56.7
	c0.8,0.1,2.1,0,2.8,0.2c0.1,0,0,0.2,0.1,0.3c0.2,1.2,0.6,2.4,0.8,3.6c1.1,4.6,1.8,9.4,3.1,14c1.4,5,2.9,10.6,1.2,16.9
	c-0.2,0.6-0.4,1.2-0.7,1.9c-2,4.2-7,8.2-11.4,8.2c-0.5,0-1.1-0.2-1.4-0.5c1.9-1.2,3-2.4,3.9-4.2c1-2.1,1-4.1,0.8-6
	c0.4,0.2,1.5,0.7,2,0.7c1.9,0,3.5-1.9,4.3-3.5c1.4-3,1.2-6.1,0.9-8.6c-0.1-1.3-0.3-2.5-0.5-3.8l-0.4-1.8l0-0.2l0-0.2
	c0.2,0,0,0.4,0,0.6c0.1,3.1,0.1,7.4-1.6,10.9c-0.8,1.6-2,3.3-3.9,3.3c-8.4,0-4.2-24.1-10.9-29.9c0.4-0.6,0.7-1.3,1-1.9
	c4,4.9,4.2,18.3,10.1,18.3c1.4,0,2.9-1.4,3.5-2.6C181.7,66.9,177.3,60.4,175.4,56.7L175.4,56.7z"/>
<path fill="#FFFFFF" d="M71.7,37c5.8,0,2.4,14.6,0.4,19c-1.8,3.8-5.7,9.2-10.4,9.2c-5.6,0-5.5-6.4-3.2-11.2c1.2-2.6,3.1-5.5,5.7-7.7
	c-0.7,2.2,1.6,3.8,0.7,5.7c-0.6,1.3-1.9,2.8-2.6,4.2c-1.1,2.3-0.7,6.4,1.9,6.4c2.3,0,4.4-2.9,5.2-4.7c1.7-3.7,6.1-19.5,1.2-19.5
	c-5.6,0-15.2,13.7-17.2,18c-3.6,7.7-1,17.1,7.2,17.1c5.5,0,10.1-5.4,12.3-10.1c1.3-2.8,2-5.6,2.3-8.2l1.1-0.2
	c0.2,7.2,7.8,19.2,4.6,26.1C76.6,90,64.3,89.9,57.3,93c-1.5-3.5-3.5-6.7-6.3-9.2c6.3-2.1,21.7-5.7,25-12.9c1.4-3,0.4-8-1.2-9.7
	c-0.3,1.1-0.7,2.2-1.2,3.2c-2.9,6.1-9,10.9-15.3,10.9c-8.8,0-12.6-6.4-8.4-15.3C52.4,54.8,65.1,37,71.7,37L71.7,37z"/>
<path fill="#FFFFFF" d="M86.7,58.2c0.4,0.9,1.4,5.8,2.1,5.8c1.7,0,4.7-4.6,5.5-5.8c1.5,1,0.7,3,3.4,3c1.2,0,1.9-2.7,3.2-2.7
	c0,1.1,0.1,2.1-0.5,3.3c-0.9,1.9-3.2,4.6-5.5,4.6c-1.6,0-3.9-2-4.3-2c-0.5,0-1.4,0.2-1.6,0.8c-1.2,2.5,2,10.9,5.1,10.9
	c1.7,0,3.7-1.2,5.5-2c-0.5,3-0.5,5.6,0.1,8.2c-1.6,1-3.5,1.5-5,1.5c-7.7,0-3.5-18.2-10.6-22.1L86.7,58.2L86.7,58.2z"/>
<path fill="#FFFFFF" d="M116.5,56.7c5.9,0,8.2,10.6,5.5,16.2c-2,4.4-5.6,7.5-10.3,7.5c-8.2,0-7.1-11.2-4-18.1c0.9-1.9,3.9-6,6.2-6
	C114.9,56.5,115.6,56.7,116.5,56.7L116.5,56.7z M116.3,57.7c-0.9,0-1.7,0.5-2.2,1.4c-0.9,1.9,3.6,3.9,2.9,5.2
	c-0.4,0.9-1.9,1.7-2.7,1.7c-3.9,0-3.8-5.1-1.5-8.4c-1.4,0.9-2.4,2.3-3,3.6c-2.3,4.9-0.5,11.5,4.7,11.5c2.9,0,6.2-2.6,7.4-5.3
	C123.6,64.1,119.6,57.7,116.3,57.7L116.3,57.7z"/>
<path fill="#FFFFFF" d="M143.1,74.2c-1.5,3.3-4.4,5.1-7.6,5.1c-10.2,0-12.2-9.4-7.8-18.8c1-2.2,2.8-4.7,5.4-4.7
	C141.3,55.8,147,66,143.1,74.2L143.1,74.2z M135,57c-0.8,0-1.4,0.3-1.8,1c-0.8,1.7,3.5,3.2,3.5,5c-0.5,0.5-1.7,1.1-2.3,1.1
	c-3.1,0-5.4-4.2-2.8-7.4c-1.1,0.7-1.7,1.7-2.2,2.7c-2.7,5.7,1.1,11.6,6.7,11.6c2.3,0,5.3-1.3,6.5-3.9C144.5,63.4,138.4,57,135,57
	L135,57z"/>
<path fill="#FFFFFF" d="M153.6,56.9c8.8,0,13.2,16.3,9.3,24.6c-0.8,1.6-2.1,3.2-4,3.2c-10,0-7.5-20.1-13.1-25.8
	c0.5-0.6,1-1.1,1.5-1.7c3.8,4.5,1.9,16.4,10.1,16.4c1.9,0,3.3-1.7,4.1-3.3c2-4.3-1.7-11.8-5.8-11.8c0,0-0.6,0-0.6,0.3
	c0.2,2.8,2.3,1,0.1,5.7c-2.2-0.4-4.6-4-3.3-6.6C152.1,57.1,153,56.9,153.6,56.9L153.6,56.9z"/>
<path fill="#FFFFFF" d="M175.4,56.7c0.8,0.1,2.1,0,2.8,0.2c0.1,0,0,0.2,0.1,0.3c0.2,1.2,0.6,2.4,0.8,3.6c1.1,4.6,1.8,9.4,3.1,14
	c1.4,5,2.9,10.6,1.2,16.9c-0.2,0.6-0.4,1.2-0.7,1.9c-6.6,12.7-20.6,9.3-25,9.3c-0.5,0-1.1-0.2-1.4-0.5c1.9-1.2,3-2.4,3.9-4.2
	c1-2.1,1-4.1,0.8-6c0.4,0.2,1.5,0.7,2,0.7c1.9,0,12.5,5.5,17.9-4.6c1.4-3,1.2-6.1,0.9-8.6c-0.1-1.3-0.3-2.5-0.5-3.8l-0.4-1.8l0-0.2
	l0-0.2c0.2,0,0,0.4,0,0.6c0.1,3.1,0.1,7.4-1.6,10.9c-0.8,1.6-2,3.3-3.9,3.3c-8.4,0-4.2-24.1-10.9-29.9c0.4-0.6,0.7-1.3,1-1.9
	c4,4.9,4.2,18.3,10.1,18.3c1.4,0,2.9-1.4,3.5-2.6C181.7,66.9,177.3,60.4,175.4,56.7L175.4,56.7z"/>
</svg>
