<?xml version="1.0" encoding="utf-8"?>
<!-- Generator: Adobe Illustrator 16.0.0, SVG Export Plug-In . SVG Version: 6.00 Build 0)  -->
<!DOCTYPE svg PUBLIC "-//W3C//DTD SVG 1.1//EN" "http://www.w3.org/Graphics/SVG/1.1/DTD/svg11.dtd">
<svg version="1.1" id="Layer_1" xmlns="http://www.w3.org/2000/svg" xmlns:xlink="http://www.w3.org/1999/xlink" x="0px" y="0px"
	 width="398.001px" height="457px" viewBox="0 0 398.001 457" enable-background="new 0 0 398.001 457" xml:space="preserve">
<path fill="#FFFFFF" stroke="#2ECC71" stroke-width="11" stroke-miterlimit="10" d="M390.5,379.756
	c0,16.428-13.316,29.744-29.744,29.744H37.244C20.816,409.5,7.5,396.184,7.5,379.756V36.244C7.5,19.817,20.816,6.5,37.244,6.5
	h323.512c16.428,0,29.744,13.317,29.744,29.744V379.756z"/>
<path fill="#FFFFFF" stroke="#2ECC71" stroke-width="8" stroke-miterlimit="10" d="M376,363.724
	c0,31.306,0.199,31.276-31.188,31.276H53.139C21.752,395,22,395.029,22,363.724V52.057C22,20.752,21.752,21,53.139,21h291.674
	C376.199,21,376,20.752,376,52.057V363.724z"/>
<path fill="#FFFFFF" stroke="#2ECC71" stroke-width="8" stroke-miterlimit="10" d="M317.951,420.229"/>
<polyline fill="#2ECC71" points="346,420 376,420 376,457 361,457 "/>
<polyline fill="#2ECC71" points="51,420 22,420 22,457 37,457 "/>
</svg>
