<?xml version="1.0" encoding="UTF-8"?>
<svg xmlns="http://www.w3.org/2000/svg" version="1.1" height="134" width="300">
	<path d="m221.53,19.734c-21.404,0-38.764,17.34-38.764,38.718s17.36,38.718,38.764,38.718,38.764-17.34,38.764-38.718-17.36-38.718-38.764-38.718zm0,9.7574c16.008,0,28.995,12.972,28.995,28.96,0,15.989-12.987,28.96-28.995,28.96s-28.995-12.972-28.995-28.96c0-15.989,12.987-28.96,28.995-28.96z" fill="#000"/>
	<path d="m121.94,19.734c-21.404,0-38.764,17.34-38.764,38.718s17.36,38.718,38.764,38.718,38.764-17.34,38.764-38.718-17.36-38.718-38.764-38.718zm0,9.7574c16.008,0,28.995,12.972,28.995,28.96,0,15.989-12.987,28.96-28.995,28.96s-28.995-12.972-28.995-28.96c0-15.989,12.987-28.96,28.995-28.96z" fill="#000"/>
	<path d="m65.574,0.00382,0,30.519c-6.9644-6.67-16.403-10.786-26.81-10.786-21.404,0-38.764,17.34-38.764,38.718s17.36,38.718,38.764,38.718c10.407,0,19.846-4.1162,26.81-10.786v8.3858h12.578v-94.768h-12.578zm-26.81,29.49c12.099,0,22.466,7.4026,26.81,17.925v22.071c-4.3446,10.522-14.711,17.925-26.81,17.925-16.008,0-28.995-12.972-28.995-28.96,0-15.989,12.987-28.96,28.995-28.96z" fill="#000"/>
	<path d="m105.56,4.9838,32.326,0c1.3098,1.0042,1.3109,2.9916,0,4.0081h-32.326c-1.3086-1.0148-1.3076-3.0079,0-4.0081z" fill="#000"/>
	<path d="m205.43,4.9838,32.326,0c1.3098,1.0042,1.3109,2.9916,0,4.0081h-32.326c-1.3086-1.0148-1.3076-3.0079,0-4.0081z" fill="#000"/>
	<path d="m165.23,1.9838,9.9251,0-0.00024,14.932-9.9246,0z" fill="#000"/>
	<path d="m165.23,21.964,9.9246,0,0,72.489c0,7.67-10.632,20.596-14.076,24.461l-6.5543-8.3546c2.8819-2.2653,10.706-9.5032,10.706-18.018z" fill="#000"/>
	<path d="m255.05,111.05,3.9985,0,0,22.948-3.9985,0z" fill="#000"/>
	<path d="m281.3,118.81,4.175,0,0,15.189-4.175,0z" fill="#000"/>
	<path d="m285.76,114c0,1.274-1.0341,2.3069-2.3098,2.3069s-2.3098-1.0328-2.3098-2.3069,1.0341-2.3069,2.3098-2.3069,2.3098,1.0328,2.3098,2.3069z" fill="#000"/>
	<path d="m265.04,111.02,0,22.944,3.995,0,0-5.7983,0.99875-1.0287,4.8377,6.8582,4.2447,0-6.6167-9.3522,5.618-5.736-4.1198,0-4.9626,5.6113,0-13.498-3.995,0z" fill="#000"/>
	<path d="m203.09,114.75,0,3.8344-2.9026,0,0,2.1822,2.9026,0,0,10.786c0,0.93429,0.16076,2.4464,4.9527,2.4464h2.0698v-2.3769l-1.2146,0.007c-1.8466,0.0112-2.7804-1.293-2.7804-1.9318v-8.9313h3.9638v-2.1822h-3.9638v-3.8344z" fill="#000"/>
	<path d="m292.97,114.75,0,3.8344-2.9026,0,0,2.1822,2.9026,0,0,10.786c0,0.93429,0.16076,2.4464,4.9527,2.4464h2.0698v-2.3769l-1.2146,0.007c-1.8466,0.0112-2.7804-1.293-2.7804-1.9318v-8.9313h3.9638v-2.1822h-3.9638v-3.8344z" fill="#000"/>
	<path d="m222.12,117.01c-4.4418,0-8.0524,3.822-8.0524,8.5105s3.6106,8.4793,8.0524,8.4793,8.0524-3.7908,8.0524-8.4793-3.6106-8.5105-8.0524-8.5105zm0,2.9304c2.2754,0,4.1198,2.4981,4.1198,5.5801s-1.8444,5.5801-4.1198,5.5801-4.1198-2.4982-4.1198-5.5801c0-3.082,1.8444-5.5801,4.1198-5.5801z" fill="#000"/>
	<path d="m242.1,117.01c-4.4418,0-8.0524,3.822-8.0524,8.5105s3.6106,8.4793,8.0524,8.4793,8.0524-3.7908,8.0524-8.4793-3.6106-8.5105-8.0524-8.5105zm0,2.9304c2.2754,0,4.1198,2.4981,4.1198,5.5801s-1.8444,5.5801-4.1198,5.5801-4.1198-2.4982-4.1198-5.5801c0-3.082,1.8444-5.5801,4.1198-5.5801z" fill="#000"/>
</svg>
