<svg id="Layer_1" data-name="Layer 1" xmlns="http://www.w3.org/2000/svg" viewBox="0 0 316.22 74.85"><defs><style>.cls-1{fill:#e2e2e2;}</style></defs><title>Artboard 1</title><path class="cls-1" d="M108.17,19.52V47.86c0,10.65-6.62,18.51-18.72,18.51S70.63,58.51,70.63,47.86V19.52H61.94V47.86c0,15.93,11.07,27,27.51,27S117,63.79,117,47.86V19.52Z"/><polygon class="cls-1" points="8.79 54.85 8.79 40.21 43.33 40.21 43.33 54.85 52.02 54.85 52.02 1.84 43.33 1.84 43.33 31.73 8.79 31.73 8.79 1.84 0 1.84 0 54.85 8.79 54.85"/><path class="cls-1" d="M134.84,54.85V24.18a15.41,15.41,0,1,1,30.82,0V54.85h8.79V24.18a15.41,15.41,0,1,1,30.82,0V54.85H214V24.18A23.86,23.86,0,0,0,189.86.08,23,23,0,0,0,170,10.94,22.65,22.65,0,0,0,150.25.08a24,24,0,0,0-24.2,24.1V54.85Z"/><rect class="cls-1" x="225.29" y="19.96" width="8.79" height="35.33"/><path class="cls-1" d="M279.42,8A28.76,28.76,0,1,1,250.66,36.8,28.8,28.8,0,0,1,279.42,8m0-8a36.8,36.8,0,1,0,36.8,36.8A36.8,36.8,0,0,0,279.42,0"/></svg>