<?xml version="1.0" encoding="UTF-8" standalone="no"?>
<svg
   xmlns:dc="http://purl.org/dc/elements/1.1/"
   xmlns:cc="http://creativecommons.org/ns#"
   xmlns:rdf="http://www.w3.org/1999/02/22-rdf-syntax-ns#"
   xmlns:svg="http://www.w3.org/2000/svg"
   xmlns="http://www.w3.org/2000/svg"
   xmlns:sodipodi="http://sodipodi.sourceforge.net/DTD/sodipodi-0.dtd"
   xmlns:inkscape="http://www.inkscape.org/namespaces/inkscape"
   version="1.1"
   width="1141.9341"
   height="326.40625"
   id="svg3859"
   inkscape:version="0.48.4 r9939"
   sodipodi:docname="Divvy_Logo.svg"
   inkscape:export-filename="\\SBS2011\RedirectedFolders\scott\Desktop\Divvy_Logo.png"
   inkscape:export-xdpi="90"
   inkscape:export-ydpi="90">
  <sodipodi:namedview
     pagecolor="#ffffff"
     bordercolor="#666666"
     borderopacity="1"
     objecttolerance="10"
     gridtolerance="10"
     guidetolerance="10"
     inkscape:pageopacity="0"
     inkscape:pageshadow="2"
     inkscape:window-width="1920"
     inkscape:window-height="1028"
     id="namedview14"
     showgrid="false"
     inkscape:zoom="1.4167721"
     inkscape:cx="554.39068"
     inkscape:cy="163.63045"
     inkscape:window-x="-8"
     inkscape:window-y="-8"
     inkscape:window-maximized="1"
     inkscape:current-layer="svg3859" />
  <defs
     id="defs3861">
    <clipPath
       id="clip62">
      <path
         d="m 5.707031,36.445312 114.277349,0 0,-32.640624 -114.277349,0 0,32.640624 z m 0,0"
         id="path219" />
    </clipPath>
  </defs>
  <metadata
     id="metadata3864">
    <rdf:RDF>
      <cc:Work
         rdf:about="">
        <dc:format>image/svg+xml</dc:format>
        <dc:type
           rdf:resource="http://purl.org/dc/dcmitype/StillImage" />
        <dc:title></dc:title>
      </cc:Work>
    </rdf:RDF>
  </metadata>
  <g
     transform="translate(262.39556,-257.73049)"
     id="layer1">
    <g
       transform="matrix(10,0,0,10,-319.46587,219.68361)"
       clip-path="url(#clip62)"
       id="g848">
      <path
         d="M 119.73438,10.800781 C 119.5625,10.53125 119.23828,10.375 118.84766,10.375 l -2.83203,0 c -0.39454,0 -0.70704,0.308594 -0.98438,0.660156 L 106.82031,20.9375 98.613281,11.035156 C 98.335938,10.683594 98.023438,10.375 97.625,10.375 l -2.824219,0 c -0.390625,0 -0.714843,0.15625 -0.894531,0.425781 -0.175781,0.273438 -0.242188,0.648438 -0.01563,0.992188 l 10.72657,13.082031 0,6.054688 c 0,0.535156 0.5,1.007812 1.0625,1.007812 l 2.28515,0 c 0.56641,0 1.0625,-0.472656 1.0625,-1.007812 l 0,-6.054688 10.73047,-13.082031 c 0.22657,-0.34375 0.15625,-0.71875 -0.0234,-0.992188"
         id="path850"
         style="fill:#0f0c0c;fill-opacity:1;fill-rule:nonzero;stroke:none" />
      <path
         d="m 22.210938,10.375 -15.492188,0 c -0.554688,0 -1.011719,0.449219 -1.011719,1.007812 l 0,19.546876 c 0,0.554687 0.457031,1.007812 1.011719,1.007812 l 15.492188,0 c 5.09375,0 9.238281,-4.144531 9.238281,-9.242188 l 0,-3.128906 c 0,-5.070312 -4.144531,-9.191406 -9.238281,-9.191406 m 0,17.203125 -12.089844,0 0,-12.84375 12.089844,0 c 2.664062,0 4.824218,2.164063 4.824218,4.832031 l 0,3.128906 c 0,2.691407 -2.160156,4.882813 -4.824218,4.882813"
         id="path852"
         style="fill:#0f0c0c;fill-opacity:1;fill-rule:nonzero;stroke:none" />
      <path
         d="m 56.296875,14.734375 c 0.539063,0 1.011719,-0.496094 1.011719,-1.058594 l 0,-2.238281 c 0,-0.570312 -0.472656,-1.0625 -1.011719,-1.0625 l -19.386719,0 c -0.539062,0 -1.007812,0.492188 -1.007812,1.0625 l 0,2.238281 c 0,0.5625 0.46875,1.058594 1.007812,1.058594 l 7.488282,0 0,12.84375 -7.488282,0 c -0.539062,0 -1.007812,0.5 -1.007812,1.058594 l 0,2.242187 c 0,0.5625 0.46875,1.058594 1.007812,1.058594 l 19.386719,0 c 0.539063,0 1.011719,-0.496094 1.011719,-1.058594 l 0,-2.242187 c 0,-0.558594 -0.472656,-1.058594 -1.011719,-1.058594 l -7.484375,0 0,-12.84375 7.484375,0 z m 0,0"
         id="path854"
         style="fill:#0f0c0c;fill-opacity:1;fill-rule:nonzero;stroke:none" />
      <path
         d="m 90.199219,3.804688 c -0.199219,0 -0.496094,0.066406 -0.800781,0.375 l -12.945313,12.9375 -12.9375,-12.9375 c -0.296875,-0.308594 -0.601563,-0.375 -0.800781,-0.375 -0.492188,0 -0.835938,0.382812 -0.835938,0.9375 l 0,3.84375 c 0,0.390624 0.15625,0.632812 0.367188,0.847656 0.175781,0.175781 11.894531,11.832031 12.074218,12.007812 0.234376,0.234375 0.625,0.398438 0.957032,0.398438 l 2.359375,0 c 0.324219,0 0.726562,-0.164063 0.960937,-0.398438 C 78.773438,21.265625 90.492188,9.609375 90.667969,9.433594 90.878906,9.21875 91.035156,8.976562 91.035156,8.585938 l 0,-3.84375 c 0,-0.554688 -0.339844,-0.9375 -0.835937,-0.9375"
         id="path856"
         style="fill:#51c2f0;fill-opacity:1;fill-rule:nonzero;stroke:none" />
      <path
         d="m 90.199219,18.40625 c -0.199219,0 -0.496094,0.07031 -0.800781,0.382812 l -12.945313,12.9375 -12.9375,-12.9375 c -0.296875,-0.3125 -0.601563,-0.382812 -0.800781,-0.382812 -0.492188,0 -0.835938,0.390625 -0.835938,0.945312 l 0,3.835938 c 0,0.390625 0.15625,0.640625 0.367188,0.851562 0.175781,0.175782 11.894531,11.835938 12.074218,12.011719 0.234376,0.234375 0.625,0.394531 0.957032,0.394531 l 2.359375,0 c 0.324219,0 0.726562,-0.160156 0.960937,-0.394531 C 78.773438,35.875 90.492188,24.214844 90.667969,24.039062 90.878906,23.828125 91.035156,23.578125 91.035156,23.1875 l 0,-3.835938 c 0,-0.554687 -0.339844,-0.945312 -0.835937,-0.945312"
         id="path858"
         style="fill:#51c2f0;fill-opacity:1;fill-rule:nonzero;stroke:none" />
    </g>
  </g>
</svg>
